<mxfile host="Electron" agent="Mozilla/5.0 (Windows NT 10.0; Win64; x64) AppleWebKit/537.36 (KHTML, like Gecko) draw.io/27.0.9 Chrome/134.0.6998.205 Electron/35.4.0 Safari/537.36" version="27.0.9">
  <diagram name="第 1 页" id="X63m8i_CkRLSySfPFN5y">
    <mxGraphModel dx="1722" dy="1001" grid="1" gridSize="10" guides="1" tooltips="1" connect="1" arrows="1" fold="1" page="1" pageScale="1" pageWidth="1169" pageHeight="1654" math="0" shadow="0">
      <root>
        <mxCell id="0" />
        <mxCell id="1" parent="0" />
        <mxCell id="nRx_onGV140uEVC1Cf9N-1" value="" style="rounded=0;whiteSpace=wrap;html=1;fillColor=none;strokeColor=#6c8ebf;" vertex="1" parent="1">
          <mxGeometry x="340" y="30" width="460" height="370" as="geometry" />
        </mxCell>
        <mxCell id="nRx_onGV140uEVC1Cf9N-2" value="&lt;div style=&quot;line-height: 10%;&quot;&gt;&lt;h1 style=&quot;line-height: 10%;&quot;&gt;&lt;font&gt;&lt;span style=&quot;font-size: 18px; line-height: 10%;&quot;&gt;goto语句基本格式&lt;/span&gt;&lt;br&gt;&lt;/font&gt;&lt;/h1&gt;&lt;h1 style=&quot;line-height: 10%;&quot;&gt;&lt;span style=&quot;font-size: 13px; font-weight: 400;&quot;&gt;处理错误的标准方法&lt;/span&gt;&lt;/h1&gt;&lt;/div&gt;" style="html=1;shadow=0;dashed=0;shape=mxgraph.bootstrap.rrect;rSize=5;strokeColor=#6c8ebf;strokeWidth=1;fillColor=#dae8fc;whiteSpace=wrap;align=center;verticalAlign=middle;spacingLeft=0;fontStyle=1;fontSize=14;spacing=5;" vertex="1" parent="1">
          <mxGeometry x="340" y="30" width="460" height="50" as="geometry" />
        </mxCell>
        <mxCell id="nRx_onGV140uEVC1Cf9N-29" value="&lt;span style=&quot;font-size: 16px;&quot;&gt;&lt;span style=&quot;white-space: pre;&quot;&gt;&#x9;&lt;/span&gt;ret = allocate_resource_A();&amp;nbsp; &lt;span style=&quot;white-space: pre;&quot;&gt;&#x9;&lt;/span&gt;&lt;span style=&quot;white-space: pre;&quot;&gt;&#x9;&lt;/span&gt;// 申请资源A&lt;/span&gt;" style="text;html=1;align=left;verticalAlign=middle;whiteSpace=wrap;rounded=0;dashed=1;fontSize=14;" vertex="1" parent="1">
          <mxGeometry x="340" y="80" width="460" height="20" as="geometry" />
        </mxCell>
        <mxCell id="nRx_onGV140uEVC1Cf9N-30" value="&lt;span style=&quot;font-size: 16px;&quot;&gt;&lt;span style=&quot;white-space: pre;&quot;&gt;&#x9;&lt;/span&gt;&lt;span style=&quot;white-space: pre;&quot;&gt;&#x9;&lt;/span&gt;goto err_alloc_A;&amp;nbsp; &amp;nbsp; &amp;nbsp; &amp;nbsp; &amp;nbsp;&lt;span style=&quot;white-space: pre;&quot;&gt;&#x9;&lt;/span&gt;&lt;span style=&quot;white-space: pre;&quot;&gt;&#x9;&lt;/span&gt;//申请资源A失败&lt;/span&gt;" style="text;html=1;align=left;verticalAlign=middle;whiteSpace=wrap;rounded=0;dashed=1;fontSize=14;" vertex="1" parent="1">
          <mxGeometry x="340" y="100" width="460" height="20" as="geometry" />
        </mxCell>
        <mxCell id="nRx_onGV140uEVC1Cf9N-32" value="&lt;span style=&quot;font-size: 16px; white-space: pre;&quot;&gt;&#x9;&lt;/span&gt;&lt;span style=&quot;font-size: 16px;&quot;&gt;ret = allocate_resource_B();&amp;nbsp;&amp;nbsp;&lt;/span&gt;&lt;span style=&quot;font-size: 16px; white-space: pre;&quot;&gt;&#x9;&lt;/span&gt;&lt;span style=&quot;font-size: 16px; white-space: pre;&quot;&gt;&#x9;&lt;/span&gt;&lt;span style=&quot;font-size: 16px;&quot;&gt;// 申请资源B&lt;/span&gt;" style="text;html=1;align=left;verticalAlign=middle;whiteSpace=wrap;rounded=0;dashed=1;fontSize=14;" vertex="1" parent="1">
          <mxGeometry x="340" y="140" width="460" height="20" as="geometry" />
        </mxCell>
        <mxCell id="nRx_onGV140uEVC1Cf9N-33" value="&lt;span style=&quot;font-size: 16px; white-space: pre;&quot;&gt;&#x9;&lt;/span&gt;&lt;span style=&quot;font-size: 16px; white-space: pre;&quot;&gt;&#x9;&lt;/span&gt;&lt;span style=&quot;font-size: 16px;&quot;&gt;goto err_alloc_B;&amp;nbsp; &amp;nbsp; &amp;nbsp; &amp;nbsp; &amp;nbsp;&lt;/span&gt;&lt;span style=&quot;font-size: 16px; white-space: pre;&quot;&gt;&#x9;&lt;/span&gt;&lt;span style=&quot;font-size: 16px; white-space: pre;&quot;&gt;&#x9;&lt;/span&gt;&lt;span style=&quot;font-size: 16px;&quot;&gt;//申请资源B失败&lt;/span&gt;" style="text;html=1;align=left;verticalAlign=middle;whiteSpace=wrap;rounded=0;dashed=1;fontSize=14;" vertex="1" parent="1">
          <mxGeometry x="340" y="160" width="460" height="20" as="geometry" />
        </mxCell>
        <mxCell id="nRx_onGV140uEVC1Cf9N-35" value="&lt;span style=&quot;font-size: 16px; white-space: pre;&quot;&gt;&#x9;&lt;/span&gt;&lt;span style=&quot;font-size: 16px;&quot;&gt;ret = allocate_resource_C();&amp;nbsp;&amp;nbsp;&lt;/span&gt;&lt;span style=&quot;font-size: 16px; white-space: pre;&quot;&gt;&#x9;&lt;/span&gt;&lt;span style=&quot;font-size: 16px; white-space: pre;&quot;&gt;&#x9;&lt;/span&gt;&lt;span style=&quot;font-size: 16px;&quot;&gt;// 申请资源C&lt;/span&gt;" style="text;html=1;align=left;verticalAlign=middle;whiteSpace=wrap;rounded=0;dashed=1;fontSize=14;" vertex="1" parent="1">
          <mxGeometry x="340" y="200" width="460" height="20" as="geometry" />
        </mxCell>
        <mxCell id="nRx_onGV140uEVC1Cf9N-36" value="&lt;span style=&quot;font-size: 16px; white-space: pre;&quot;&gt;&#x9;&lt;/span&gt;&lt;span style=&quot;font-size: 16px; white-space: pre;&quot;&gt;&#x9;&lt;/span&gt;&lt;span style=&quot;font-size: 16px;&quot;&gt;goto err_alloc_C;&amp;nbsp; &amp;nbsp; &amp;nbsp; &amp;nbsp; &amp;nbsp;&lt;/span&gt;&lt;span style=&quot;font-size: 16px; white-space: pre;&quot;&gt;&#x9;&lt;/span&gt;&lt;span style=&quot;font-size: 16px; white-space: pre;&quot;&gt;&#x9;&lt;/span&gt;&lt;span style=&quot;font-size: 16px;&quot;&gt;//申请资源C失败&lt;/span&gt;" style="text;html=1;align=left;verticalAlign=middle;whiteSpace=wrap;rounded=0;dashed=1;fontSize=14;" vertex="1" parent="1">
          <mxGeometry x="340" y="220" width="460" height="20" as="geometry" />
        </mxCell>
        <mxCell id="nRx_onGV140uEVC1Cf9N-38" value="&lt;span style=&quot;font-size: 16px;&quot;&gt;// 错误处理标签（注意顺序：后申请的先释放）&lt;/span&gt;" style="text;html=1;align=left;verticalAlign=middle;whiteSpace=wrap;rounded=0;dashed=1;fontSize=14;fillColor=#f8cecc;strokeColor=#b85450;" vertex="1" parent="1">
          <mxGeometry x="340" y="260" width="460" height="20" as="geometry" />
        </mxCell>
        <mxCell id="nRx_onGV140uEVC1Cf9N-39" value="&lt;span style=&quot;font-size: 16px;&quot;&gt;err_alloc_C:&lt;/span&gt;" style="text;html=1;align=left;verticalAlign=middle;whiteSpace=wrap;rounded=0;dashed=1;fontSize=14;" vertex="1" parent="1">
          <mxGeometry x="340" y="280" width="460" height="20" as="geometry" />
        </mxCell>
        <mxCell id="nRx_onGV140uEVC1Cf9N-40" value="&lt;font style=&quot;font-size: 16px;&quot;&gt;&lt;span style=&quot;white-space: pre;&quot;&gt;&#x9;&lt;/span&gt;free_resource_B();&lt;/font&gt;" style="text;html=1;align=left;verticalAlign=middle;whiteSpace=wrap;rounded=0;dashed=1;fontSize=14;" vertex="1" parent="1">
          <mxGeometry x="340" y="300" width="460" height="20" as="geometry" />
        </mxCell>
        <mxCell id="nRx_onGV140uEVC1Cf9N-41" value="&lt;span style=&quot;font-size: 16px;&quot;&gt;err_alloc_B:&lt;/span&gt;" style="text;html=1;align=left;verticalAlign=middle;whiteSpace=wrap;rounded=0;dashed=1;fontSize=14;" vertex="1" parent="1">
          <mxGeometry x="340" y="320" width="460" height="20" as="geometry" />
        </mxCell>
        <mxCell id="nRx_onGV140uEVC1Cf9N-42" value="&lt;span style=&quot;font-size: 16px;&quot;&gt;&lt;span style=&quot;white-space: pre;&quot;&gt;&#x9;&lt;/span&gt;free_resource_A();&lt;/span&gt;" style="text;html=1;align=left;verticalAlign=middle;whiteSpace=wrap;rounded=0;dashed=1;fontSize=14;" vertex="1" parent="1">
          <mxGeometry x="340" y="340" width="460" height="20" as="geometry" />
        </mxCell>
        <mxCell id="nRx_onGV140uEVC1Cf9N-43" value="&lt;span style=&quot;font-size: 16px;&quot;&gt;err_alloc_A:&lt;/span&gt;" style="text;html=1;align=left;verticalAlign=middle;whiteSpace=wrap;rounded=0;dashed=1;fontSize=14;" vertex="1" parent="1">
          <mxGeometry x="340" y="360" width="460" height="20" as="geometry" />
        </mxCell>
        <mxCell id="nRx_onGV140uEVC1Cf9N-44" value="&lt;span style=&quot;font-size: 16px;&quot;&gt;&lt;span style=&quot;white-space: pre;&quot;&gt;&#x9;&lt;/span&gt;return ret;&lt;/span&gt;" style="text;html=1;align=left;verticalAlign=middle;whiteSpace=wrap;rounded=0;dashed=1;fontSize=14;" vertex="1" parent="1">
          <mxGeometry x="340" y="380" width="460" height="20" as="geometry" />
        </mxCell>
        <mxCell id="nRx_onGV140uEVC1Cf9N-51" value="&lt;h1&gt;&lt;span style=&quot;font-size: 18px;&quot;&gt;指针错误处理机制&lt;/span&gt;&lt;/h1&gt;" style="rounded=0;whiteSpace=wrap;html=1;fontSize=16;fillColor=#d5e8d4;strokeColor=#82b366;strokeWidth=2;" vertex="1" parent="1">
          <mxGeometry x="340" y="430" width="540" height="39" as="geometry" />
        </mxCell>
        <mxCell id="nRx_onGV140uEVC1Cf9N-52" value="" style="shape=table;startSize=0;container=1;collapsible=0;childLayout=tableLayout;fixedRows=1;rowLines=0;fontStyle=0;strokeColor=#82b366;fontSize=16;spacing=4;spacingTop=0;spacingLeft=0;spacingBottom=0;strokeWidth=2;fillColor=none;" vertex="1" parent="1">
          <mxGeometry x="340" y="469" width="540" height="171" as="geometry" />
        </mxCell>
        <mxCell id="nRx_onGV140uEVC1Cf9N-53" value="" style="shape=tableRow;horizontal=0;startSize=0;swimlaneHead=0;swimlaneBody=0;top=0;left=0;bottom=0;right=0;collapsible=0;dropTarget=0;fillColor=none;points=[[0,0.5],[1,0.5]];portConstraint=eastwest;strokeColor=inherit;fontSize=16;spacing=4;spacingTop=0;spacingLeft=0;spacingBottom=0;" vertex="1" parent="nRx_onGV140uEVC1Cf9N-52">
          <mxGeometry width="540" height="41" as="geometry" />
        </mxCell>
        <mxCell id="nRx_onGV140uEVC1Cf9N-54" value="指针分类" style="shape=partialRectangle;html=1;whiteSpace=wrap;connectable=0;fillColor=none;top=0;left=0;bottom=0;right=0;overflow=hidden;strokeColor=inherit;fontSize=16;fontStyle=1;align=left;spacing=4;spacingTop=0;spacingLeft=0;spacingBottom=0;" vertex="1" parent="nRx_onGV140uEVC1Cf9N-53">
          <mxGeometry width="122" height="41" as="geometry">
            <mxRectangle width="122" height="41" as="alternateBounds" />
          </mxGeometry>
        </mxCell>
        <mxCell id="nRx_onGV140uEVC1Cf9N-55" value="&lt;div&gt;有效指针、NULL指针、错误指针&lt;/div&gt;" style="shape=partialRectangle;html=1;whiteSpace=wrap;connectable=0;fillColor=none;top=0;left=0;bottom=0;right=0;align=left;spacingLeft=0;overflow=hidden;strokeColor=inherit;fontSize=16;spacing=4;spacingTop=0;spacingBottom=0;strokeWidth=1;" vertex="1" parent="nRx_onGV140uEVC1Cf9N-53">
          <mxGeometry x="122" width="418" height="41" as="geometry">
            <mxRectangle width="418" height="41" as="alternateBounds" />
          </mxGeometry>
        </mxCell>
        <mxCell id="nRx_onGV140uEVC1Cf9N-56" value="" style="shape=tableRow;horizontal=0;startSize=0;swimlaneHead=0;swimlaneBody=0;top=0;left=0;bottom=0;right=0;collapsible=0;dropTarget=0;fillColor=none;points=[[0,0.5],[1,0.5]];portConstraint=eastwest;strokeColor=inherit;fontSize=16;spacing=4;spacingTop=0;spacingLeft=0;spacingBottom=0;" vertex="1" parent="nRx_onGV140uEVC1Cf9N-52">
          <mxGeometry y="41" width="540" height="60" as="geometry" />
        </mxCell>
        <mxCell id="nRx_onGV140uEVC1Cf9N-57" value="错误指针原理" style="shape=partialRectangle;html=1;whiteSpace=wrap;connectable=0;fillColor=none;top=0;left=0;bottom=0;right=0;overflow=hidden;strokeColor=inherit;fontSize=16;fontStyle=1;align=left;spacing=4;spacingTop=0;spacingLeft=0;spacingBottom=0;" vertex="1" parent="nRx_onGV140uEVC1Cf9N-56">
          <mxGeometry width="122" height="60" as="geometry">
            <mxRectangle width="122" height="60" as="alternateBounds" />
          </mxGeometry>
        </mxCell>
        <mxCell id="nRx_onGV140uEVC1Cf9N-58" value="1. 内核空间最后一页&amp;nbsp; &amp;lt;--- 映射 ---&amp;gt;&amp;nbsp; 负数错误码&lt;br&gt;2. 负数错误码的表现形式" style="shape=partialRectangle;html=1;whiteSpace=wrap;connectable=0;fillColor=none;top=0;left=0;bottom=0;right=0;align=left;spacingLeft=0;overflow=hidden;strokeColor=inherit;fontSize=16;spacing=4;spacingTop=0;spacingBottom=0;strokeWidth=1;" vertex="1" parent="nRx_onGV140uEVC1Cf9N-56">
          <mxGeometry x="122" width="418" height="60" as="geometry">
            <mxRectangle width="418" height="60" as="alternateBounds" />
          </mxGeometry>
        </mxCell>
        <mxCell id="nRx_onGV140uEVC1Cf9N-59" value="" style="shape=tableRow;horizontal=0;startSize=0;swimlaneHead=0;swimlaneBody=0;top=0;left=0;bottom=0;right=0;collapsible=0;dropTarget=0;fillColor=none;points=[[0,0.5],[1,0.5]];portConstraint=eastwest;strokeColor=inherit;fontSize=16;spacing=4;spacingTop=0;spacingLeft=0;spacingBottom=0;" vertex="1" parent="nRx_onGV140uEVC1Cf9N-52">
          <mxGeometry y="101" width="540" height="70" as="geometry" />
        </mxCell>
        <mxCell id="nRx_onGV140uEVC1Cf9N-60" value="错误指针API" style="shape=partialRectangle;html=1;whiteSpace=wrap;connectable=0;fillColor=none;top=0;left=0;bottom=0;right=0;overflow=hidden;strokeColor=inherit;fontSize=16;fontStyle=1;align=left;spacing=4;spacingTop=0;spacingLeft=0;spacingBottom=0;" vertex="1" parent="nRx_onGV140uEVC1Cf9N-59">
          <mxGeometry width="122" height="70" as="geometry">
            <mxRectangle width="122" height="70" as="alternateBounds" />
          </mxGeometry>
        </mxCell>
        <mxCell id="nRx_onGV140uEVC1Cf9N-61" value="1. IS_ERR(*ptr)&amp;nbsp; &amp;nbsp; &amp;nbsp; &amp;nbsp;：判断指针是否错误指针&lt;br&gt;2. PTR_ERR(*ptr)&amp;nbsp; &amp;nbsp;：错误指针&amp;nbsp;---&amp;gt;&amp;nbsp;错误码&lt;br&gt;3. ERR_PTR(error) ：错误码 ---&amp;gt; 错误指针" style="shape=partialRectangle;html=1;whiteSpace=wrap;connectable=0;fillColor=none;top=0;left=0;bottom=0;right=0;align=left;spacingLeft=0;overflow=hidden;strokeColor=inherit;fontSize=16;spacing=4;spacingTop=0;spacingBottom=0;strokeWidth=1;" vertex="1" parent="nRx_onGV140uEVC1Cf9N-59">
          <mxGeometry x="122" width="418" height="70" as="geometry">
            <mxRectangle width="418" height="70" as="alternateBounds" />
          </mxGeometry>
        </mxCell>
        <mxCell id="nRx_onGV140uEVC1Cf9N-101" value="" style="shape=image;verticalLabelPosition=bottom;labelBackgroundColor=default;verticalAlign=top;aspect=fixed;imageAspect=0;image=data:image/png,iVBORw0KGgoAAAANSUhEUgAAAucAAAMCCAIAAABFm/8aAAAgAElEQVR4Aey9+VdUV7o3Xn9A+0Pftd7vm/4hfdd6+6bzdqer091JvHYSjVGxI5F2BMdEDaKGqAwxapASY1JSzgYTFUHjAHFGI4oKaiGozIMTIIqAIAiaYF9dfW/701fypD/9vHufOjVwqigOO8uVtWuffZ79zM9n77PPwWJT/ykNKA0oDSgNKA0oDSgN9AUNWGw2W+WDVvVPUwNmUo6ZZNE0lsk6lb1MZlBBHGVfQSHqp9KAJxqw2WwKteghNjNlFjPJ4olz9/Uxyl593YL6/Cv76utHXVUa0NSAQi16kKXyQauZMouZZNH0ZpN1KnuZzKCCOMq+gkLUT6UBTzSgUItCLW404IkbqTH+0ICqav7QavDQVPYNHlsoTvqQBhRqcVOzzZRZzCRLH4oxn1lV9vJZdX3iRmXfPmEmxWSwaUChFoVa3Ggg2Fy2//Cjqpq5ba3sa277Kun8pAEjUUthU23+nRvlHXeJ14rOlvO3rp64UlTSdqfyQWthU2129aVLLfV+ksRPZHuSWSo6W/Lqqk5dKyltbwJ7xfcavi3M+a6ysKyjGZ1oFLXcdt66Vnr/X+MvtdRnV18qaKzBGJ8bPZHF50kNubG84+7xqovHqy6Wtjd6QrCis+VMTfm5W1c8GRy0Y4LQXhWdLQWNNQWNNRWdLdBbQWNNXwxt8N9bjSC0b2+pIgDzlnfcLb7XwCcqvteAalX5oLWis6Wo5Tbv4YNVO3g0YBhqKWm7s2LnugmxU07fKCPxSu83rc78ekLslNzayorOll3njoXOCTtYdJauVnS2HK+6uGbf1nP11ZUPWkvbG/fmZ687kLp2/zbh37oDqbvOHSXoIyuuoLHmWEXhkTIn/3esvCD/9nWeWOUbPezxIbNUdLacvVld2FRbfK/Btt0RmRSd33D9Ukv9yavFpe1NJ68Vh0WPX7FznVyAyzqaNx/bM2zmyP2XzoD5g0VnR84O3ZF3BD0eci4P80EWmUjgeyo6W46VF4RFj5+ROOf8ras6DBS13qbEdPpG2cS4qSt2rkOeKm1vutRS33Md6sxu+KUgtNflu7c+3pg4ZfEMClvK9TtyD4fOCTtU/FNocz1cvnvruyoxPHmoUvto+YW8uiqyTlHL7bgNCXO+WFjYVFvSdufElaKs8nz5FiyHKjpbTl0v3XRkh5A3hJ/rDqR+c/Yo/IEz2VvtILRvb6nC3/OWtjeuP7h9+qcfZFdfIqc9eDkv4uNpqTn7sUQ8ceXyxLip9j1f6jhJRWfLkTLn+oNpgnd99d0e561r/pZC0ScNGIZaztVXT106a8lXn11uvU2kZdTyTtRooJbS9qb1B7f/IeyPH66Kz2+4XtRyO3b9p9ZQq+a/6OT4wua67OpLC9YsnpU0D/+iVi6ITo7/05hXhLteGffqtpP7DEHNPmSW/Ibr8+yxC9cuyaurItRyvOpi3IaEsQvDv6sqTD9zaOj7w/c4j8sVtLCpdv7qRaPmhtn3fImo+CQl6ZVxry5Ysxg96w+mHSlz+iCdD7IEQ5ycqSmfkTjHGmr905hX1u7fpolfKzpbDhafDZ0TtvXkt+Udd0vbG5P3bg6LHn/iymUS4cSVojHzJ6zdv43vewWDdDo8BKG9cq6VjF0wMSl9DTJ7RWfLjtzD70SN1kQth0vODX1/uBCemj9t2x1Ek6OWvLqqiXFTNcePi4nIra2kCrTr7NFB4a9PiJ2CzCA0ZiTOeXPKEEJCOgoP8KUgtG+ANRCw6So6Ww6XnBs1N2za0lm0rj57s3pG4pxhM0L2XTxd0dlS2FS7cO2SUXPDjpQ5KTPTmpP73pQlM3NrK9fu38Y7qR0SOepYRWHAxOnnExmDWio6W/Y6s9+YPDgkctTM5XPnfr4wauUC2bToSd67ubS9qajl9ooda62h1qQda5y3rsVuSPhwVXxhUy03SVHL7YVrl3T3/xO1zEic88bkwQMnDJqeEDnni4VbsjNW79sSv3HZ3vxsWpCtP5Q29P3he/OzZVjAKXvY9iGzVHS2fFdVOCF2ytSls2YlzRs+c+SY+RPCoscfKXNevntr8eYVoXPCduZlEbdZ5fm5tRUEQY6Ung+JHPWRY1HIB+9AV5qN1ZlfY4ngoSB98S3uis6Wo+UXJsROCYsev//SmeS9m18Z9+rytNWCk5AGTl0vHRcTsfifuPnElcth0eM/372xtL3xx62+o0OmDU0/c8gQr/Bc5z0Z6YPv9WQ6t/eWdTRvyc4YFP76M2fWdEveSTF+uORcyAfvfP7NRmyWPFuVvjX97c92rkfPrnPHxsyfoIlahL2Wg0VnE7baXxn36sAJg5Izv7p89xZQy5tThnySkgRkLzSSM78aHzNJoRa3JjbxgPKOu3vzs9+a/nZ0cvyFO92POLPK82kH90xN+Zpvt/w54vVtJ/YhrxJqGTk79PPdG9d8u+W9hNlALWMXhp+6Xkq6Ku+4uyU74915YxRqCZjzGINaLt69Gbsh4Y3Jg2ckzpmVNO/DVXH0rGfm8rmDpw5dsWPt2v3bYtd/+tr4gZ+kJK0/uP1wyTmq04VNtYu+XP6RY9HJa8VuUQsp5Vx99fRPP0COK21vXLFz3ZTFM87WV1EKSz9zqBsyl543RIneVo7yjruHS86tO5AanfzxxLip42Ii3pr+9pj5Ez5yLNp0ZMfOvKx3543hyd0aal2Usvxy6+2Stjuf7Vz/7rwxx6sucs5/ekKUe7jn5dZbWTgbgW8XNtWu3rfljcmDpydELvnqs4St9nP11VtOZA6ZNnRi3NS9+dnCI7bLd2/Fb1wW8fG0vLpuTyi+17Bs26oft1uKStubVmVsHjU3TNBt4IXyasZgs1dBY82clQunJ0TuzMvim+QL1ix+ZdyrizevAFZYfzCNYvxwybmRs0P5xueRMmfonLAt2RnYLDxXXz1l8QxENN9rgbrKO+5mledHroi2hlo/XBV34koRwqEbkqq9FvVxcw80UHq/6dvCnKzy/O+qCkPnhAl5GD8TU5OL7zX89Hx/Rffz/dL2RvueL6ctnUV7LQq1IDB7pWEAainvuLszL2vw1KGbj+0GUO0+qqJ7rgXSlrY3lt7v3neJXf/poPDX30uYzXd3aWeFnhD9tK46d2zYzJHfnD1Kaauo9faSrz6LXPFR/p0blQ9ayzqav8z6ZuyCiSevFmOKnjS8rRxUIBEAvPHy6JdDPnhnyLShW7IzjpQ51+7f9uaUIRsOp52pKS/vuPssEYdFj1+6ZWVRy22dffVB4a/vOveT7N7K5a0s3tI3avyllvot2Rmj5oa9Nn7gqozNF+/efLZtGxY9fvFXnxU01py4UjT384XWUOvUpbN2nTtW9M8nkmUdzV99t+fNKUN25mVVdLZUdLacuHJ517mjRS238xuuz0qaF7niI0MONRslpls6QWWv7v3U/Ow3pwxZdyC1+F7DqWslOG6yKmPzkGnd4c+2DysJlHiFWk7fKJuyZCYPmbmfLyxorMmrq1r69co/hP0xLHr8N2ePCmiVUIvaa3HrTmoANJBdfWnU3LA5Kxeu2bcVUHvt/m0rd24YPnNk4jaFWoL6xVIDUEtpe+Oab7f8IeyPkxa9R4Bj/upFjm+/XrNvq+Zey9r9274+nvHNuaPrD27HEbniew1r92+LXBHNIQu1I5OiV2VsLmrpPi5T2Fy3cO2SKUtmnr3ZfYa38kHrpZb6BWsWL1j9Cb2dVNreuGpvyuTF72MAPNW3hs+Vo7CpdvFXn1lDrW9MHrx635bCptpj5QWhc8LenDJk38VTZR3N207sGz1v7LHyAtoYeLZnbg21frF7U2l74+GSc8NmhEQnf8wjau3+bYu+XP7mlCEmRi2l95vSzxx6J2q0NdQ6dmH4voun6U2r8o6735w9umzbKpzdfnY8mZ5TTE+IzK2tIOMS8ovbsIy/qlbR2fJtYc6QaUPXH9zOUbVv/hDIu3z2PX8wefHuzZh1S18e/fKmIzudt67RtgdHGLy9+KvPCE3q4G8+3hpqtW135DdcTzt9MDnzq7ELw+l01+Zje1btTXlzypCBEwat2pui+WSworPlUPHZ6OR4pA5a6rw2fuC0Hx/RIo3Y93xJD5X8oR8faAaVfX3gv6/cUtretCU7I3LFRygl2dWXwqLHf5n1jfAi5/lbV6cnRP4LtaQ5IrX2WgTXtYZa1bmWQDqDAail8kHr5bu3duZlzfli4Z8jXk9MTf5898aRs0Nl06JnzIKJH2+y0U9aTuXfvn6svACPuoXG0fIL529dLe+4u+vcsT9HvD5k2tAZiXPIBXNrK6NWLlj69UrKkkWtt5duWTn7s/kX7hjwqrBvZ0FK7zcdLDobueKjN6cMwQmVsOjxER9PoyOlX323p/hew6q9KRNip5ypKe8+SVp0dvjMkRy1dJ8G2LVB0MOmIzuGvj/cxKiFKtCMxDmrM78Wlt1wHmrEb1x2/tbVbSf2db8F8M/Xobs3ddMcIZGjjpQ5EUWXWuo/3mSjR0Xo7BON4Klq9A7gG5MHA7XM/mz+nJULD17OO1Lm5HstGQUnJy16bwlDLQL+Xvr1ytfGD4xOjgci/2zn+mEzQuQnRBfu1Gw/deC18QOtodZhM0fOXD4XuKR75ywpeumWlXm1VSeuFAlhcqj4bNyGhOEzR6adPihcOlp+4Vx9NZ4u9a4bBI99e1cP/p6dUMvM5XPfmDwYRyQ9Qi3bHTzt0LmWNfu2vjllSFL6Gjjwh6viFGrxtxE5fWNQCz2aSTm6a8z8CSeuFPEJdNr0cGeePTa/4fqmIzteHv0ydxGhve5Aal591aykeQRs30uY/cbkwdHJH5+4UjR16aypS2et+XbL2v3bVmVspqOvjm+/xmlwHR7cXvI2s1xuvb08bbU11Brx8fSDRWcTtyXPsM1NP3No7MLwsQvDV+xYO3bBxBU71+U3XF+wZjEhtgt3aj5cFUfyYq/F1ZsX/eEJUeWD1pK2O7vOHZPfhF+xc92wGSEDJwz66rs98sYJ4b+h7w//dMvntDmH5xqf796o+fKRWwfoxQHe+p7/WD1bXzU9IfLNKUNeGz+Q9lpmfzZ/8eYVl1tvV3S2pJ85FDon7HDJucoHrRfu1Mz+bD5Qy8HisyGRo1Jz9uMUi+fnWgoaa05eK950ZMenW74YOGFQdHL8MyOOmhs2Libii92bpi6dNXnx+weKcscumCjkCv2fFGL+05XnlIPHvp7z3HdH0q58dPLH9GJHWPT4TUd2auy1fPrBv/ZatjuE07hnasqT926mz3mQKtRp3MC7hAGopbzj7pEy57oDqXM//2mvZePh9D3O44u+XM7XRtindXz7NVUUoJaCxhq+17L3womIj6dHrvjowOVcWir9+DmHyk1ZO+kl53UHUgub6+I3LvvIseho+YWxC8PlPPXy6Jc3Hk4XnNIH/XqbWei1l2ebIvkN13edPRoWPX77qQOl7Y35Ddedt65daqmP25Awc/ncA5dzx8VEfP5N9xsu+XduxKxb+tnO9RPjpgK1vBM1mud64nz/pTMhkaNMvNeib6Dc2so5XywcFP76luwMVy8wF7Xc/nTLF29MHrzr7NHyjrsFjTXz7LET46bizL/+FEF11Vvf8x/zzlvXYtYtXX9wO+X6H58QfTR4aveW56ykeaPnjbWGWifGTZ2VNG96QuTACYOAWg5czh0+cyR/dUsbtSyZKe+10POg8o67z7bTCBWdvlE2IXaK49uvL7XU29Ic7yXMpu/3lLY35bBzNsL+CnLI+VtXg2SXhSwVPPb1n+cED2UBtXh0rkV6QnT6RtmKnesmLXoPJxAUagm8iQ1ALXTqluOGV8a9aktzvDtvTNTKBfy4E22EzF+9iI4dALUIj6vP37r6XsLsZdtW4ZsQdA73YNHZ2PWfhnzwDkcthc11stbordfNx3YHHrWUtN3ZcDgtckU0fSLiT2NembJk5o9HQaPX7t9W1HI75eiuIdOGxm5IGDYjhL7aQl8LOHWtZPLi94Fahs0IeXfeGAH2jYuJ6Cd7Ld3HgKSPB+7IPTxl8YzEbcmHis9mleeful4qb7dUPmg9ea14XEzE2AUTDxadXZWx+bXxA4Vz4rLDBGdP8FS1is6W/Ds3vqssJNRS0Fjz+Tcbp3/6wYzEOTOXzw354J0/hP1x8uL3ZdTy7cVTb04ZsmDtv7425PkTonP11bm1lfm3r3+4Km5W0rz829e/LcwZPnMknbD+dMvn9P3Gyget+Q3XZy6fy1OQZnvdgdSeJwQDXSV47GugUEFLiqOWMzXlH29MpBQ9cMKgqUtnDZk29LXxA6d/+kHkio+600V7Iz1uFs61nLpeumzbqlfGvcqPTI2aG6aeEAXS7gagFmK3rKOZPyE6ea147MJwYQvu8t1bC9cumb960cW7NysftAK1HLycR8s1zVxDnaPmhmVXXzp1vXRC7BRCLXEbEqJWLjj4YwHjq6tjFYV787PfnTeGv13ps069zSyEWt5LmD1wwiAKg1lJ88bFRFhDrfTtELx0N/3TD/gn58/erFaohcxEpygGhb+u4w/WUOs8e6yAd+l2Ov80eOpQuj1uwzLNYT67RMBu9Nb3/M0YHXbedGRn6f2m41UXo1YuyCg4ebn19rJtq7rPv//46YGi1ts787K+Lcwpvd/U/QG6vCMDJwzi33+jr8aNmhsGRD516azudc7/+5W5QeGvvzX97Zh1S7/M+mbw1KFfZ+/t/rzTznUT46aeqSkvarm96Mvlc77ofsOIUEtkUjRt7Gsqgb7ls/7gdoVaNPXTHzr/hVqaavPqqi611Hf3rP4kOjn+XH310i0rZ9jm5t++DlVoopbjVRefjccuI/mwQi1QWmAafkEtP77H2/2NL82q8+wrasJey8lrxav3bVmVsXnt/m1rvt0yPSGSTq1+vMmGE09fZ+/Nv3Mjt7YSqCV+47Ix8yfIx35fGz9w0ZfLR84O5fvSPmvTh8pR1tG8/dSBQeGvJ6WvKWq9Td9pfXPKEPrwHX1W5OXRL687kMq3CgTU0j9P45KZCLWERI7af+mMpuF+/KTHsu734f/fbxJi8KWW+viNy6yh1sFThxr1vUEQD1jDB9/zK29ALWUdzefqq2fY5o6LidiZlzV58fsfb0yUX88pvd+0/lBa6Jww/gEu7SdEP36v5VJL/eGSc/SinDXUOm3prM93bQj54J35qxfRGRc6E1bSdoc+PvmR46f1j9pr8avdzUGcUEvkiu43UifGTT1WUZh/50bkio8Wb15x4U4NUEtFZ8vJq8UnrxYXtd62bXd0f8700w9m2OYOmzlyypKZz5JJWPR4+54v8YRaPSEKvHsYj1oOFZ9ddyB105GdYdHjPXlCNCtp3sbD6dHJ8fSHSI5VFI5dMHHM/AlvTX87auUC+mIY9MJRi8u9lvKCtNMHQyJH7T7/Xc8fY/tQOco6mo+VFyz+6rOBEwZNjJu66Mvlg8JfX/r1Svo7OPR9xh+P6047da0EogmopT+fxu0JaqEXuGZ/Nt8aah09b+yfxrzyxuTB6w+l8XehofMgb/jge36ViKOW7j/IUnr+2eccraHWgRMGaa4QLrXUx6xbOm3pLP7Xo7RRy4/nWrKrL9FOzKykeXvzs/ddPDV2wcSJcVNPXisuarmdmJo89P3hB4vOdj9Rba77cFV87IYEOiFH51qOlDlTc/YnpiZ/e/HU+oNpg6cOXX8oLe30wfUH0w4WnaX3EHueEAzUcLDZ10DRgpAU7azQQnrSovdyrpUcvJw3fObITUd2XGqpB2opvd+0dv+2sQvDj1cWArXgnTXbdgf+CADJqFBL4G1tJGrZdGTna+MHhs4Je2PyYPorMImpyUdKz+Pxzf5LZ2bY5v7rXEvLbbz//OGqbtRCT3ZmJM45db10e87+NyYPnhg3FR/SrXzQmltbSU9byPnoNTZBa7QvHfLBOwcu5wqXfPjpc2bp/pt/FYXTls6yhlr/EPbHxZtXHCsv2OM8/k7U6JDIUc/+iMFb09+elTQPp0QF1KL2Wrzda+nGK5fz6HxDWPT4XeeOlbTdOVxybvLi962h1nExEVtOZKqvzPkQAriFo5bKB615dVXzVy+yhlq7P4z71WdZ5fl877DyQeuRMmfIB+/Ql0ZBRBu1LJ5hS3NcvHvzUPHZk9eKS9sbt53Y98bkwWPmT3g2vvR+07YT+wZOGGTb7iCY4rx1bUbiHDwSoj/xvTxt9cAJg0bNDTtafiGj4GT3ufWzRxO22q2h1neiRq/O/Bp/oBHM9G7D59zSu2z30dnpL6paQ61zvliYW1txtr5qzhcL6aXX4nsNCVvtMxLnOG9dowdDU7v/XFGp7Z+ncUnkYxXd57oWrl3Ct3gVagm8PxiGWuirGNZQ68jZoXsvnKAEp/+EiE5NDp85cvOx3Xud2QvWLH559Msfroqnv25Ver/pm7NHQz5455Vxr8au/3RnXlZhU21ubeX4mEmRSdHJezePXRhOr7GR1s7WV6Uc3bV2/7YVO9eNnjd2fMwk/PXpnqjVh8xS0FizPWf/wrVLBk4Y9PLol6OTP56/etEfwv44cMIga6j13Xljnv2dv+68fLI7Lz97b5Pe0CbUsnTLyqT0NbTi1DyNaw21jpk/4fNvNmoeQ9aX1AdZ9An66apX51oqOltyrpWs3reF4GzIB+9sOrKDK+fy3Vubj+2mD+f8IeyP0z/9YMPhNJ53/CRFz8kGm70oqNcfSjtWUZi4LXlQ+Os/Bmz3UVmK9GEzQj5JSdp8bE9mQc7JK8WLUmxvThmSWZDDdziAWk5dL912ct/eCye2ZGcMmxGy5tstHPScvVlt3/MlHbjefuoA/WGHHXlH6C8JfLzJRn815tLdW7vOHqVP3r01/e2kHWvWHUjdkXckaceaoe8Pf/YGU2Fz3c68rKiVC14e/fKfxrwSnRx/sOgsXsPuuY16QiHY7NsTWYL/3ry6qsgVH9nSHGfrq7ad3PfuvDH0h8lK7zd1P8o8uP3PEa8nbLUnpXevJxesWUyHLyHXqeulUxbPeHYggdL1pZZ6el3gYPfHgZaFRY8/ec2Yr7FjRtVwpQHDUEtRy+3Pdq6P37iMvl568lrxmPkT9PdaStu7/yrEyWvF6WcO/Tni9SmLZ2QUnMTzQuL4XH31599sfGv62xEfTztTU+68dS1hq31nXlbxvYa9+dm0nqaRZ2rKx8dMouz5xuTB3S/H3m9yJbbn/d5mlsKm2ujkj62h1j9HvP7pls+/qyws62ju/sNdF07QHyTCV2TKO+5+e/FU6Jyw7tdEW25z1BKZpPGNYJxejEyK7g+o5c0pQxZ9uRwHm3iDPp/64aq4wqbais6W3ee/e2Py4PExk7ZkZwi5BoYubKr96rs9tO/yxe5NfeLbLd76HoT1U4NQy5yVCwkCPvtD3PS3x8s6mk9eK153IPW9hNl/CPujNdQ6ZNrQL49+ExY9Pm7DMsEiQC3dH4D+8cuK1lDrjMQ5mmsMeg41cnbohNgp31UV7r90Zsi07kPWw2aOXJ359cW7N+nvq4d88M6Gw2kFjTX0TIqSwJyVC/FkqqKzJbe2Innv5ilLZh4q7n7G5CcVeUU22OzrFfN9cXD3X49pb9x8bM8r4159L2H2s3fi4AnOW9cWf/XZn8a88oewP85ZufBYeQEudX9G9cczLm9OGfLs00RUVuiPZ2FZvjxtNe0C9kW19DmeDUMt3X94qL0JmKP4XsOJK0X5t69z25d1NJ++UXb6Rplwkv9y6+1nf+5Y5+RB8b2G/Ds3OKmAKdrbzEJL/28vnhLEoRPKwjGdis6Wc/XV9NiitL3x5NViv36401tZAqZkeaLCptrs6kuCDjGsvOPumZpyvPlcfK/hTE05fA/D5Aa9wSufG5VHBkNPsNnrwp2arSe/PVLmPFh89lhFoeaqoLS98fytqz+ao9F565rz1jVBk5fv3squvpTfcP1y6+3s6ktHyy90D3a9wOg+HXmtOLe20lX4FzbVXv7n36Kq6GzJq6tyS1Ngqbd+Bpt9e0sPAZ73cuvt0zfKdFxOk5+ilu67ULlK7zfRn+LKKs+nZ5qad6lOf2jASNTiD/56naaZMouZZOl1xwgAA8peAVByL06h7NuLyldT910NKNTi5o9bmimzmEmWvhtynnOu7OW5rvriSGXfvmg1xXOva0ChFoVa3Gig13203zKgqpq5Ta/sa277Kun8pAGFWtzUbDNlFjPJ4qd4CCqyyl5BZQ7DmVH2NVylimB/0IBCLQq1uNFAfwiD4JRRVbXgtItRXCn7GqVJRadfaUChFjc120yZxUyy9IcoVfYyt5WVfc1tXyWdnzTwE2qxqf+UBpQGlAaUBpQGlAaUBoJeAxabzdb19JH6p6kBMynHTLJoGstkncpeJjOoII6yr6AQ9VNpwBMN/LTX4snQ/jnGTJnFTLL0B29U9jK3lZV9zW1fJZ2fNKBQi5tNJjNlFjPJ4qd4CCqyyl5BZQ7DmVH2NVylimB/0IBCLQq1uNFAfwiD4JRRVbXgtItRXCn7GqVJRadfaUChFjc120yZxUyy9IcoVfYyt5WVfc1tXyWdnzSgUItCLW404CfPU2TdakBVNbcq6tMDlH37tPkU872lAYVa3NRsM2UWM8nSWwETyHmVvUjbjnRHRk5mIDUfmLmUfQOjZzWLyTSgUItCLW404MrjnZXOuOT4tsftrgbI/W2P2+OS452Vzq6njxofNk2KnURteaQPPa5qW+PDpihbVFVDtQ5Nt2MycjIFVh3pDke6Q4dmzy8FrKo5K52TYic1Pmxyy3NVQ/WImSHWUCv9I53jJxoCtYycTFlXzkqnNdQqaFWTAVeW1Rzc9fRRRk6mt55Z1VAdEROh7ySupvO5P2D29ZlD4UYfQp5T8NzN+F36bVeGc1Y6R8wMkQ3qVdpxpDvg0iNmhhD/6EGDQ+qqhuooWxRCiTIeHyCL0/a4PTHFJrOqORL5U77qqodbzYfQcGjXTTcAACAASURBVEW2F/t7ilo6nnSm7U1Psq+Q/5XfqKi7e3PVumR+yb52lbM4//v/+aHr6SP9ezWv7j92oLXrHumr/EYFKJffqOBKvP+4I3VXKl3df+wAv+RtOzCZxdu87K0UNN5YWXgwCMUM8SzUJB7S/HZBHFfUQJY3kJtc5US3iKTr6SNHukO/zmXkZGIiglxukZAglA8/jbWXDgNQHSEJrl60CXbAggCgMiLBGMwoj6HiMTtxtoBvdBgAJ9Tg5hBqgzwd50SgQxWlV7J5wOwL8XvYqGqojkuO55rndZ0U6yqOBBu54sQTB+BZRdPW5F0yUOaLJRojOAP9hE8iLVOyqm2tk6MeY0giwfk9kRrJx5Xs4AdBR3PJyreGWmX9g0PhdlcmCP7+nqKWtr+1z4qaZdH671T+6dJrZb/7vVW+OG/Bh61d9/TvdXV10OuDSq+VdT19dCr/NCh/scb+wz+6oO7L1UUv/uZFupqQlIB+Hxr+ziwZOZkUKvp43AfO5VuMlYXDDiFWu54+0owQpBi6qpkydNbfCG9ZNGFGHdwjR7VQsaoaqlMyU+QpMnIykT5gNVkEnlJlIl71GGsvnamBWrqePuJmxS3YWIKh0YBNMRiX0COPAUF9mxKpuOT42YmzZcOBPuef9lo0K5Z8iRI6eWMAAhAMUyNg9hXm7eFP2I7gPtcbdx79GBcCB0hIMKXAqrBTIk9BdpfLOaKSU9Bcz3AGUO+poTkeY4hVwfndupaQfAR5hZ9EDbIIU2sGL+fZFSrSxDrC1EH10zDU8uJvXlxiW4rNjyT7ivIbFUAtI0eNTLKv+PjTRb/93UsEJlJSNwOXaN4rXLWttP3l3Xfo3vHh45sf3uWoZejwobXNdaTZH/7R9cUaOwBN0KIWODQFEg9+P7mIUVlSwAQZOZlCD1ISAkzYn3BWOpFfPBQct8jKEaLRke7g+8Y8buXyybEIUSZZ5LKHjVw0+NJN5qrnPUbZS4cTIb/TMzu+xQ04SGZCUs7IyaQeTQAHeCfQJ+ThSHdgAEWBrG2+AUbZmezCPYrkIgpwOVcNcOtId8AlOGXhRnCoo70eXgqAfXvIof7tQhHVrJpEwfMUx0GDPDvHHDQd9xyKbke6AxiIcCqZUsgS1lBrzuVT8gMXDiPIPRofNsUlxzc+bKLZBT+xhlrJtQT6ccnxiSk2eTAH3/qQXRCfhxJJxHswEafPYTqyFkJYoN+HfhqGWoaPHN7QfkeQHKgF0OFixUXaBZkVNavh/h3ap9G8F6gFV+8/7pg7f57FYvnt714quVrKUYvFYtlzYC/NXttcN3T40OBHLdCV5yGNW3xrGJsl+brKE37wpBnxI6/VXNGhiuW2kAAIaqIWIeXxjCbMS9NRMhIu0V1IDTJNebzPPcbaS4cNDt1Q0TGe91DKq264gq1yGQgKaVHAJRyy0BQ0ACqln3zLja8pKVNz0/ClPxGUeyALcQuJiLLw+I9Phxv90QiYfQ1hHkoDNbnoUuBYQ60cN1CYuw1eIus5apH5IQA9YmZI1vmjdEpJdjYB+8q25j1wD8JG8oxyBtN0frgrh0R8GYY1AHSr2aDQkIG75mCsN4h5TCdw6OreYO4PNGppaL8zfORwi8UyMvQvtU11XqGWH/7RtcS21GKxPPeL55zF+UAtz/3iOYvFMvX9qXTkZc+BvRaL5X/9f/9rwIABFosFgMk3MwQgs/R11MIXGZNiJ9W21sUlxwP7U8RSvFEu43WO5whXBmp82ORId6RlpblNfEgKmqhFoC9nND6AMiAxj+0EWnLx9ZkJUAuZBrqVMyMvJJTyss4fBcjg1iQFCmmRVESpEwbiqqa2I92x4IuFC+0xI2aGaC5S4VFo0CafsDNEhYQvwflcMmpJyUyJskVFxERQMZDF57cb2w5AbjGQ4caHTWlZadZQqyPdQVqCD+jPgvCB4YQGL8M8mQjD8JPGCyOdlU7uiuR1MofEDGbkt8hbp5R2EO8+oxY+ncwSlnP6agQKcVY6Sf9QCL0rgJ+IZVIR31zsevpICE+3kwbhAMNQC/Y2qDEralbb39qFvZYf/tF19NQxAhmR82bf6WjUPBND92Kv5a1hb1XUVDa03zmUfZhOyfznn//z6q2rQC1z58978TcvPveL585eOtfadW/q+1MtFsv8uPm046JQC9zO2CyJvRY0aCu1trUOR+KxhnBWOiNiIiJiIopqiimKiCt5k1OoN22P22k87QdUN1yZFDsJaxeIRtFIC6yMnMy0rDT+qgviGSnDbSbFLcg4EJNPagLUgvUxtjdgNdgIRqGUR8BUgHTQmDXUirxJ2/izE2ejU0i4dJdgUKGWeKtwr/ZaElNsKZkpQM9+NSgXpOvpI2PjUSDup598PeDJFFQ4ha0X3Chrm0NkXqfpFmE8/MSR7uCohbJK1vmjwhuO3PfIpasaqhNTbBgmzE5egU6anfu57L3ABDRXSmYKf1NSRu2QiIehPAUlLqIJ1EKpiaIVWyl4nkWDZyfOhnJIh/JErqwDMwVbI0Co5YUXXxgWMuy1/3yNMM2AAQOOnMwCLtFEPK6uDhgwYM2mNT/8owuoJSV1Mz05+mTZ4tMXzjz3i+d+9cKvvjtznDZ1FGqBzxmbJZ2VzihbVJQtChvFrlALrVFovPCCH6oFmOQN/iwJTzGQeoAnsEiyhlrTstKibFEEktKy0gBT+CNePoXQLxQ8pEU8s69trZsUO0lOK+gxMAUYay9BavzMyMmkd3lozeesdPJUjqxK45GUkcpJRbyYYQzdkp6VDljAzQEG5IZbTAnTy6gXhpAbKGxYNMP9YGiBeZk3A3sCY18DGeakXJVw2oyhkfAo/ZCBNTl9aqNOy5d45KIwxyXHT4qd5Go3qKqhenbi7BEzQ+hECw3DEkvepSP3IB4ycjK52wDHw4WIQ2ACIjspdhJPCAJqIR1yiM/FFAYDwznSHZR49VELuTQcG5QD6eGY1NiGYajl1YGv7sval513gv4VlBU+/O/vsdfCcckLL76Qtjf9wd8fApdo3our/F6LxZK2N51enAZq2b57+7HT3w0YMOB3v7fSid2p70+9euuqQi2CrxiYJSk4KSD5Vq3mEyJ6Kwcxz7kSYp5f4oWQMhQPbwp4YoDSCvZXqO4CuxBO0kl/nAcBtXB+TLnXQkbB0zdasXFdCakTKQ/WpLTIb+G70GR6pE4MQ4NvkkHbGI8eNAQUhX40yDNRVNBPDaIMKWB69GhaWSBi1E8D49EoltzS4VEJ5Iq7SPlUTaFSuAqGoaFpTe5y3E9wFxrwE6AW2F2As5Q6HOkObH5gTwJEuGg0BdyDxkAQwUloGNIgT1PoxMYkgDvpSn75n0uHweCHP6EDLtd8QpSSmVLVUA3pQBZ2QU+faxiGWnBmlqsAqGVG5Aygmba//fRdMuASzXuFq+eLnM//+y/p0c/9xx38zeftu7ffbmsY8ZcRwDd7DuzFARq11wKLGJUlaS1O6xVsrtIsCGxMiobmJeQFDKOGcEBSRi00jJLC9iPbccSBjlwU1RTTcQfQlzMsURDSYn9DLZTUZOVQXi6qKaaPa8E6SHnQG9IiUjkZJefyKTqQhB0OWJZKC25EA7PIPbikWedwFetvStm8n9pEGVLAPUAWPfK9hvcYFY+GM6ZDkEMKYXOCdCg87BNeHhQoQ+28n8cguRnKMxrYZiBfElAL9x+iQO8VRtmi6BEz392hvFRUUxyXHA/QQ/zAGci38b0WOD814pLjsYUM1wIFesBNz7W59oi4HHpQBR9MqtZ86Qk+jxt5g6uC+gUO+eC+0jYMteD0SUP7HfrX8aQTqEUTOgCXaN6Lq4RpHvz9YfzSj+ko7tlL5wTUwt92pregFWqRXdDYLEmRTEsWZBO5gQ1SV6hFuCUuOX7nd9/w9QoJgidEslzUQ9FIp2rwbAidccnxcj6l5z58Lp4xhauoyo0Pm3Iun6JJNdOuKw697TfWXpqzp2elNz5s0kyd9JhGyONIebAm0iIKDCze9rg9LSut7XE7xvBtGJqUjsjwKkJZWPAK4acwHqKBPf6QC1fRIFwlLGRJXu4MGO+nRgDsayznZGIeRyjbBHD5JUxNMSJYkP/k1hQCiujzASAr+AmBYzrkARgB9toetzsrnc5Kp0CfqNG2h2x6oBZyYPg8ZQYSwVWAkKsLoB/oB4ddNEOPuBJQC54QkSBcgXIbXPHQ48IKt7jSMNd28LQNQy3Y50CDf2VOH7XgFjRO5Z8WUEvX00f4dhwd1+VPiPhV+uKcQi2ykxmbJVHFMRHlCPm9RxrAYx63IC+gx1XDQ9RC39Lm4IOqkVCiaBa+oU09/EZN1ELZGUlBMwm6EsHbfmPtpTO7nDpJM/gWBe4lWEDviJESeFqU99jpRj4GGiN/AL7EFPprR9zOx1NbsCafVBhMXifYmm6HZYVb/PEzYPY1inlX9qXHMZqQxdu9FgKUABBuUQu3V0ZOZmKKLTHFxpdSQuDL/oOsJYyk7Y3EFNuImSEExIUMJvgPKRm4mQMm6J9yZlFNMf58hBx6GKyDWjBGBz/RGDkKwCEn0rfafQm1PPzv75d/vtxisdBhXgG10Ndc6E2irqePFGqRHdHYLCmgFspodORW8+CtEPPEnj9QC5+IkpTmxx8JzQiLDCET8cRB+VQo5HISlNXuc4+x9tJhQ0idpJmMnEzKvLwwyCkPaZF26TVf48QYmQfPHUC+l/fIjxQJ/cilCMKS7Ug6gixUolxVXz6dIe2A2dcQbqmKc30iuOj5C721J2uPx6PAiXCJ/I2ALAUa9QhBKhDBT+5L8GFcpYYQsGR3EkpeF3GCHH7RTh5hIx4dfCtR88MKFD78wwHwRoFPTe+VtUH5iuJLM8rkTjmE5amDvKenqCXIxes5e30us+iIbKwsQC0USxT5SEPUyUMalziHQl7gl4S2nFOEAYhGIA/CGZRGOUahfs4bSFEW49unyJi0oMRPukVIgqBjSMNYe+mwhNRJ4uARD93CAQGUDGo49gjNkHrxk++dYDDXMNp0Fhg/3TbIsrzwgCs06CpsLewW0GY79w19aiBrSCNg9jWEW/INHk3YEeH0ycTcheTA51HGYRDeRuRvBWq6AadPsyMSibg8QBhGIExYhNC9AF5CdgLb4JmnPlwVvs3NlSNPitAThtFI+C1d5aiFRxmgibxmwCXQl0MYl/pKQ6EWN3/xuG9lFn23M0oWChgKeCFOhAzFQ0u4RKwKeUGHfw9RS3XDFfoWnLzWoZjXTLU689KltsftKZkpSGcYj1yJHgMbRtnLLUuUOsmUsowoITjSyP+kLb3VLEwhZH85dQrjfftJBnVVnzhNwiWbMr7Ezjyu8kqJTg7U0Gl4I2D2NZxzfxD0rZpSABKyoeWKvj/QeDrWCvAhiIPUIWQnAfLiLoxHj+cNAbVwcfD9JJxooY8e0VEwDmh4fHEgxRcMYMk3PeP2YGgo1KJQixsNBIOb9k8eVFUzt92Vfc1tXyWdnzSgUIubmm2mzGImWfwUD0FFVtkrqMxhODPKvoarVBHsDxpQqEWhFjca6A9hEJwyqqoWnHYxiitlX6M0qej0Kw0o1OKmZpsps5hJlv4Qpcpe5raysq+57auk85MGFGpRqMWNBvzkeYqsWw2oquZWRX16gLJvnzafYr63NKBQi5uababMYiZZeitgAjmvslcgtR34uZR9A69zNaMJNKBQi0ItbjRgAi/voyKoqtZHDech28q+HipKDVMa4BpQqMVNzTZTZjGTLNyJzdpW9jKrZUkuZV9z21dJ5ycN/IRabOo/pQGlAaUBpQGlAaUBpYGg14DFZrN1POlU/zQ1YCblmEkWTWOZrFPZy2QGFcRR9hUUon4qDXiigZ/2WjwZ2j/HmCmzmEmW/uCNyl7mtrKyr7ntq6TzkwYUanGzyWSmzGImWfwUD0FFVtkrqMxhODPKvoarVBHsDxpQqEWhFjca6A9hEJwyqqoWnHYxiitlX6M0qej0Kw0o1OKmZpsps5hJlv4Qpcpe5raysq+57auk85MGFGpRqMWNBvzkeYqsWw2oquZWRX16gLJvnzafYr63NKBQi5uababM4pUs9lS7PdXub7+0p9p3Hd99s60+PCZi1/Hd/p6ub9H3yl59SzTFbceTTmVf5QZKAz5oQKEWhVq0NVBaVzZixgh9JEFoI7ckj3teaV1Z5LLIm231vNNVG6il6ftme6o9xh7b9H2zq8FB0p9bkucVn14phMsYJFVt1/Hd4TERHhq040nnruO7Od4trSsLXxheWlfGRZPbTd83x9hjBV+Sh6HHk/ECJ7gltyRvxIwRblnCXGiQu+JnDxtBYt8eSqFze2ldWcKmBDmib7bVRy6L9ET/yDA6Cxt5fYW7BN52Hd/NExr8QRiGn4L/oN8fDW9dy+es4g/mA0zTa9RSVF2cuNIm/9v6zbaWH1ozDmcmrrRt+HrjnY5GSJJzPofGF1UXo7O2uW7D1xvHTRw3dPjQqA+jsvNO3HvUhqs9nAUzynwmrrRxNjCjq4ZfM0tuSZ411Er/fEujrtjW7PdWll3Hd+uX59ySPNQzDPYqnOSMA865cqAl3sDUdMuu47v5VbmNUkqATB6g2SPbRYdnMM8b3o7Hvd7aCzdqNoQSQpldEFkGDZ6AV2E6Idd7hVoEfuinzFXHk063JUfGTx1POu2p9tySvCuNV0l8uIQ91a45tWB9b0uLoBnhp7H2FYgHyU97qj08JuJq47UYe6ymhqlTiGUwD/xxs63+Zlt9jD0WJqMxmgDI1bqCfAYUdDIMuVxpXVmMPZZyoCsPIf5HzBhx7MJ3I2aM0JGRXxL8CmJCcLcNn7OKW8rBP8Br1JKdd8Ki9d/7kTOaHjQvSVxCF9dvXn//cQfJv2XHFurMzjvR8aTz/uOOfUf3/8ev/0MgEz4l/EZjDd3Sw1kwozAFZ8ND2/gvswjxRkVXM0F7yKrbYa5k0YleHmlog0kkcV5CZNSiWSBBTWggnjkkkkXTvyqPF0qpPIBKmiZK8wrlhMdEZDmPCkLp/EQOlVlyZS95pCc9N9vqEzYloDwI7sctCGpuDUfMux0miA//wURuUQixJ9DR/MkX07LR4bF8arQ1iwfv1L8ddDxsGGtfDycN/DBZaYLv6bDElS8Pk5EEuZbcjyiDn3Me0NnxpFPYh6NL5EiCa2nmCk0mNUe6XWVx9ya0zXv025BX5scEPb6jlomTw/lOBu21ALU8/8vnzxTkkoKAIQi1nCnIff6Xz1sslp8N+NmosNB5Cz60vmwlPDErahZt0gC1+DYL9loWJXzy6//7a4vFMvDPA5falspbPm5NGLDMQuHhV29zK4sMOEg/VLaFYsPX0Dp1XTNioXa5ruCSPi7RvwoiaOhMRGNyS/I8UT62lEBZv9GTx15u7aU/tXwVKbjjSSc3nyZooMGUHHm+JrL2VDvwpTCRoGphImEwftJ0go/hqtzQGS+jKGA1qqC8YOCSK+XwwikXYJkxz3sMt6/nUwd+pP7SCIfb9IsxrpLvcXPAH4Q9RVqN8NCmkdZQK5yNeNt1fDdd4oOhKD4XRzwYoNnwJKtwx9MkInf2JKvI1Ppcj++oZcuOLbK0QC0Wi+Wv4/56s6X7cANHLXe/b4n6MMpisfzv5/73oexDtB9zp6NxVtQswjGHTxzueNIJ1OLbLGCstrnu7RFvWywW2gpCv+eNgGUWnYDxnFv9kW5lcRWNmhCB1y0e0prQB5kCeYfQjFDhOP+ak2KAfFUHOdGkmsmICNK9KGCYRWjwAiZc0vwpj+eK0ryFd7q1Fx/sVZvk5QohAyGP009SCEkB9EkpHj/leQWbukItskvAN9DQsYjAsMwGf0IkLL5lECbXNjxl4Eb0ynyaLPFO/9mXzxKEbVd5RmaVK1++ys1B/nC8IFs+HcUfpsgEKRYO5h4SXggQ8hjN5SrJIHA4kx5mFTmVcSJyWxaB60Eeb74eP6IWi8Wy/Iuktr+1c9RSXlPx2qDXLBbL5OmT+dkXZ7Hz//zH/7FYLIsSPrn/uMNz1KI5C+zUh1AL+aJmPoU4PWx4kiV5hGM6uZNKF614hLIkRDsREWoMSgIa8t6s/uLMGmrVKWngHA2hlKK/40nnzbZ6e6p966FtbgnSEudq47XwmAhUVt4QKMgbM17lF0/sxQXRaaNs7zq+m5Kp7GnYgaDtaAGXgIKrLRad2TUvCS4hj9F0JAxzeztHLbhLcIMNezbSmVBXzoY9ACpLXpkPk7pqGGhfV1P0Yj8KfIw99nhBNg8TzTZpmCcEik0BTHCJuDnIH7Ye2hZjj03YlMAPj2OY5tMf+DNRQAjfbKvfemgbtmSIiOyTMoYgDj3MKkj7rjzQGmrlqwvyajk25XDmijJZ23fUIhwZoac/tNfym5d+O3FyuMVief6Xz2fnneCo5VLl5ZesL1ksliWJS7gqbzTWDHn7LWyKALX4Ngso9xXUQgGD+AH/xjY8yZICBJEfJSCVHMw9RC8CCLugcmDLDyCQm/hgARvpL0H0r8p6E8oVBtC7Szfb6ulNmbK6cldZUkh5oEAqooN4fMlFWZv30ILe8/ziib04G27bSN9uR2IAeaY11IpESfBFyKQoUZoFCZ38LqIs6AfzklbxMhowE0jpNEATOAyliPuqjCn57GCAXIJo+qBAgSb/abh9OfEgaSPSPeeHDvAS7KCiDt8T0hE3B3cnwbIy4CCymvmWPBkzIs+AiOaRW7gciel5VtF51kPeC9clyj3PKp4bImhH+gW1vGR96fSFMxFTIywWyzujRyWutOEY7IWyAjpoIqAWAV54glp0ZoG6BbLo97wRgMxCIQRQ7zlv3o70UBaOHigXCIW2tK5sw56NrrZ5ORABhzyn0LYK5QUQkdES8gWI8Aa/6mHJpDrHU1XT980JmxJotY33e4lVwRw6aY4/KQOHRIQyjk7FRXLEjbzhob34LfptZHlXCztSDjRgDbVydXHinIIgBWzKx8s7H4JLCIMBGviimY8hrWqyx/2B4yTueEJhA2WZKzK9Qi1QkVcNoBbuVALiFAozf1on5EbhzIocWUAPSGI0LzIY9w2BDfopOAyEBWoBkqZL3D2ox/OsQkEkhA+WhXI/ydLDrAKJ+m7Dd9SyKOGTrFNH8a+mqbbjSSfttbxkfelS5eXC8ou0rYL9kuy8E8VXSl7+48sWi2Xu/HktP7RCcdiDoX6gFt9mAdngRy0EqDWTL6QwquFhFaQ4pDjXWQqgOMm5Q0gHuSV5cs6imKR+ehqNzELyclwia0D/KtW8ETNGyJEPUgJOAmqhAaQEXsVj7LGaH5kAFABlqtCaz7A0B/MbedtDe/Fb9Nt8dqR13CIXcuxVCAbFT80UD8cAZWoI212yS4AsGnI9I1L0RC/GHnsw91CMPdYVshFmBBLC66zg0JWk4TERaq8FWvKhIaAWIcYJR7qyMiALZSF6+sO//sL9mdwJqAV7EtSPeYWoFyQSHAb3ouEK9PB5+deJdLIKkdJMsDoR1POsIojcF3/6jlp0zskSarn/uGPrzq0/G/Azjloa2u+ET+l+ePSS9aXC8ouksvuPO9ZvXk/DNny90cPTuDqzwBJBjlooV2qmfohgYMPzKojg1Kn6rkLLq70WWlfxBxCQl6/mUcZ4Q0h2AE+kT2Jjw56NWCXzJ8S7ju8WkKKQX4gN4mHrga0x9tirjdcil0UezD2kuUUMxvDlBr7RDaF4nkWnq4bn9nJFQejnswvpW/hJNwpJXP8n5nLlGHx2+aEhbkdDx5HwukduSZ4m55r8Y1IdrxaKHxa+8CLUP/Dpc8Nw+/rMif9uFFALwoQ3hEAmZih8ABndRpNsOHJXoV/wFrBHkwoejn0UgYjwoAra8yqrxNhjdh3fTQzQARquE6EdY48tvFY4YsYIt3oAMyZu+I5a1m9eX9tch3+37t2+/7iD77V0POnEy0F4QtTxpHPbrlSCMm8MfiN9746sU0eXfZb483/7Ob2fXHajnKMWn2chmwUzaiFkYGASdOumnmdJilKdBwSUzTX3HjSLjQ5vPNRpXtKJ/m6KcLXp+2YsuInI1kPbIpdF4vNWRPNmW33T982aAEWzk7PtYTEmHJZbkidwSKSEys3py23P7SXfq9kjzA6R+e4av9HVDgRSqibg9lxRfC5P2pxPXkhQXQQiQhECFgfb8o2cLFHjYwQFCtN5+9Nw+3rLQADGAxbw0ObzymFCZiKYCOXT7QLc5OaQDUezCP1eoRakMn4XfWCXekg6yjyIJi6dZicfAP3wTs0IojPysrq8PS3HJ+qjbd9RC3ZQqMG/Mke7IKSRwvKLf3rtFY5a7nQ0xnwSK9xOR3ePnjpGd+EJkTDM81mITjCjFrcObbhLeZgladOCsgbVLSFZEGOaoYVNeGAILgVlEF7zUBeBKoCENOMT1DSvUo6jIynIODSpW3To1hyu5OWpE+y52vp2NZjfiLaH9sJ4tw2anZ9IxQaVpn6Eqq//E7NrKgrlB8NgIF4SuFmFhC6cHxKqEf0UVu1gmK7S7hrnhE9NjAlkwS01vDKfcK/803D7ylP0eg8ZseBKIT0KQezzBqxGyufZhhuL2vwqN4crw3EK8h4JPIQUJfyEB8ItZaeVn6tynbvNKpiC36UZQTQAnPDxXA+836xtv6MWvrlC7xl1POm896htZ+Y3g94YRKDkZwN+NuW9KbTLQor2FrVoztLxpDPIUQsPXWoLjy2MdTv9LImVqFzAqLYJvLkKLQQ2mKfEIe/coA5h24nfqxmfoClcJQqcQ06KliP8Kuig4Ta/uJLXVcoQOKSJXA0GG7yhby8+0pM2pXVyM2BEvMKN7QdOSkji+j9xIxTFZ+SP52gkP1iDNq8xqEPUEDjEVcxLNYn/8SxiGN6FkXgdTK4ZAs8oqOBZjg6Q9bZhrH29nT0w4+kZKz7qL2sPYcJND96ETrIOAhmYG4mU1lq4nRYPGM/76RJuFE7ffWp6fAAAIABJREFU00hyS7gfZ4bjXZ2gdptVZA/U2cY2ZC0kKKEv/vQatRgrZNOD5pst9fwvEBlLv+fUzJRZXMmCzKK5QQIdCsgAxQkDqCHABeEqfgrH0Ii4NdSKvOb5uRYUIdQtXpsxI2UfoQ7hqtv8IsiLjKmTE8NjIjbs2cgzo9wWijH4MfxvApP4pF5hi4suyQf9MExmm3o0mRcUxSVCG7WKevhPIBhXOZpuIZ7lKkVXYR1XA+BdOCIDGWWhoAdXtoZcXjVcxaNXRIJ8MCo6dz8hTmWFQygODtCJZ8ogjhNLZG4Yl2yKlAIK8jIM+Qd7OXAwpBf+xxd5lqM/kKSZPN1mFY5aCBURz2ADPFODIqUnWUUg2Bd/9jJqCX6VmSmz9C1ZeCWT/UT/qjzebY/b/OKWgjCg5xz6w16UGV1VX8rmqCLC5oogoKurblEL6gEI8lUs33LnL5FisGka/rCvOZTjSf32VlLyOlc4BtQI8eSW5MGNOTbC6Wx57xAUeCMIswpnr4+2FWrp1LecmTKLmWTRt5o5rip7mcOOrqRQ9nWlGdWvNKCjAYVaFGpxowEd71GX/KoBVdX8qt5eJ67s2+smUAz0RQ0o1OKmZpsps5hJlr4YbN7yrOzlrcb61nhl375lL8VtkGhAoRaFWtxoIEg8tR+yoaqauY2u7Gtu+yrp/KQBhVrc1GwzZRYzyeKneAgqsspeQWUOw5lR9jVcpYpgf9CAQi0KtbjRQH8Ig+CUUVW14LSLUVwp+xqlSUWnX2lAoRY3NdtMmcVMsvSHKFX2MreVlX3NbV8lnZ80oFCLQi1uNOAnz1Nk3WpAVTW3KurTA5R9+7T5FPO9pYGfUItN/ac0oDSgNKA0oDSgNKA0EPQasNhstq6nj9Q/TQ2YSTlmkkXTWCbrVPYymUEFcZR9BYWon0oDnmjgp70WT4b2zzFmyixmkqU/eKOyl7mtrOxrbvsq6fykAYVa3GwymSmzmEkWP8VDUJFV9goqcxjOjLKv4SpVBPuDBhRqUajFjQb6QxgEp4yqqgWnXYziStnXKE0qOv1KAwq1uKnZZsosZpKlP0Spspe5razsa277Kun8pAGFWhRqcaMBP3meIutWA6qquVVRnx6g7NunzaeY7y0NKNTipmabKbOYSZbeCphAzmtWeznSHRk5mYHUZHDOZVb7Bqe2FVem0YBCLQq1uNGAV75e1VCdkpnCb3FWOuOS49set3c9fdT4sCnKFlXVUM0HdD191Pa4PS453hpq9Wsx45wIDGj+JK6clU7NqwHoDExVS8lM4RYRpM7IyXSkO2RhM3IyraFWWFYeoNPjFrVUNVRH2aIaHzaBCLHR+LBpUuwkt06SkZPpLWNVDdURMRFcD5jaf43A2Nd//HtCGf5DfuXWdpymq3TBx2gaTtMB2h63O9Id3KkE+q7csieuzlk1ql3VUD1iZoiQlzRFNmrGYKPTU9TS8aQzbW96kn2F/K/8RgVJ++DvD0/ln547f96wkGETIiakpG5uaL9Dl8pvVAg3rktZV3qt7Id/dHFN3X/ckZVzNHLebKKwfU8aKICB9V9taPmhFXeBMtjAJa8afs0slIWtoVZrqHVS7CQeUV4x6eFgv8pCPNS21kXZonhEcawgpAmAFY5XHOkOUgj//4iZIVUN1RSuvF+nTbdwzTjSHZoFmI/hbWelMwBG4TMK7QDYq+1xe9b5o7zG66MWyuAcrzgrnZpWoPrk6qp8C7eXjFqclU4qOVR7BLsIFRGVUtBn19NH4B8MEJ+9kvQDYF9ZAwHugS0EG4GNjJxMwZq41PX0kSPdoXOVDCoEteDAoNb2uD0lM4UPFtKRgFrgKogOV84MKMa55bkdzsYTI1+tYYBmAwxAlsaHTTmXT+EnKUogzq+arN1T1NL2t/ZZUbMsWv+dyj/d9fRRa9e9eQs+FK7/7vfWMwW5XU8fnco/LVyyWCwDBgz4LHnlg78/JF1fvXV19NjRwjBQAAPDRw4HlOGUiQ2fzea/zMKxP0Wafnz6LAJu9J8smKLr6SNh9aODWuguIZ0JuUNnhwaTOtIdcmATJyNmhmgmArlzUuyk6sYrk2InyZc0e/xtrK6njwJjL0p5yOZC0kfVgbapVEDh3L4YIxuRLhEciUuOn504GxRwFxqaqEVnvIAvNXkm4sIl4lPwQLDh70bA7OtvQXToQ+GCkrE4iUuOb3zY1PiwiQZoxprQSaEnr2HIQ+R+AGKBB33UQkJxOOvW1WXUgrBCOtLPG1CXrFJNGETrh9rWOiFxQWSZjgl6DEMtL/7mxSW2pXzjhDY5UlI3E+B4d8y7SfYVH8V+9PN/+7nFYhkfPr754V2gloipk5LsKxbEL3j+339JwGX/sQPdFaujaeyEsUTh93/4/UexH7075t0BAwZYLJZBrw+6Un+176IWwXuclU5/u1rAsqQj3eGsdGKxIiQd+okFipBK5IInJBdZbzw1CFfxk2cfdOo0AmAOndnpUsDsVdVQnZhik3MfNxzPtlyZblM5xAS4JBNTdREWiChmmJoG0CxFNcUchtIlD6sd9lRoz4aeVHJOMCM1uLwQwdhGwOxrLNseUhNMmZhio6fApF6EP0Az2VHwB3kuIFQB2sIPKfngRnkR5Uh3yMiGW5/jY69cXR+1EEuIAnDIGzqohQ8T2pxJQS3CSHP8NAy1CFsdpB1Ait/93lp6razr6aMf/tG17Zttw0KGjZs4rqquGqhl++7tdMvZS+ee+8VzFotliW3pD//o2nNgL0GWyHmzW7vuEYXte9IIuGz4eiOmEBgA5aDdaxEcKABlsleyJLKJvGsi5w4KWp5BqO0KzxEFtwWGliluEyK3iPA4iUvBh/m13Sv2EooHT6MyPohLjs+5fEq2F3/kh7ugfw5MqbbxGkarUjrXIuzJ83ICzQuWQhXEAN4gcYCDiZOMnEzuYJw9fq/h7V6xr+FS6BPk/qOpWHIPwQH0adJVoTxThOZcPiU4iYBaOGW4AXVy9uC08G1PXN0T1EIpy5W8nAfOKtoAKMhIQg5EP24xX8O/qKXjSWd0TDTtnSTZV9TdvSkcWAG2AGopuVr629+9ZLFYomOiW35opdt/9cKvLlZchPYb2u+s2bQmyb5i78GMlh9a6RFVn0YtVFZduTIE72GjV7IkjyIhTZA4QhjLcat5F2EgR7ojLSvNLWqh9Y3OXoJAQc50XIoeWsHz23vFXpSvgTB41SHOaQBqg6ZmyIg0csTMkMQUG7K/TgP+LxQkjmOIB9rJk/vpqoxjoHMZtaRkpkTZoiJiIkhkQXzc6I9Gr9jXH4Lo0OT+Q5EuOwD5kv7WrHCXs9IpOAn5YWKKTUggwjDOqpBYhBtx7sQTVyeynqAWcjDN7WG3viecAaK0lpaVRj5MZ8m5wrmwZmobhlqEcyezoma1/a37tZFT+afpoQ8NeOHFFz6K/aj4SgnBF6CWTVu/bGi/c/XW1QXxC2ikfe0qV/so3AAYIzCAn8G814Iw5ks9Lp2xbX9nSYjDQQCvakKaIOloPY2K5aHIOBVEkVzd0H0kRZOIziYWGEaRRqoS0gqXwkMOez7M3/aibQmqB1CdkDrlJEgIG6ncEzFlIrhLcxsMdrGGWsk0jQ+b6AAEIRX99328Qi2JKTY6pEka0OQH3BrbCIB9jWXYB2o6pveEGp4HyYMFOIIIFSxIw2rv1eH5FIJdSEcyavHW1T1BLRR0ccnxtW21wmEUAZnxn5NiJxVcLUxMsdHLmNAGPQ6jmCUHlqXAYNM0/I5aup4+ulh5afL0KfRMh8DEgAEDtu9J++EfXUAtABnUePOtN6/eutradW/q+1MtFouwj8K136dRCwQht+PFHpcMbAQmS1KiIRjBA09oQ1h6RjA7cXZGTiYvV8J4XibbHrcnptiwtiBSpEPUOdIb5R1NUOhId2j205rPWekUHk9wfjRvNNBSRCow9kLKc7vYpbRIaomIiUhMsRGY4JpBm6vILWW+z0EU4B6wI51EEbbBhMMTmF2zQTs08rkW/iqKUAsNtyknGBj78hkD34bp6S0wTbsIKwRed/VRCz/kxN9r407CKQDQuHUbckhvXd0r1CLgj66njzirriyVkZNJYchz4L+Q0I+vcAb4BX5XrPqv3zDU8urAV/dl7cvOO0H/CsoKH/7395zvjiedxVdK7GtXvfDiCxaLhU66aKKW0WNH1zTVdj191P5f9yPnzbZYLP/55/+8eusqp4Y2UIvAwLrN6wkABfNeC6Sg5x2udgv4sJ60A5MlhdjjP4XFDdbNETERETERwkcIsHgSROYpieoNr3AcplA9jkuO1/xIDE+OmAKwCQsyuuSKGdzoj0Zg7AXUQiIIP4W1Ml2dnTh7xMyQiJgIXm9k40InAhH0w+0FbcvQgeZ1BTQ5QbIgZ4xfJU5AHz6AnkAaOjD25eIHsg1kAFtA25wNwTfI0PAHnj34XfLDQcFwOPTKKQC1ECnhp8CeD67uCWqBJwviUH9GTqZOHHU9fVRUUzwpdhKxyhdylBXpyLOMh4S5+vpPw1CL5nbIjcaaiKmThoUMW7UuGSdatu7cCjwB1LJ99/b7jzvmx823WCzP//svzxf99Gkv+9pVNDh1VyooXCgt+NULv7JYLMtWLLv3qM0E51pcPZgw1r0CkyV5mhCORsoBmZGTSZGWkZNJqzGILKQh6hcOTsqohYbRImn7ke3dO7E/rj+yzh8VVmbCsm/EzJCi2uK45Phnt0yKnYS8CYI8R4BJvzYCYy+kS5JFBoWoOigVKZkppFg8tZGPWnPNCJWJXxIqB3gQvjJHhub7N5wIb9NcwqfzMMAVagEbQunCjf5oBMa+/uDcc5rc9MAxQujJDoYvV2nud9JmA4AmMSOkC6Qa3g8r4xa+4BFMT/S9cnVPUAuhaiG98I0WcO5KySSFHAukXpmyKzp9t98w1PLWsLcqaiob2u/gX8eTzqYHzWMmjKGdlX1Z+27du118pWRk6F8sFstzv3jOWZzPUUv3s6SKiy/+5kWLxTJ3/rz7jzu6nj4qv1Hx6sBXCcrY167KzjuxI3Pnn179E8AN9loE2ATKaq8F3hmYLMlRi5AmhICkn0U13VgB2554/CykNtre51mG5BJOqEFYNIRJ0S8kKUoc9PigP6MWvKQA9fKiQkrjY/AIQLAXv8vVGNwipFqhIBGuEr7EqHl4BTfSu9yuFp1UCwUYSkzKDgaHMbwRmHg0nG2vCAqohcKcU+ADKAZ5PebJhN8FAM3xjWBQGq+DWgQXEhKCD67uFrWQJ8t8cigj5ythIYFw4CGGTlnDgt5M8NMw1EI7Ivz/BBf2Ze2jD7TwSxaLJSp6Ttvf2oEt6B2ih//9/SfLFhOmOXnuJL3nvOfAXn6el+jgS3R9F7XgPQhstPg7YwYmSyLRyCEqBGRVQ3XW+aM0TA42nm50Is1A1EKzCEiLOj1kRodPHy4Fxl5c/1TOOYbgRaXtcXtaVlrb43aOWiCXYFz081MjvJPamtoG+KB78R41ygznGTR56teflAoSqBEF/UdLmMXARmDsayDDPpDi/iPAAqLGB5BZZyfORiZEMpGn5k5CcEdGA+QG6OfOJu/acvZ8c3V91EIOBmYgkRB0chxxSUlF+OQMX+zh3Wwev5jFTA2/o5Yf/tGVX3Jh7ISxOI37wosvJK9Ppo+vCKil6+mj0mtlv/u91WKxTJ4+pfnhXQIuheWF/DzvW8PeOnrq2Pf/80N3vf/nx3n74l4LX4Ny4OwnDwtAlqSgotWSnHHkgARiU6hFNnoA7EXp3hpqdaQ7NKEALyrg0FvUghs9bFCarm3tfu+DZ3mqOprP/uUiJFQsTA23JGoUd1RRElNsI2aGyK6Ie41tBMa+xvLsLTXuP26fEGFtgIcdMJY8L5kM23X8NC4Go8ZTD+Vb8h95P5WjFlDwytVl1MLZ43tIoC8f1eLQioZBLQKwJuXQO5IIE8JAAfNhCBLIRk9Ri+e8Pvj7w8aOJnod2vO7+MiOJ50N7Xd6QoFT87Btpszib1lQBnReNpbVjmJJDR7nQltzDeHtXgtSp2YSwfnQtKw0/XMwWA7KEhnV4297UV3vPtDz40M6z3EzUjmH3YKxCAlB2/JVuYfONlG/K2bIx3iJcrWEJSsIiV7YbKc3xUgK8i59akZZlugEwL7GMuwVNfgGwtYVLODAEYNhaNlPyLX4DgTfaxHSCOKUIIXOJxI0pfPc1TVv1+lEtpTHQHWQnb5PI7yvgGQlYBTyYWhSpt/XewKHWvqopsyUWfwtS21rXUpmCh0m0E86/IwCUItvHuIWtXhLljgPhpj3t70ItUBSOVciaVIDyRGp3FvdGjuePMcV+uRzkWibMr6UP/SCl02E8Z6Q5bf40A6AfX3gqrdu0cQ0RjHT9rg9PSsdrwS7BdM8KLCNYRQzik4PNaBQyyN9DZops5hJFn2rmeOqspc57OhKCmVfV5pR/UoDOhpQqEWhFjca0PEedcmvGlBVza/q7XXiyr69bgLFQF/UgEItbmq2mTKLmWTpi8HmLc/KXt5qrG+NV/btW/ZS3AaJBhRqUajFjQaCxFP7IRuqqpnb6Mq+5ravks5PGlCoxU3NNlNmMZMsfoqHoCKr7BVU5jCcGWVfw1WqCPYHDSjUolCLGw30hzAIThlVVQtOuxjFlbKvUZpUdPqVBhRqcVOzzZRZzCRLf4hSZS9zW1nZ19z2VdL5SQM/oRab+k9pQGlAaUBpQGlAaUBpIOg1YLHZbB1POtU/TQ2YSTlmkkXTWCbrVPYymUEFcZR9BYWon0oDnmjgp70WT4b2zzFmyixmkqU/eKOyl7mtrOxrbvsq6fykAYVa3GwymSmzmEkWP8VDUJFV9goqcxjOjLKv4SpVBPuDBhRqUajFjQb6QxgEp4yqqgWnXYziStnXKE0qOv1KAwq1uKnZZsosZpKlP0Spspe5razsa277Kun8pAGFWhRqcaMBP3meIutWA6qquVVRnx6g7NunzaeY7y0NKNTipmabKbOYSZbeCphAzqvsFUhtB34uZd/A61zNaAINKNSiUIsbDbjy8ptt9eExEdZQqzXUGh4TcbOtHiPtqXZ7qh0/O5505pbkxdhjm75v5p0dTzpvttXbU+1yvzCsJz/tqfZdx3fLFG621UcuiyytK5Mv8Z7ckjxBOn6VE5elppG5JXmyijgRV+1AVjXBQB4qxxXnOv1N3zfH2GM1LdLxpLO0rixyWST5UmldWfjCcNlARMEaaiUiPrBKFHJL8sgDw2MiqK3Dtj8uBdK+/uC/z9HcdXy3K0OT4+WW5I2YMYKP0XRXV54pK0Qne3C/pVzK5wUpe6rdGmoV0imu9s+GkajlWsP1z1d/nrjSJvxbs2nNnfuNuJpxOLPjSWfG4czElbYNX2+809EI1eecz6F7i6qL0RaoYQAIYsBKx8rcwrz2/7oPgj1vBCazkNdq1vWeiwAKPsiCCkHohP/fVS3XDGmiIwt4s60+YVMCxWRpXdmIGSP4FLyNOkdhzC/J7REzRqDauUocPGtARXLD1e000p5q/yDhA5KLUAtJwZn0OeP4YC+Zf096NFPzruO7ZXsRtV3Hd8s65z2a+Zfu1ZwLTJLzhC8Mzy3JgyPZU+2RyyIjl0XSFNy4BDuAPl25q2ACjo0EuAZOAtAImH0DIEvPp9APf+5d1lAr+YCHt8CNjxdkC6AEbMMl4HV0Cf0Y2fGkc9fx3YJH8au8rZM9KP+ELwzfdXw3UMuu47vDYyJi7LGQVyeU+ET9qm0karlUefkl60sW6b+3R7xd21yHq0sSl3Q86VySuIQGrt+8/v7jDlL6lh1bqDM77wTaEr3ujuy8EyAoDIiKnsORUA/NGZjMQkUO0dVDnl3d3nNZaNtAJ5B4TdKvbQA9iFjNBEGy6GxpyOBDyDvEEvGsk+ZcKV8n73Q86bSn2rce2kabB4RaiFVDamHP7eXKE4R+0jwtNJEu5QYytU7W5toWZqGf3EPkAcTJwdxDtP8RvjD8YO6hyGWRVxuvxdhjNR2PO4Dm7DK36KHxsqTUozmdzLPPPQGzr88cBtuNPA9o8qaTQ2g8OTmWNCAi3yj7BkEluR/bfqCGhk72IL/tdvUfMXp4TAS5emldmVsxQb9/NvyCWkb8ZQT2PxJX2mivBSBDQC3P//L5MwW5pH0gley8E9hrWZTwya//768tFsvAPw9caluKvRYQpOliF8f95qXfEoJZtT7ZKHMGILNgfemqcAaDLBSrqFvEEoEAzrZmtXaVKSAXVRGeOGg6lA0exsKDGF60wBU9WSCMhZpkT7VzQMNvRBkTbsG9QgOQixgjzmmFRNrQ1APk9bARAN8jTgSVumUP6pJHCobTTPGCMukn7aXBB+yp9oRNCbT3lluSJ5CleQXiMfbYm231fJ2KibjfcrvnluTRJe5gslB+6gmYff3Ef+DJcjPprEBgdzT4/tyVxqu0UsJVuREeE3Gl6SoHynAb+AyJT05I3utV9gBB2tSkp+1Eh4sZeCUH/4x+QS2ESwThATIE1GKxWP467q83W7pPRXDUgttrm+veHvG2xWJ5P3JG04N/HYwQCHY/FL9e9qfXXrFYLNNmTm/sbAKFnjT8nVng9PZUOy//PeHZ1b0+y6Kza8J5RhySUKjfPGXoBCRVrLK6chyXoWxCNZI/IXJVhEhwDk2oB0rml8AtNns0z9/IqyVUVtpr0WSsD6EWyv5u0y43tI4/kMkAN0nz+NnxpBO24F4Kr+C65caS6eB22BE9+g1g6KbvmxM2JdCyGwzo32vsVZ/j0Vg2goqapmvBf9yaifuPV3LJNwouR26WW5KHx5FEn/uzHPU62YP7LU9BQlbxSop+MjgoUIvFYln+RVLb39p7iFpuNNYMefsti8USNi7s1r3bhpjQ35mFHmTSoVReGAxhXiDimyzII5Q7sEyRueVLDdqNkIOWxyfGEwrhiUNIGTxb8SMj8iKJejhOoufQxC0vhDxrQFFe5R3KL9gSADMx9tjjBdn4qckSZtRp+GYvHYKal0ifwF6aY4ROb/daUHU8RC3yfsnxgmy5k9wGdoRnksJzS/LgutZQKzkA+RW5B5eCO5ggrP9+Bsa+/uPfH5SF01Q6eYBm5yYWIg4/yf0wkq95IAK8CD3C1DSAHgfzFwj4MK+yBxFM2JQAPqlBbil0yskWfPbDhl9Qi3DQZMuOLR1POoWtETrX8puXfjtxcrjFYnn+l8/zsyzZeSdgDLd7LTGfxNY2112/cz3JnvSzAT+zWCxz589r+aEVFHrS8GtmwbKP6p+/XbOHsqAqIOw1cz2Qis4WLkcVKB6EWjbs2ShELB1PQ1kVHmfI6YZDE3othR4Y7Tq+e+uhbZoHfqF5r/IOXxWRsNAM6Mjsee6NPbSXJxPR2jFyWSSpF5ldMAGqvic0+Rie06mfemBN6oQjceRqT7XDTzgdOAzdCw2jQXYh1EITldaVJWxKaPq+uds5F4aHLwwvuFJoT7XjxTcZCsOUXBxj2wGwr7EMB4CaD6iFW4r7DyAyB81C9oBE3Hmok7uccOibE+HDEPUgi2SIHnDIZ6S4A58IB5kg6PTnRi+jlpesL52+cCZiaoTFYnln9KjElTZCPF6hFgEk/cev/yO3sPudRkP++S+zEAhA+g7mJ0TAK4gr0i1FLEo+xTYdL4DyEdXUQHVErkERQjzjXjQQxlSQcK+QTWg8Ry3gfOuhbZHLIqlo0YIJr1uDgZ48IULZI96QbnhugjgeNvzne2Bgw56NBVcKdV5FxkhStfDwTgY3vCfGHlvXdpMfDkAhgdsTfdgXPgDIS8AFXiS/wUEaTtiUEGOPxe69PdUuo5YrTVfJBzAM0oEB9ASgEQD7BkAKY6fwAbVwl9Ns86xFgANpAeM37NkoeAW5HAbgxSXBh4kUTYGoh048QS2cGaIDb5QJgnJ/bvgFtUyf9V7WqaP4V15T4Wqv5SXrS5cqLxeWXxRePvIZtfzxlT8Wll800KJ+yiwUErz6Bi1qQT3mASy0sSbmg0k61BtqCOWKFyGqWPS2COgTZYQx394gK8uwAKiFZsT+Cr1MC+xCBxrAHlHDQyswoNkQTuNSbsIjDPosBIE5mT3PndNPvicw4MouwjDhJ4d6wiX+k4hr6lDoJMfgPoBHb+ExEfwdIj416OP1UZCVnxAVXivcsGejpkW4g3H+/doOjH39KoLhxH1ALTyLAvUSY0J0y2se2F0eKfQIboNtcgG1wP10GpQ9QJAyP60HhHSnUIumg/kFtXh+GpdQy/3HHVt3bqWHOz7stSxJXHL/ccfna76wWCw/G/Cz3fs1PimmKbwnnX7KLDrVkQehJxx6PsYoWRDqmJqvYPjWC98LoSzgCrXkluQlbErAO640jAc29RARnYxAlyj4qW5RIjuYeyjGHltwpZA+YgYRhMWQnCaEAcKX0Oyp9g17NtJruqQEehix9dA2siNEgK48bxhlL/0ZuV08dEueqT0hzhe7fDrcC3OQsTbs2UjGokd79lQ7XgrlMJeO08oHJIksaGIWamhaxNVg4V5jfwbGvsby7G9qPqAWt9mAux9/uCMsgQQfIEfFvbLb0Hje71X2oBu3HtoWHhNBryBQvqKdYJpXJuhv/fcJ+n5BLXTQpLa5jv7dbKlv/6/7mudaCLV0POm809E4K2oWnvV4tddCIKm6/sqbQ960WCyhfw2lN5IMMUDAMkvQ7rWQGncd3w3AgfBGQ1A1BTzBFwQeL1c81Gl7hkjRMTdsWmBXFhPJ9ZKTIjaw14KfBIYSNiXg2RBf00MuQQr6KaMWPoyYJwo8IXKGhZ1nfrt+OzC+x+3iSli+vUG4TfN4EOqHDvLm08ni04MhWoxyO/I1tMAMHEDnUA4xRmbCeD473yOkwQL45oONagfGvkZxGxg6mkYEdEBYuWKG+4nmGKyvjhdkC6hF8CtyVEyt6TZ8VaY5nauAwvNWWl/xtMYnQvLUJN5vO/3zI05yAAAgAElEQVSCWgA+qKHzlTmglo4nnYXlF+m9ZfqIHEzi9jQutnY2fL2RZqTzv6DQk0bAMkswoxZ7qj08JqLgSiFpknJH0/fN3XXlxy854owILdYpFBGZVC14uUJyQWoQGgKSQLbCxixsyoOcOnm1k7dGUFApP7otTjp5R8h6QC2cAZk9cO62ERjf43ZxJayQ0HU459Q0h+kPgGPwY9TCxr7AjKaGUfwER3JVZuBgmjz7qTMw9vUT834iK+y1CLMIZsLhJ8BlzQae55Ij0REoygOcICACeVTh1Yv8SJammwleKnBL5+T47HwAJ8hRC9cAWOI3qnYQoZaOJ53bdqXScyIf9lo6nnReb7zxl3ffsVgsbw55s7r+iiHWDVhmCU7UQuGESk8q5aFORYgiU4gx4bUaXuN5cSKaPFZlw9GMNJfADA9+ulEgjp98JMnlyasxrgo5VCEkyhh7LP5GgasaKQuo2RMY3+MwwpWwAlDQ5JY6uZI1h/Hp5AGadah7F539QSKBGWFG0Cef4b6qw6E8TObN8J7A2NdwtnuLICyrwwCC3dUY2lTDWgV7bPSYhrZFiQh9ZY5HNxZjnDg+XcE70XYVUFjRcfrWUCseNxMFIaOCbD9vGIlaTKlKM2UWb2UR0gTWr3L0yphj1/Hd8jB+bIIvgvnmBPci5BRrqBVnafG2Ko1E0eIFjyMbJDLshRAbxAAJhX1gPju1dfKOPFjY2umLqEVIo/jJVQrByUMwhhrcshiJhuBU6NdpCJBCB7Vwr8NdQl2Bw/AZMZh3+rvtbTz6m5/gpM+TBt+34P2CB8o/KReR79GRKXrEyQniyBRhBeH1N+42yIQ0kYHZQ/BthVo0fVKhFjcvSJsps5hJFk1v1uwk1FJWV06vZNPTLg59KJcJ+QukvEUtuLHnDVPaywfU4kqTfMPsauO18JgIDpg4EOFbhrz8gDIfjE5/N0xpX38rrSf0m75v5h/p0SRFKyXuSJrDPOzsxezhIYd9cZhCLQq1uNFAX3Rrc/Csqpo57OhKCmVfV5pR/UoDOhpQqMVNzTZTZjGTLDo+bZpLyl6mMaWmIMq+mmpRnUoD+hpQqEWhFjca0HcgddV/GlBVzX+6DQbKyr7BYAXFQ5/TgEItbmq2mTKLmWTpc5HmA8PKXj4orQ/douzbh4ylWA0eDSjUolCLGw0Ej7P2N05UVTO3xZV9zW1fJZ2fNKBQi5uababMYiZZ/BQPQUVW2SuozGE4M8q+hqtUEewPGlCoRaEWNxroD2EQnDKqqhacdjGKK2VfozSp6PQrDSjU4qZmmymzmEmW/hClyl7mtrKyr7ntq6TzkwZ+Qi029Z/SgNKA0oDSgNKA0oDSQNBrwGKz2bqePlL/NDVgJuWYSRZNY5msU9nLZAYVxFH2FRSifioNeKKBn/ZaPBnaP8eYKbOYSZb+4I3KXua2srKvue2rpPOTBhRqcbPJZKbMYiZZ/BQPQUVW2SuozGE4M8q+hqtUEewPGlCoRaEWNxroD2EQnDKqqhacdjGKK2VfozSp6PQrDSjU4qZmmymzmEmW/hClyl7mtrKyr7ntq6TzkwYUalGoxY0G/OR5iqxbDaiq5lZFfXqAsm+fNp9ivrc0oFCLm5ptpsxiJll6K2ACOa+yVyC1Hfi5lH0Dr3M1owk0oFCLQi1uNCB4eUZOpiPdIXQ2PmyaFDspLjm+7XG7cMmQn450R0ZOpkCqqqF6xMwQmRlhWNvj9rjkePl2DKtqqI6IiahqqEaPs9IJWXgbAwLTCOaq5kh3CJonPTsrnVw5bY/bHemOxodNvNOTtuBmVQ3VUbYoD+lk5GTCfJ7M1fX0kewDHt7Yk2HBbN+eyNXzeymf6MQsTVHVUJ2SmSJP1/iwKcoWxSNaHuNhj+CHntzFZ/fWr5yVzkmxkzz0czAjByMumbIRONTS8aQzbW96kn2F/K/8RgWurv9qQ8sPrdD11dvXVq1LfnfMu8NChi1K+ORS1eXv/+cHXA1Aw6+ZJSMn0xpqxb8RM0MMiTRXaum5LK4qU1xyvLPS6Uh3CEULnHgbvTQR1R6eBUCQOotqihNTbILShLlk1CKkBhmX8B7epvKWmGIDOHOkO2A+3vC2akIu3ui5vTg1D9uuJLKGWgFTqKiQraFtTd/oevoIGIJQJtcSb3PP4fTBtk5qFkysU2mEiLOGWqk0gklMF4BGr9g3AHLxKYScIOtfM1Ic6Q5Pijd5lAxuNDNG19NHOr7NXdEaaoU3cl9yVjqFYdZQq5y0ecbgt3O18DZ3bH4vH9P19BEFBWeAVKQZLMK9JvsZONTS9rf2WVGzLFr/nco/javDRw5vaL/T9fTRg78/3LJjy8//7efCHfFLP27tuhcwM/g1szjSHZpB6yfpeiiLEPNIK9gI0VkQNz5sSstKwy1uBaR8dLr4dFxyPA9UUhcvkHKco47SLEJJ63r6SEAtXK60rLQRM0P4jGgjPfGUCtm5RDJL/Krn7R7ay5OJhEQMGbuePuJKFkhxAZGXXY2X9c+pEQPAQ3SJ6OdcPgXlazZQrgSDgiU+EbWFS2Q+fQ5lIkb1BMC+RrHqG522x+3OSueImSGwlKB/7kiYQkY23PrcRfkmmf5dxIBmtGJeaghuzBmWudWER5hFxhkQBFIIyUqeAuwJcyHZCs6P8SZu9AJqefE3Ly6xLeU7LuU3KmTUknk4c8CAARaL5ef/9vNJ0yZHzpv9wosvEIJJsq948PeHgbGKXzNL30ItVO8FmIUQJXPor1n5qkLffBk5mYA4PHFoVlOBrJAI5JrE47zxYVNccrywJctzB28Tz5ygID4NkG/RF9bVVb/6Hp8UGZBMjNzKGzAHF5/afBjayMuC2/CloSPdwYcRS5w+Z9JVW4cHMMP3VOiJFT1BIPNpbgJBXlfz9rw/YPbtOas9ocDDTQhVOVIAo2X9k5kEgEubeUBFxKdQ4ME8zC08EcYAnl7ACXmRs9Ip9FC/4MA8lDJyMjNyMsk/sXnD5/Jw+4dEhlCUDzERX3TB4QWFCJP29Z+9gFqwm8J1J6CWxo6m0WNHWyyW3/3eerHyEo282VIf+td3LRbLi7958XJ1Eb/df22/ZhYhhv0nBVHuuSy8SFM0zk6cjVCh/dLEFJuAbCAXr1jolBs07P9n7/2/q6rO/PHzB8gPdq2O9gfsWp3WTkuvM5+OtbZjq9XgTFPH2tU3Scd2ipSmtY41geroBCJUeyW1FZi0BZHYAUzaCjYoYMCkEgvKVw0BFAIaEgQTbgQSS1Zb+elT3i/n1ef97H2+3HvPubk52aws1z777P3s5/vz2vucc0XgqZjHLbUoXqlhOssLtSCzKB5kMpVtNSwg6fhpwKQQ0FO8vQKIy1sSF1JeqXmmSMIaWIeDZbqXlM12/+mBnYd24UCLJpPDUBuQ5QM20JxrBpHZQ/qQlAUA/tzS3iprj3RyTkyiUTL7JsF8ATRNkCr9R7kWTA83gCvKBzfBq9O+1mFW8CGTmEQYMjSs1FQnt1vcDsk4MgerRBGw66NQErX09O2vrqtmLMg4VWul6bJMUUvXrhcu/cClnufdM+8/T//pDDXe1r4exy3Lf7mcnYk2ksss8GY6XKJSgHiRsiBsurq7ahpqdh7aFfCKq1/sIV+oQDUFx6ky3lZBHGJRhKjMKXIua1V01IJ3RZtam5Cz5iyaO7+pQeYv1X5o5SKOxKst1gqncrFkMq92kfaKuBazIcb75XTsfYEacXQBB+auLiA7gzIGKJXyUoLU6PXJmqbpCaYGTNTS1NpU01BTVVslC6Sfj5kEi+kpjX2L4bCYuTzBgufI56okS3equG36zsMXUorUPCnId6o4VzZIh+6kGjLn+GUnSZBtohYJoOcsmnv4ZG91XTVXAdtgg/JKl5ZygbiKO3QG8MbxErU0tTZV1VbxTbu4Mg/FL8/GOKAW9Z7KrJpZg+8MqbOWzS9swbDHVj8mFbf7wJ6Pf2Ka53n1C+plf3Lt5DKLSuJyt5eQOEXKgpA4fLIXp+syU0jmrYUEEjU2N+Ikxoxhigy1MMvIEO0/PSATmTxDluEqxzCtqIacC0ECWCJvaMi11K14L4u0V0RmZDrGu5NQvkQhtCkAAbAad5NYSI6XPXxjUQ2QgI9tZO3qumqYw3r6DVMGwP28UMv8poam1iYykK8zRFSydVhp7GtdumSd9Jy8ViR0hhsgomWS4cFMpjLDXIFhhNFcUQVsgHtwChsStcDl9vX1zG9qOHyyl0+W+cZxS3trVW1VTUNNT9/+xuZGbGzg9ir/mExixXxRy/ymhrat6/l5XcB0SpSCRpmilqe3PGNFLXsO7v3EFZl0oBbpPfBsFZZyQCztIrOkLG+ZykxTaxPidvDcED7kwdMWvzyFnILHw0w0plwchluqbq1sW4mNBUsmUoZKTJIsdCvThHzQzpfziVrUikw3HMC1mFs5RjYCyqpkL6BdpL0CKPMWRACGQ4KmdBJkwKaH3+rFSyGs8aQT8ISIe0Rr+qbG8AZAY3Nj8ImaXDHgCR3JykZXdxdkJEsUhMXJz3vVurFclsC+sfBZDBHqM8D6iBQZTdbYURQQj2adxvM+nM7ivJbGpZdKrzDbcnXQr2momd/UgH4/1AJJsa58T07GkdSkSqcmG7Knpb2VTgtxqFj2IxxkopPLpak9Dqjlyquu/HXbrzd2bsLftr3bT//pjDpr6djeiVdxsz95SKp78wtbrP1yTLztkmUWbPJkwMQryMj50VhkYZAQN0RELXz12C+MIa/1JJkhipQxeG6IqxeAWqhYlQeBGs2tmGKYdZ108C0Ddzyyv5h2LPYKZgDCKtQi0yXb8nQKxV6WGQ6TDTgzHUapkYhBZdsiTzuAev3iSGV88kAHsxo3WIcF3y2BfQvmLa6JVKz83ofETVujR3qRaqutHVGL2u3Q67hWxIYMf4XpyYn1CREwsZQXKyq3D2ADsvvt6CgRnFYuhJ7oCwXwMCFujQNqifI27qGBw9dce43neTdW/nPvm0egyrf/eHrufT/wPG/KlClPb3mmNPotWWaBz/ll21iEjUUWBo/ML0glAWctKqeo0w5KB5rmdoEhCjpIH6ijJmqReYe7K0kTq/DsRF2q6aTA8dbCRg4pS/GNWOwVygZtgYpObcgkqKRjsZfE5XjZT4fBAKZ+1aCByAA+D1HDeMnxci1MaWxubGptUr/ig2F+qIWLWkVTS8R1WRr7xsVtYXRMz5Epzow1eguWC76UvwaE8dwaqXWjM08HwA9QwWHU9ADi5i2/uFA0+andyraVTDVyDFUBDuVCgG47D+2KfeMkGSif9jiglmuvv/aVQ919Q8f4lxsbVmctp/905oeLHsBDolu+estvnn7y6S3PfH/u93HQcstXb+nP5f1rm4UpPbnM0n96gD9WxucUMqQLYzhgViyyIL/jcXLEJ0SIWyUas4NkWH3NwVsEK/ObGkKfEKlUiNVlkWOJAn11GfEJkXodj9VUNqzZh0KFNmKxV+gqCrVwT9y2db3fB6JW2/llZ2ZbNUASkW1pDu6klRRyvLzFVM4zOXmXbeyh1aYWJ/bySInjE2qUxr4JMR+RLC2C8TAugpGf20hSGCCDSLWtZy2hwVhdV71x+0ZFSl1eeCPY+MhAQnk1Xl7SbZS83PPIwdaXixkmPEWWamEbQaReV6fSZJbjlPQ1xgG1qLdxPc+z/src62+9Uf31r5mDr7zqyl37d5fMEslllv7TA+qNLbp+QtIVKQvLORIHQ4WvW/qdtVgf+mC6rOsISAluGKKZygyUQ/jCnhjPWtq2rt/X16NAD/MOWcVZy85Du/hr4uQ83qxRpL0iepF80EPlwzq8VKSsoAFKoJY4helYDZBEZFs6Rl6oRZ3nWXfJ4ArLKUNjup/IFCfGRmnsGyPDBZBCFT98spe/Yc0QtqY7egvWCr7kWcvhk73Nbc1kD55WQDAqF+XRHSlze8n8I29ZnxSbNNUU0iTD1tNczII+u7q71I7C/KrcXCU1PeWLWi5Ui3eGHvn5Ynw0hJ+bm3vfD15/641Saj/RzMIAlm/CJyddLLIwj3BPwPdawLnabfgdn+BEVO6cVNWReiBN7qG5OobJOFfVyExhsi4yZXx7/rex+VbTTdSCTTk5B31UO3OulCLfdiz2Cl2UZy0YCeXg22bgVCZTkpIgg51+2RmoqKu7Sw3Acxx8Pkpl0hxAP9FRi9XNrNMpr0Rm8L35TQ3yh1wpWkKN0tg3IeYjkiUmJkbhW6jS6KTG9IKe4EugCu6aOIXfJFuX4FpmQ/1ogola4Dx45dZ88bYw1MIAkfzQS2WnTGXS4bEt/MvbNlSynJW+dulQSzG6O3H2ZH9uoMT/ByIwnKbMEosszCPEDQGoxXrKIj1BRmzA4HxRizqPtV7yVADViwHPIyU1i+NZs5FE1HkvpqunD1Lk6O1Y7BV9OdjCTPQsMzyHoAYkcQVKcAu5tW3r+orbplOBcpbZlpiSSytb8LduUScqbpvup3DAEXKuyhK+aMMqYA/j/aiZ3BbTU2L7FsNqwXPbd2zGyxZEwww0AhoJiznMtDh6lH/KMwbOJUEsEWBNhjCXo6tAZJ7YgTjuMh2hk8vli1ownQpRSsZdybzcFA2eG/rL/yMFj8Y4BsknYqCp5SbQ5cRALeOo0DRlllhkUailbet6HpayxiC2+WZcsPlQJ5a2/HfANpdpAmctK9tW8nSKIEPmjuAVkQ4Y2ySOWTI1oMdajwMSIuirZ8/BLFnvxmIvK+XSdEo4a5YH1gk2olsQ/IOmKmNW0eCZS1v+W52r4/MlJn3OlRtZdsbemOj2ja4Q6F8BAkxH+NOITC9W4uru4Lmh5rbmfX09wREXMRGpFZnN8HGQxBYqY0hvUbfMk1quEhFhIM8gKSkFQnXMY6AMVaiRXDQdDYdaRoMNmabMkiZZgq2WjrvOXumwo58Uzr5+mnH9TgMBGnCoxaGWEA0EeI+7lagGXFVLVL3jTtzZd9xN4BiYiBpwqCWkZqcps6RJlokYbPny7OyVr8Ym1nhn34llL8dtmWjAoRaHWkI0UCaeOgnZcFUt3UZ39k23fZ10CWnAoZaQmp2mzJImWRKKh7Ii6+xVVuaInRln39hV6ghOBg041OJQS4gGJkMYlKeMrqqVp13i4srZNy5NOjqTSgMOtYTU7DRlljTJMhmi1Nkr3VZ29k23fZ10CWnAoRaHWkI0kJDnObKhGnBVLVRFE3qAs++ENp9jfrw08B5qaXD/nAacBpwGnAacBpwGnAbKXgNeQ0NDbmzY/Vk1kCblpEkWq7FS1unslTKDKnGcfZVC3KXTQBQNvHfWEmXo5ByTpsySJlkmgzc6e6Xbys6+6bavky4hDTjUEnLIlKbMkiZZEoqHsiLr7FVW5oidGWff2FXqCE4GDTjU4lBLiAYmQxiUp4yuqpWnXeLiytk3Lk06OpNKAw61hNTsNGWWNMkyGaLU2SvdVnb2Tbd9nXQJacChFodaQjSQkOc5sqEacFUtVEUTeoCz74Q2n2N+vDTgUEtIzU5TZilDWbIrsqs2rD4yeHRGbdWqDavHKwzKc90ytFd5KmqCcuXsO0ENFxfbi9cs2dO7V1EbOHO8NluXXZFV/e6SGnCoxaGWEA3QV6yNIgEHUcvAmePZFdnabN3AmeNYqGN3p7zk6pjCSzaODB6dPW+2mQX29O6dPW/2kcGjHFlkw48xP7IFMzBBq5qyo59aVD+SdcfuTtWPS7iHMqKfxa0UyrBzgto3aU0ipShPKDiIrNzu6d1bMbNCLWEdmVznwJnji9csmVFbpbw6NzbcsbuzYmaFmcoGzhyvX1pv9ifHZHlSjg21tDzVOv+BBvOvfWt7bmwYdxf/YsmxXD8V0b61HeN39uzasW/nwocWzn+gYcmypQNvv1e3Dh/vfeiRRfMfaHh46cNHT76+s2cXxoMm6Az94dSzzz9be3ftdTdc98V/rfxp009f7X+NSxTfKEFmya7IZioz+Ev0vCFYluyKrAzjVRtWkys0/DCENfAiaj67Iuu3q/ADB8WjFuQsJZ3fpZk+Ani2Sp3veBIJtheHJdTY07u3fmk9QSRqidKSdBiw0bG7M1OZMftDmQxGLbmx4VUbVitXWbVhtdUnsZYV0xQJskOlyGvA+No3L1ZjGRwQdzLKOnZ3MqXQxH6opYCsBU8L8BwIG8CtioJMZaZiZsUTm1rMfr8eCOh3rIJ+sxYMnDm+tmMd4ssaj1guVLRYrDmORGJDLffOv9ez/Vv2+LLc2DDvPvKzR06dy0HgZY8vw4yNnZveGh2svafO87yLplz05DNrc2PDp87lHvnZIxiAWRs7N+ESNHNjw71vHplVM0stO/Wyqb9s/R+uUqRyE80s8LySOVmALANnjgPgM1RUkbBiCBPZyChlJgoIMDkebc6SK8p28ajFzyX8Dgnyyl8zaqvautabcvn1qEoseQuwlxyWUPvI4NH6pfWsHwoEWEFGqKLoXZjupxPZzynwoo7dndG9znr2JotiQqqLSHZ87RuRyYKHmSaWri4jWi3BAJc+ZkUthWUtuUuUnoY2HV5xxUu/LMEBfg0pDsdArr29L8+orTKZYU9E1eGcpmQFhVKUuBEzarnk0kvunHOnPHHBuQhRy9TLpj63rQNCStSSGxve2bPrk5/6R8/zbv7KzUdOHH2pe8e0zDRe5saGFWp588yJ7911ByDLhy//8O3f/97NX7n54vdd7Hne1Mumrt/8dCyqTDSzFBwAhYkWKotM6OqEwMwy2FVnKjNmnKN6yUjzY1hhIzlMrijbSGqoYYQ4ubFhVVaZ+6z5Ti6EdsfuzogM55UUijFxqL1MKeLtQZ4FbtjTu3fGXTN4Om2mYIlN1VkLBpt+Irk1Ccq7aEsbSZcwR0p/AGUWANXIy5rWhQruHHf7Fsx5XhMZiQGGIDaVbhYAgqXV8spahLySAsRBQiMnVhmlB1oHBHRG8fCAfEjUHrCEQy35ve4AXDItM+2l7h2mWolaJApRqEUerixa3Fh7d63neZdceslTz/4WBBVq2fzClksuvcTzvK/f9o2+oWMYs37z01Mvm+p53te+8TX5NMpkKWJPcpklohdG5DPKsOiyZFdkJSAwg0FGOBIBChUTk7VuyYKBrGGNUuIhjMchMMbL0librcNmWo3HCSpzZRTUgvwYXFZRCGfUVinRAjRvmphcBczirej24pSEGiYMVSkYksJGajDcIxQRKoLBgsjBJnyRTkJUrdxAUgheK7m75WPf5GSUewmpc2k1GRQy88h+ZT4rw3IuBshV8JCRjy/lYDiMynjmElGyhHmQQ7JSfJM4eqz5ELfMZGIlokS2jpnonTGftURBLZ7n3f+jBYPvDCnUcqEqnDh681dulk98au+pe2t0EFpWqOWBxgfwROmpTU/RDIPvDAHufGzax1985SX2F9xILrP4vXJVMKuhE/1kQTQyv2dXZM36zUpQMbNi+4EXa7N1sniTQqYyY61PKmIZWmyY76CpWxLxYD8kE6LcW0MPTHmSNyt7RwaPZldkl6971JRaqRQHJwf6D/od5yoKfCpPOuSKPQENP3sFTInrFpPvqg2roUBzD8ptK4SSdoe5YTKlEz8OlYfIYaTGAiAVK/1EzlLuIZE3CJoSyeklaI+jfUsgHZaQZZh2lLGMNmyB7QesLA9dcmPDJmphXMPBQrPW869sVU8M5W4n1BkiZgl1RC2dUHm4DDGagzElVQTeJGqRnHMkErJfOHCJFDRiRi0ScHie94WKLxw+3sv3Wj427eP/52sz8ARnY+cmE7Xkxoaf3vIMTlA8z/vkp/5xZ88ualmhFr/TnZ899nOwsbFzE+cW3Egus6zasBob94qZFfA8mfcLZjhgYrAsZl4IIMVbjB/EDFIJqwuHqYhlaMlFVcBzDCKZJ7os/DIjBKOWgG+I+HEKzIEHzNYUFoAymUBNJCd7cmPDZJ6aCWgE2ytgYly38uIWixLdwplZqJRKmbKZcwMa0CHNTZrWKQRJHE8XtY43fTUu7YXSGXf7hnJY5AA6A95X3bZ/O3c7jG4GBQav7VjHA1SZD2WikFz59csxZhsphaaHh9BzzPHRs4RKYnTC3NiwyoFYRYWYBHlqgEItzIeKslSsKUg6ekqKWqZlpm35/XNVt1Z5nvcvN31x/gMNJrzY8+pevN3ieV7lzZVHTvz1g1WJWob+cKruP+d4nmee7ljBUMHWSi6zqGIMp5S+WDDPfhODZWH8B1QF5BFZBmRm4bqKQsfuThWxDC1GtdpayZ2xajPOyTDWJSlc+g0jk4h2fkkI1HJk8CiZl4AD1mGak0TkUTP7QYS7QGu9zFRmgs0dbC+ulVyDOpQWl7JAIVAO+v1Sv9xEWn0GOMaqYQio7Eup6Uvs4XgciUnAVMxrRop+8Zfjbt/iRQigwDjCDzLNnjc7GLXs6d27eM0SPyurYOe67Ody0j/Rhr9JD5QuQVLSjaUfyu+Ng7MEEJh0bykOOJRZhYiNPDjUQlUENGJGLR/68IeWPb6sbfN6/LVvbf/LO7M8awHC2P7yi3jNlgczPBThl0S8Jb85kqglNzZcv3AeXnzp2P7X33g4dS53X8N9Zn+ACoJvJZdZVm1YLWMDj11VTzBv+d4NloXxj/NY+eql9ZUOGeRmpsDuSr28KYehYCOSN2zbWJutU6lEViPZzq7I1i+txwGVX4KQ6UDKJTWmcBLzEcZImAIm+RqNJCIXkv1IkWYJJw6Qg/3awfbymxVjv+RWbSLhrgp1hZ6gKBOTVTyhq83Wre1YV5utM3/BwjxL41zpG+jk0ZeKJthUlQ3SKX1j3O2bqMh7evciZBRqkUmAbToGy3yoL8GOMrpVRFuzFn2DS6uGillFMyBLQJkqTCiOOhGh5mWIWZMJB0jvVT4v8ZC6xYXS1IgZtZgnH1CWfJpz6lxu+S+XXzTlIkITopannv0tHg99Y9a//8tNX8RRys21aQgAACAASURBVPaXXwQRhVrWblgLCvc13Md3X3qO7r/m89d4nvf5L1x74I2DxZsqucwiX30HnwHPIIoXJDc2HCyLjH/Ej8QEKhrNKiLj07wr48o8O7GeOsjwk22GsdKJYoDDlFyYZYWMKmGBz0xlZvmTy2uzdQf6D86eN3ttxzo+0VP5DpcVMyue/v0zFTMrrA/ayZVi3noZbC/rlHg7JbcqfatLrCvHmylY3cUUOMaqDavpIVbK0qMi1jP6g9xkmyYzjR6vDgOojbt9A3iL5RaNK20BpOsX0RypGLBGsfm+i0pT6tIcr8iqy7yyBFCUWlGKQw+XoiEoBs4cX77u0SODR/kEDWPkFIVaTE8GA1KxcqE0tWNGLR+b9vEtv3/u8PFe/uEn4yRqyY0NH8v1y99ZAWp5rf9Q5c2VfJ2FL7jM/u5sEFGoheMvmnLR3Pt+8NSmp9Y8uebGL94IKPPgwz+K5SdbksssZnY2gyReVwuWRUUsggR7ILXDAFcYYAYPe9RO108WKTXTHJHNhm0bZ9RWYQuOXzyTxU9GMhIEsCAOWsG8kguHBGatssooeZYJSPZLftCPj55MVGoWcknHbAfbyxwfe48SjSqSviEXDcUT3FJjlqTjl6BJ30//fmlajZcv8MK7TB/gWqVpjLt9kxaT4Sxtgbquqjs5kSPZaaIN3lLRLT2K7srBoBO866BXWKdbOyV9MwSYBqWHc0p2RRa/kMt9Ec+n1fGMzHV+Ps+0yR+H5EJpasSMWnh8wob8lTl5ErP95Rf5/srGzk2nzuUefPhHmIWnQvw5loumXLT6Nxf+DzUKteTGhp99/ln1sAkUZtXMiuWz59DziSJdQW7HcXQpjzeKJG5OD86SiP8D/Qf5qgdPUxnJkqbKL8GXmIi4JaxBUcQl6hmJcGkoREapLKXMWaTMHMFhHCOZN9uh+Yi8qblcSPWnBrXI36hgUlb4A7IrVYRe0lgqQfNSOp5Et1LV0jdkv7QX3SlTmVm1YbUfKTm9BO3geCwBA0kvwahUz4sD9C+tJtnzi+J8s5aiE3wpGUA7NEv4oTG6tHpAiYBCNJkvtUikItsmY+zxCwcOSEFj3FBLbmz40VUr8JxoY+emrl1dl//d5XgD97X+Q9Asf2jums9f03N0v4lacmPD3b37au74Dn5czvO8j037+PL/eRQv08RinqQzizy+tlaCWKQAkWBZ+MYlSwV5k9WF/Kj8EnCJeFOZCwcPoIyigo9sZ8+b3da1Xq1oRQB8tWLji5v4MwxkjyVTJSYOUI3QfKQE5HQuxB40rDz7DVZzcRlsL+uUGDtlySGm5CffVnitpPO7BGVFAZ0qp8MxHmtbWZut4wd3Kkz80rTVXgq+xKiuAkiNr30LYDjfKbCptBff98LTcKYaUrZaLeCsJd+spbJB8CW5YiM0S3Ck2TBhhxTWPHqH1Hy/0JxuLsGU6M5a8vu5Oasqk+4c+sOpIyeOHjv11//JUVwrpimzBMuyYdtGfCFMkMGcwtQgExCH8exENRTyUBZRX3OwnMgl5BTu8uUq5hKkI4fJtjkFq4TmI5liALlA1o8gUMviNUvk6mZbFW8pcrC95Mgk2rLkEL/COrjFH/jh6lYbSZH9jOu3EyXltR3rcHLOpSVZ1V62djnQFV7src3WcYB8fRhCyR4uV5rG+Nq3NDJiFVpNeTtzCINIRRmZVPCC/flmrdD8wKTHJWQjNEvIwWgzdqxv72GMjDWZW3A0iDEBqIXqhZ8r6G+yNNF7YjtrmeiK8OM/TZkliiyIMZVcoBwEfGh+wWC/7OOn53HvLyAfBfNsPWsJnqLuRrGXmhL7JXIlja7oA6bQW9Thijk4ALWowZPhshzsmw49R89afugHegi+6/dKXPE69DsvLJ5yKik41BJykpSmzJImWVIZjUooZy+lkJRdOvumzKBOnNJowKEWh1pCNFAaR3SrmBpwVc3USZp6nH3TZE0nS8k04FBLSM1OU2ZJkywli5BxXMjZaxyVX4KlnX1LoGS3RPo04FCLQy0hGkif008UiVxVmyiWKoxPZ9/C9OZmTXINONQSUrPTlFnSJMtkiFtnr3Rb2dk33fZ10iWkAYdaHGoJ0UBCnufIhmrAVbVQFU3oAc6+E9p8jvnx0oBDLSE1O02ZJU2yjFfAlHJdZ69Sarv0azn7ll7nbsUUaOA91NLg/jkNOA04DTgNOA04DTgNlL0GvIaGhpHzo+7PqoE0KSdNsliNlbJOZ6+UGVSJ4+yrFOIunQaiaOC9s5YoQyfnmDRlljTJMhm80dkr3VZ29k23fZ10CWnAoZaQQ6Y0ZZY0yZJQPJQVWWevsjJH7Mw4+8auUkdwMmjAoRaHWkI0MBnCoDxldFWtPO0SF1fOvnFp0tGZVBpwqCWkZqcps6RJlskQpc5e6bays2+67eukS0gDDrU41BKigYQ8z5EN1YCraqEqmtADnH0ntPkc8+OlAYdaQmp2mjJLmmQZr4Ap5brOXqXUdunXcvYtvc7diinQgEMtDrWEaCCKl+/r66mqrdrX1xM6uKu7a86iuYPnhjhyX19PTUNN/+kB9kRsBC9qLiTJtrS3dnV3yR7Z7j89UNNQE0UcOSv2dvlXtcFzQ3MWzW1pbw2V3VQp5ior9J8eaGxulO6hKLe0tzY2N6pOednS3pqpzCiyckD5tMvfvrHoqv/0QHVdtbRIY3NjsBELWzc4IUiaphcFpIuCE9TI+dGu7q7qumprcoNaMpUZ/M1ZNLd9x2ZeslFx2/RxT0RSdeXQjhO19L555KGfLlqQXaj+Hvn54hNnT0LaA28cXPjQD2+s/OcbK/954UM/PPDGQfSbcx9ofHBj56bBd94rby+/9grIdmzvpOJOnctt7Nz03Ttvv3769V+t+mpzy+PHT7/Ju7E0EsosSNl0TTb8XLycZenq7qq4bfrOQ7sQnI3NjWYZY5pgdjAblFHFM5WTqcxIxCOTVGNzoxwW0AZvci7XZcMssbhFKTiSDavUvFtYIyHfK4wZcxbM1NLeevjkYSRoaR2MZ8anSs2Gohxc0gJMMHJ+dAJBlpHzo2VuX2WXgi9V5abbBBMMdgNzbpQsxCClF5kNkzJ9eOT86L6+norbpqv0IoGFYlvJLlE+A2Hk/CgYY0okD3LMyPlRXiqyHO8XhnJACtpxopY9B/d+4oqMZ/y74cYb+oaOjZwf3fS7TVM/eJm8f/H7Lm5uefzsuyN+cytv/tKRE0dHzo9ufmELJj62+jHo/ciJo7d89RZJzfO8T1yReW5bR4yGKVlmiRjMxYgWuywIQrltGjw3tK+vp7quWnaCZxmZ7Ts2s8IxlZiiWbfjTDTByMNMAYp+S3sreVC3mB1UP5eW/TDcnEVzY98SxW4vyXaR7b+AFYWwD5883NjcqDqZRg+f7K1pqOnq7uIhlp+BoE+5NZesWk2AAYAsqqLgUtYVSW182+Vs3xg1g0IOs1qtk6nMqHTBNGLuf0zGomch5hN4EX2J/Yq4uRcCPzI/yDbwh5RFwQsspIiQghkRvAXGurq7rArs6u7iXDaULGm6TAS13PjFG+VxC85aDh/vve6G6zzP++SVn3y89ZfNLY8D4nz6M58+8PoBohbMrV9Q/8krPwlEkv3JQyZqOTny1szZMzHgin+44j/q/uNLX/7SlClTPM+7+rNX7z96IC4jlSyzmGUgLhFIJ15ZrNsOGVRWTKCCysxlssCowRCEuaZI1IKMsPPQrjmL5kq2VVtKwaWpUuQ1vxLLYYU14rVXYTyYs5B5lZbkpbQgp6v8i/wuZ2UqMyxR0LNfjuYsqfbG5kZpKa5bzqcv5Wlfqi6Whmn3gN2CWjE4wDG4sCykAtkkIsG3PGvhonyorQQs4Kylq7sLQMfq8IwmuZACQ9wbDJ4bsuZMpdiJfpkIaqlfUG/qpWN7J1DFmiefwN01Tz4B2LH5hS1ELZz74isv/u1H/tbzPPSos5bfPP0kqM2+/dsnR94aOT969t2Rx9asROfiXywxGSispzSZBcWbWbswVkNnJSeLCbnk9sWEJig8cxbNXdm2ksVGhiVkUXsdjGTGkUnNzDusbbLBtYJ1ZXKC8VyaDyMSNVly9goWP/pdqF2iB2iG201lQdii4rbpbVvXyxehAs7bFDPSBLgFHhqbG/f19cxvauA7MeiPaHG1Smkuy9++xesBD254DCkPG6IQjw5x4HgSbYycH5VZyC9FAGfQY4MxCniW0ESNl7cAJiRLUnwkGeyaEEEm4JCJiODGJOtQS+HvZprII9gvH1v9mOd5f/uRv33xlRfV3LPvjqzf/PSlH7h0ypQprU9deNdPopbTfzoz5965nMtV3v7j6f7cQN/QMb5Gw1sFN0qTWcyqXzDDARNjlMVajSQ+YFuWDQRepjKDSAaaYVSr+FeXLFdsSNRiSm2mAI7hngapavDcUGNzo3xjTiYLzmI9RvpLFK9g0RjtJaUopk3V0b5+De4R8TweD4/4nqw8o2JpQSNTmeHcru4upWdaH1LAhQibcOJy+GRvdV01iRQjb6Jzy9C+8coLg+Klt+ATTTqGZID+QPvKu9bjOj9vlFmobev6+U0NfElOoVszb6hExBdoKJF00XxRS9vW9Ty2MZdmIqIqrAJW11W3bV0PGU0iSmkpuEzkrEW9a8I3UaS+du3ffeVVV3qeV3PHdwbfGSJq+chHP3L99Os/9elPeZ73mWs+u37z02f+fFahlsF3hmbVzPI8j2/MvHnmRHvX5o2dm/C3be/20386I5cruF2CzFKag5aE3v5DzMu0ouoKNA8ZG5sbEVTtOzYj0qpqq7jnVvEm998IWqxC+gWjFrBEOiDOzZZ86025Daeo/oQuS+B7BXNuKk0ld1IGXunp24/3WmD3moaaqtoqpHumZkyRl+07NtM9cDfYBPDG8scrkKWc7UvzFdNARPNNJuB+CSCCiSPA5XGs3/iIWQjDWtpb4UU4yFnZtrKqtorQgQ5mBehzFs1V30MplqJs55TbE+hYV7Q6s3tCFNv/85nIIxS17OjZefVnr/Y878bKf3712Gsj50f95t50y00vv/aKQi0nR9669Zu3StSips+qmcWPj5RX5XtZgsxSmoOWJFALwoyQhce5bEDbsp4RmiB3oPghjBm98sATFGSUMq0QtSAZWXchZieTJumYMEUWTr8PB0zK6JHoJ19nU+NL4HtqxYiXxKAYLw0hQYbEmlQpn+PQSaRxTVtIM/G4S/EJfrh7xjDzHU81a9wvy9a+sWgGFpfvX8tgj7IETs76Tw/MWTSXScacGDELMfNIL8I+Cv7T1d3lx6HcQZkvfVuBBfhUvi3py4hA1IBDnBRCXo5RUiuyMmFKMdWs1FwmctYyc/ZMHnts7Nx04PW/vht79t2RzS9swXu410+/HohEoha+1/LSvh04jLn1m7eeHHlLPiEa+sOp2bd/2/M8vMk7cn4UH07PWzgPYGgCoRb4cYylLsA1Y8ySYFs+3Km4bfpfNiKHTx7GiwVIJfLsFCe6BA3kE9VL5ibGqty4kBTLGIslSbHR0t5a01AT/F0P6WAWi6hZOCVZWspMHBwWVyNGe8XFEgEBsircQH73jgKgrKxebgAzNJ8yBK2PYawouFSDUULoh7BddV21iSkVSzEqpGBS5WnfgsVRE/f19bRtXS+tSXBpWscEJfL4xK8SF5CF/PIttkySW2xXcAajUIv0JTVFKSEgS3AiWJLfAcnlOIyhZ2oPvz4Frvx0pRib0JeJoBYiD6Was++OrHnyCXz8fMtXb3mt/xAH8LCEc/kY6BNXZPYc3CtRy8j50cW/WIITnRWrVpx9dwR0Xj322meu+aznefMWzmMnlyiskXRmkcFZGIfRZ8UlC7IPD0jkHld9+4enA9sObDd/5IBPslG9VratZO1RbzOoz0NYt1j2lAb4/a0MYDNbkQ6mD54bmt/UgNcGZaaQxNUUeTgkh8XVjstecfEjcSdQqdxlygSNu1t2beGzf5lqgfxgkabWJnXkbipfvoeoTKBEa2xulCzhrtqLqynjeFmG9o1dG6Y15RLwAQkCeFdGPYZx34Ix+Wahjds3SidEm94C721qbZLM8JCY2yf1AYHa4ZgZSQYF2ObuSGoGMIX5iuuiOqxsW4m37uj8JEvNcC4b1GT6Gomglrn3/aBv6Bj/+nMDZ/589u0/nn546cP4xufa66/d0bOTA+R7LZh75MTRlU80A99cc+01hwYOK9Sy/+gBHKtc/L6L7//Rgo2dm37z9JP4+ZZLP3Dps88/G5epks4sJXs8lMQTon19PTsP7YKqET9403ZfXw8/5cBdmWLkJgZ3kRRUVsKtlvZWZhb2oOyZOQKryPEt7a1VtVXATF3dXf2nB8gYUwDIyv+alNXSuMRyPH2RFGJpJ+17BTM5eG6obet6TueZefuOzfKlZgwwyw831sATsk6oMsAl2LAiRfoe8K50JCuOIbXxbZStfWNUi6zNrLWkL32DnXjeIaPYzBhycPQspLaIssBLFyJxDpCHH/R2YiCyauYNU2QTtWBpedYiXzRmsMgHWySLue6sJYZviNR7LXhnlqcp6q7neY+tfizg7g8XPXD6T2cUahk5P/rUpt+q36wD5QXZhW//8TQ9r8hGopkFPqeydpEMB0xPQhZGu3qNQMY50pD6dEhGox9qCS45KkeAyJxFc+Xbf+rsRyrHRC1IakhGVizCKUwWiVowCXtJDRTZZvrmIZl8vg7iAHY8V1OYIzpq4WaXFYLMgw26E1ZEDVA+ySll0ihz+8aiJYlamAd4TCs9h8shDCX0xC3We45kI2IWgqsg36rsQQp0JD6RQdSTH8WGFFDRhLxKRk7HRPk1E0ESH3RKZoJRC1UhibAzZY1EzloULikYtVx7/bVrnnwCEMRELSPnR1/sfulr3/g3nN/gmyOOj8tOiWYWZFjGQ1w8+9GJVxbGuSzwrFJ/OUPCD71LZuRd9uOBDl59YJRipFmiOEtuv1D8wIZMIjzHwgCpZ2RGlVAkcWubdVoxhn6pB+v0fDvjtVe+qweMh7xKe0SNfLdJUuBdnnXBKPiVZKk6jJTGknSitEFZsRdlYonHlK19Y9SDjEeQZd6wGgiBL/2BzGCiukVqsl/mGTMLcXPCbAMi+D8BydBubG6c39SAk9ooDlkAauEv2UjEjy8VwCeZNFFLU2uT/JkAKMqhlsLPXehqJWjgZ1pi/I0WyXOaMktysqBO8DRFKpBtVCOkKuCJwyd78SUhHitIbOF3dMztmt+JiNzBqETDWov3bJAaeAxAPv0aTG2su2pk7NglOXspzgu+ZHkIUCN9o6u7i4kYukJGBhHsgPmZdHVddb5nkKBZ5ucrUtXlb1/JbWFtE7WAjgx2UoZ7qLDlXf5qnJ9j0NOseIjT+R4ekgy+2SFNeqaEIKTMp0KqgRWJh9RddYm1TM3QgakBP4XwCRGVI5fmdN5NWSPOs5aUqQbipCmzxCuLjBO50THdACOZFzDAuqnCSLm9MKkF91izoZqyr6+nqbUJnVIKlVxw6ZcBFc0kLuO1V1wccncbDFJZJOTmFTzwdWmyBJoPPvpgc1szd5+AuVajoLOlvVXCpgmXrMvTvjRKLA2zNpMsbMdgjx770n9k/AZnIWQGNQbTlefg3Pf3+7c1tzWT27ga6gkRvR1HKSpJ8lGRYjsuZiYoHYdaQs6T0pRZ0iTLBI23vNh29spLXRNusLPvhDOZY7gcNOBQi0MtIRooBzednDy4qpZuuzv7ptu+TrqENOBQS0jNTlNmSZMsCcVDWZF19iorc8TOjLNv7Cp1BCeDBhxqcaglRAOTIQzKU0ZX1crTLnFx5ewblyYdnUmlAYdaQmp2mjJLmmSZDFHq7JVuKzv7ptu+TrqENOBQi0MtIRpIyPMc2VANuKoWqqIJPcDZd0KbzzE/XhpwqCWkZqcps6RJlvEKmFKu6+xVSm2Xfi1n39Lr3K2YAg041OJQS4gGUuDlE1QEV9UmqOEisu3sG1FRbpjTgNTAe6ilwf1zGnAacBpwGnAacBpwGih7DXgNDQ25sWH3Z9VAmpSTJlmsxkpZp7NXygyqxHH2VQpxl04DUTTw3llLlKGTc0yaMkuaZJkM3ujslW4rO/um275OuoQ04FBLyCFTmjJLmmRJKB7KiqyzV1mZI3ZmnH1jV6kjOBk04FCLQy0hGpgMYVCeMrqqVp52iYsrZ9+4NOnoTCoNONQSUrPTlFnSJMtkiFJnr3Rb2dk33fZ10iWkAYdaHGoJ0UBCnufIhmrAVbVQFU3oAc6+E9p8jvnx0oBDLSE1O02ZZWLJsqd374y7Zuzp3cvY6NjdOaO26sjgUfaku5GovUz1Fq/M7IpsdkWWdAbOHK/N1q3asJo9riE1kKh95UKuXVYacHFRpDkcanGoJUQDfh52ZPDo7HmzJapQRcs6sWN3pyxs1jHoVGUVoR5xLigwOxwZPFqbrVNwR3GLwR27O3Njw7IdwGHSt5KuatkV2VAUuGrD6tps3cCZ41LY7IqsFYsolXbs7qyYWSE9RBKxtglMV21YbV3COitK557evbPnzVY+ICea/oy7qzaszsvrJM3gdtL2DV7d3ZUaUO7B1CHHmO2CvbRjd2emMoNsY5JFT16h50cklf0hqOVg36sP/vjB+Q80qL+Hlz587FT/zp5d8x9oWJBdsOfgHmqHU1qeamXn0B9OPfv8s7V31153w3Vf/NfKnzb99NX+13iXU6yrbPn9c+hvfuLxwXeGMOvlQ68syC6Y/0DDz1f+/M0zJ1qealVzcdm+tZ2rKB5+vOThnqP7edevkWhmQWxkKjOZyky++d2P4YD+eGUxs7wqWiYne3r3Vsys6NjdKQWH+Pwva5VCLYhzDouiNKaeI4NHl697VGoYt2TWkD2yDSkk2MJdxQku4y1v8drLNMeRwaMzaqukEtQYSAqLyMFRUIufloJVRNSybf/2GbVVHJxdkbUq3NrJWVIcVZbkLbRNf0a/Qy2mrorpgSNZDWftlBsJ6wB0EltbE4XfRKJ25R7S8/2EJSgPkCgguIKzpWQgSuj5MZnK/hDU8lL3jmmZaZ7x7wsVXzh8vHdj5ybcqbq16o3BPiiIU+6dfy96et88MqtmlqIx9bKpv2z9n1PncrmxYU5RY7DKG4N9VbdWeZ53+d9d3rWrKzc2/NboYO09dZ7nXTTloiefWZsbG753/r1qLi6XPb4sIg9+1k2ucsAvGTarNqyWZdWPn2L645XFzPLBcShjL1gKlXcqZlZs27+9NlundifZFVmmKj+Csr7KjRHwE/Nd/dJ6v7yGEghjYTm0zXwUe3mLy15g2E9As59alam8Y3cn+6VWeTQl6WRXZGFETsmNDROz+hkLY3giYj0hk3P9CCr/kYyZbQag9GfpHmqKaXfJUl7tuOyb16JlO3jVhtW0hckkfJhbGjVAOqe6ZV5a41e6Ol3abzk4qnp+bS6EnlUbVisXCrhkCZD8SOlU6Pktmu7+qKil4p8r5GEGzlqIWjzPe/DhHykIAtTy5pkT37vrDmCID1/+4du//72bv3Lzxe+72PO8qZdNXb/5aYlarKvkxoY3dm6aetlUz/O+d9cdb5458fSWZy659BJeErVccukld865U/KJsxbFw6yaWTP+bQZ5eG5bR4CNk8ssKucGh2UAh9FvxSWLyukzaqsWr1lihqLMQUrYKDzLsxbE7bb921nS5NONvPIC6qhEMGBG5jLZJqtEXda7ubHhskUtFCE3NuyX9awQUMLQgNMOFnKOp4q4HBxAHtuYDuPXQ/pSkIEzx+uX1kd//CTLgKRDOMXVWTkwLHazcvW44pEEJ25jT+/e+qX16kGkFAceRRuZDYmP5USzTefELYVxa7N11j2MpM9TFpN4QI8EH3KYlRpDCTFryosea2hI4qlsR0UtPDiRWpCoZeplU1H+eXCCKZtf2AKE8fXbvtE3dAzT129+Gijka9/42rFcv5oil0BbHq48tmYljl6mZaZtf/lFDMBZy7TMtJe6d5jTycO/3PTFV4+9igHkofbuWj54Mucml1lUIUcsBaB7k7d8e+KVRe5NwYmMNB71Y+PCAhO6gaZQPHyS9YkpRkIiTjEbkiXetfIgc5lscxYbuGvNI9ZnE5yYbyNee2F1aw22+h78ExKpkk8sIiUCqsN4PlCTuori2xKqSuJmGygqCk3MVSKYBE1/xhirxszpBfQkYd8C2Bj3KfAcBRYVV1YX5RgTEJggm/RBStV75R5qOfmKicweoWCLHKpzRNkviaM/39CT1CZDOzbU4nle5c2Vr/UfUhDkgcYH8CjnqU1PUaGD7wzV3l3red7Hpn38xVdeUlM4TDb2vvbyVZ+5Sj4GeuRnj+B0h2ctfqgFPHiet3bDhcdJ+Bt4+/iSZUvnP9DQtOJnA2//Py8bckxubDjRzKIODCJWYsleXu14ZTGzvCxmErWQSeSCKKUdI4EMZGXisYrc+pC+2bCWnI7dnYvXLJlRWwX6eOXFikIylZkZtVXLnlyOu+DcmvUmylmLFRaYndQ/RFbgTxqaOrcCShQkaE/VCU6UDdOp5F22V21YvbZj3YzaKukbvMsTfj+bSmtyFpeWPFspRBGEZAMa8cZjwELlfGvgzPHsiuzajnVEFVZu6ZBWi2QqMyohKI+lcekbyohW1MIxJrDIjQ3DT/w80JQCIqjxZicljR565lrp7omKWiRc8DwP74vwrOXWb96Ks5P7f7Rg297teBUGZy1+pyA/e+znoLmxcxNRi3UVGmDZ48s4AAiJt6zvteC1mFBMQyLWRtKZJd8ybGUyYme8sshEkF2RrV9aLz9ztaIWBr+5E5LJqGN3J3YbSGSL1yzZ07sXUwDsVGDzUhLJVGZQXFU6o67IDHuCG1YAFDylyLvx2ovMqISOI2gFJaGc5eseza7IyrMuELGiFhgouyK7p3cvTFYxsyJTmUGaBqZhZSLEkSbDm9rBLwjnTBl1oAAAIABJREFUxoY7dneu2rCaNSPgfQiMYe2hBtQxJ/qlP3Nkoo2E7Jsoz7ETh6vgKQleX1OuiBXN6i45sZ61SDrSuCClvIKoBXexq+EYa65AHPklHzg2HR7cmlnR7Ckg9KQqJkM7HtTyi+ZfPPKzR/CqyqLFjUQtQ384VfefczzPM09BCEGioxY+6PE8r+Z7NX95W4UWCkAtATxwekAjucyClMrQQh5nnASwVPCteGUB/5nKDL5/Vm/LWqORNUyJYFaXC6dQd83A+27ICyb4QL86oFIF1WSDS8tMhDImKyjaclGiFgJNc7yfgFw0r0a89uLS6mTFqiLUEorMuWgoJfPlxBl3zYA/+zkz+uV2k9UClGFTOUAtzWdP8BkJiaSxOEtamZ3Wl3joz1Y6Zl0ktYIbCdm3YH5KPxFvbQOJssAD/gb4QBQ+FTSPgloAsvEse0ZtFfnBMaryCjBpTdcqviS3yr3NvJcbG8439CT9SdKOilq+Mevf2zav59/Lh17BS7I4/Fj2+LJjuf5vzPp3noV4noezlvqF8zzPu+TSSzq2X/glDPydOpe7r+E+9vOsxboKpvBLIizBr4dwF6jlQx/+0LLHl5HJ9q3tQDZWHshMcCO5zGLuEc2eYN7yvRuXLKzxMrDZybol8UR2RbZiZsWMu2ZYk5GKXlSyC9X0//2VuSjyqoKqiiIoqI0+jgfMtVShspZwNSYKh9HHxGUvc0V6mvXUgeMhMi1rRWk4nP/hsh9iMFE4iQQ3TAMpC8rpshRJ1IIxQJOKAVUnVIHERAoo/Vmui1mqbqkBBVwmZ98CmCnxFBXy6o1UWA3fDGKkn++pfuYc6Sp4msMflwJxAg5mA86FuUEZ+UpiX0yfcdcMHA2aegtALXz1m7/+oNyV1KKHXsArzKSWskZU1BL8Ni4eGG1/+cVPfuofCVwwZe2Gtei5r+G+t0YHob6eo/uv+fw1nud9/gvXHnjjIFGLdZXc2PCpc7lfNP8CdL531x14wWX6v0w/2Pfeq7V+z6Gw3Jon15g87DvSc/U/Xe153jdnzxyX91rMDZ8K3dhdLd4sKbcv3I7gVTVsoZgFUJkO9B+Uj5CkdGYKW7VhtQx+v8xlFhJV8xRluajMRHItjlGIJE2oRX6YwPRNwdmwimx+iIRXE44MHpWlwu9ESi1nohZpF3ICO8oUjx4FglFRlFdIZOZ3CCQLm5+zoYwFIBtyG7ERbzxGXLQchplWsKY+GI4mlglHIQ9TKOmK0rgR32vBdPqY9EmkhQP9B/0eZVqTieSQOEn6sxwQ8JKcym9q1iS5jIpaau+pO3y8l39HThwd+sMpvtcC1HLqXG75L5dfNOUiQARAkNf6D1XeXIkXcufe94OnNj215sk1N37xRozB99JELdZVcmPDO3t2AQ/hdRY+Xbr/Rwvw+Q9Qy8emfXzL758jk4eP9wKOBPBw0ZSLVv8m6BfHk8ss8lVceBt3wAk5X7yyyCTC8CbnJlJBomEO4ki+12bWM55/gL4aoFAFCKqoDlhUZiLuttXWTda/iLufiVLVkkidslRI9cI01kpjohbziZXpXfQZqztJ10Ib9v1W/bfUT/7IkdKfZT/aVmczh+XVE2885rX0OA62AhRrp2JSehR8SUUrt0kSlHMMAzPUDyXMBQ8mUrFmJAwORS2Yizf9/X6sOeKGQaloklxGRS0AGfyv+pU5/pjbsVw/f1COByfPPv+s9afqZtXMOpbrl7/XQvpoYBX+2gqfCh05cfTmr9yM12jwubX1vRa+NZwbG/bjoeaO74AHP3snl1kQG4TbqCIRs7Aft8H98cois7yJwFCN9va+zB1JAICwpgAZ/NYB1kIC1MKNPt7cJPiQNRJJ8ED/wUfXrZBrUYeKPvIICGIMNFC/tF7BKVIoshGvvcgMHA86YQK1ipBv6iwYtcBP8LBJ7WIVDKUU4DxKvMgKJwsbSaEh/dn0VeUMam5hlwnZtzBmxndWKGqBRYKRhxRBuqLsDz1rwULMGJgL61/4veb/fWZtzUgYbE0muKWk4AvsikN31mIqRPbEjFrkuQhRS25suLt3X80d38EPu+GD5+X/8yhfp+VZixW1PPnMWpzfzP7ubD7K4Q/N4Wd5Q1FLbmx472svSx4++al/lDxIpch2opmFNQMbAmvlkMwU2Y5XFmZ5/rCKZA9313as4+/CmZWA460pQAa/dYAqJDw8UK/EYi7Km5xy4WTrfx9Oy7XIlRzM3RvLHskGyEVShTXitZcpArkCjsFXV+wsIHXKUiF3xqAJRdHJcQnPp1YxkoeOaorkjfqXnapN8Epwg1mmpOohAmub3FSoSqbWKuAydvsWwEOZTAlFLXCnDds2wnYBjhEqEXyAfojx3M+YGzD+1MrajnX0ASsRkiK4ITPMTmpdRoEZAvQ9EjEfzspbk6cdglriVcTQH04dOXH02KkL5yvj9ffW6GBePKQps8QlC1N/bbZO7YylWdXbkYhP1g850goaZCdX5HkvGkgiyAjWIMcq4GT5ukdrs3Uchk7ww7Jtpc8ahoxDZigLUw+JS+kKbsdlL7JHhv1YUpu/Is9alDJxyfcQuW82mYGGZ9RWBfyMB8ZYJaI1rXexHKsI2ZD+ZrKkIKw5oICeuOxbwNLlNiUYtRDFMhKtrhX8f3MjhFU/7kJv8XsrH7pSXzbB/RQEwUj1iBPrEu74aR4OSeySb+j5kU1lf0lRy0TUYJoyy/jKYqIWvzwCP5FVxJoj8iokWIslSu1a5Fr0Uit90LGiE6Q/uQRJFdYYX3sVwHNeZy3B9GFx66EIJgaglmDK5l2uZZYWljR1gGcSKaBnwtm3ABkjTglALTwFiUiqNMPMjARYAzhlzQ+lYWwyrOJQS8ipT5oyS5pkmSTBORnEnLQyunictKZ3ghejAYdaHGoJ0UAx7uXmFqMBV9WK0V75z3X2LX8bOQ7LUAMOtYTU7DRlljTJUoaxFDtLzl6xq7SsCDr7lpU5HDMTRQMOtTjUEqKBieLK6ePTVbX02VRK5OwrteHaTgMRNeBQS0jNTlNmSZMsEf17Qg9z9prQ5gtl3tk3VEVugNOAqQGHWhxqCdGA6TSupzQacFWtNHoer1WcfcdL827dCa0Bh1pCanaaMkuaZJnQUReReWeviIqaoMOcfSeo4Rzb46sBh1ocagnRwPg66GRe3VW1dFvf2Tfd9nXSJaSB91BLg/vnNOA04DTgNOA04DTgNFD2GvAaGhpGzo+6P6sG0qScNMliNVbKOp29UmZQJY6zr1KIu3QaiKKB985aogydnGPSlFnSJMtk8EZnr3Rb2dk33fZ10iWkAYdaQg6Z0pRZ0iRLQvFQVmSdvcrKHLEz4+wbu0odwcmgAYdaHGoJ0cBkCIPylNFVtfK0S1xcOfvGpUlHZ1JpwKGWkJqdpsySJlkmQ5Q6e6Xbys6+6bavky4hDTjU4lBLiAYS8jxHNlQDrqqFqmhCD3D2ndDmc8yPlwYcagmp2WnKLLHI0tjc2NjcOF7+OqnWjcVeE0VjXd1d1XXV/acHJgrDxfM5gew7Ca1TvH3jpbCvr6emoab/9EBLe+tkixSlSYdaHGoJ0YDymH19PRW3TW9pb1X98rL/9EB1XXVXd5fsZNTJzpHzoyohDp4bmrNoLuaiLddqaW+VlyTV0t46Z9Hcwyd7q+uqzQGNzY1zFs0dPDfE8aBshV8Klpn8KLlIM/ZGOVQ1U3VW40J2ZUp0Kn36aQl6VmYyB5vUpIHM8VaWzGEj50f7Tw/UNNTs6+ux3k2isxzsG1GuKNaxOkYsUd/V3WUNVRj38MneOYvmmgNM14UU5siISlDD/LhqaW81l/BLXIpmwCU1efjkYSThIhORqR+rBQNYGq9bMaCW3jePPPTTRQuyC9XfIz9ffOLsyZdfe0X1Z3/y0PM7tr79x9NK5o7tnRzZsb1T3jWJPLZm5cG+V8++O4JhubHhlU80czobD/10Ue+bRySpfNuJZhZEUaYyk6nMlAA+xyULIIIEAUqrslRwMKMuYPDI+VFZhNCWKGTnoV3VddXWpICCZyYma4R3dXdV3DbdLFFydfApe2Qbd2Xmwl1YU/3XZFgpwXoZl73IquLKemmmwr9Y8/DJXnK4r69nflOD1fqNzY3SWPlCgX19PVW1VaZRuLTMqhxsGoXjcUuxxLuqQdQSYEdozFSRIhXxMl77Rly04GFUuB+F5KJ+X1/PnEVzTUQrV1Q1OK+o7+russaC7DTzM7hS/X6JRSauxuZGSVm2A1wrQP9R+M9UZkzi0UPbz+jj0h8DatlzcO8nrsh4xr8bbryhb+jY5he2GHcudMy+/dsnR96izLmx4Ttq7+DIO2rvyI0N866VyJQpU+6uvwdEBt8ZmlUzi9PZ+MQVmT0H95JOAY3kMgtSMOtZS3urtY4WwLPflHxliRgMjDpGBauXrCihqCV0OdBndZFiEhvJTrTNHDFn0dz5TQ1kGw0oH8kOPdZhnAXDQUAJmKgEcmLde/FuQCNfewWQMm9Z1chhLe2tlFQ2urq7zFuNzY2m7aAfs7+6rrqnf391XbUkG9xmjHR1d7F0UavSx8g/GubqaiFZcvwUIhdV9Iu8TNS+BfOGvKQUFXBJ6yQa9VYrS9Si5M0r6tVc89Ivd4ErasAKlUjNKoJ514yvKMonndCtgh99v9CWlMukHSdqufGLN/KQY0F2Ic5aCDiqbq1ekF04974ffOSjHwGq+NVvf0UtHHj9wKc/82mijU9/5tMHXj/AuyRyxT9ccf306z933ecuft/FGLwgu/DtP54mavnoxz56b8N9ZKOcz1rU40kVAJQ9xkbBWdIvaK1RKvcEEgSo2JuzaO6u3t0Vt01nP/bEMrbRtu6VQ3MrZpFDKQL3Q2ZBMg9yTX4ULuEBgBwprcb6KjujtAu2VxTifkU6eC6FxTAWKqVJiDx4bmh+U4M8O1Flxk9j6GcxwFrolE5Cz5ENQv9QAcmz8lJSwLocFqyZAu4mat8C+FFT8rJOaaIeLElzqzZ8Jt+oV4KblzJ7jJwfVQ6jeOAlEbb5WBNLMHzUGbPJQCgWkVNCPV8OZtsvtDmgfBpxopb6BfWmYAQcj61+DHfb2tcDcLBn5Pzor377K3R+81vfRENiGpPI62+9MXP2TM/zLv3Apb976XmiFhzwmGwU3JNcZlFHmiPnRwMODArmX04sWBa/MFBFCGs1Njcy78uwVJFPxhQRmStloeJ4s4F4Y47gADWdpXTOorlEQhJS9J8emLNornoh1ORHoRa1HHOWbKgCzCnBjYLtFUwWd/3MwbnMYlID2MJK6ABtqNIOrUrdgqyy9cj5Uekh5tLswftPmcoMlpbLSfbkeL9SwTGSCEoRn08FHNKYbkaC+TYStW++zFjHR7dO6aMedpenZRAB/SrArZ0UGXcDgjQ0WCRoI1k2/FxRqhc8MJpk9sDDHb8kzFXYCOU2r9Am2fJplBq1nPnz2WWPL/M8b+oHL9u68723Nfl46Jprr3l+x9Zrrr3G8zz5kMhELSPnR3/30vOXfuBSz/OyP3logqIWFXKNzY2qJ15HKSZLWgPP7ES659MWlgFUBbwDr4QyK5kawEvWEpVfcOZplhP50gmJBLyW0dXd1dTaxIcXK9tWyqMglUeq66of++1KdIIfmXe4HMCoYljeDWgXY68AsrilarYaj7zG1I/NZdvW9XMWzW1qbYI4Mo0qai3trfObGvAnQZ4aZr6LTd5UIIAfoBZVgaxqx/PWqtoqZTXiHiwtfYYncIorib3i3Vckal9l0MIurbFpdiYa9TzYkMYiilV+gn4z3AKinucc5iwqLRQHREEt9GHTJytum77z0C5+hSDDhO7NRijDcjpFYCPf0ObE8mnEiVpwRsL/4iiFgAMPd674hys8z7vplpte2P17vkvLx0N31N5x4uxJvOAiHxKRiDye4ax7G+57a3TQ+l6L9fgnL+0nl1kQjQwVRL4ZhHlxGzy4GFnMsDR7EA9tW9fjWwwFGvwin0kQYWmGNHpYQWUVIRhqam3KVGZUXqM2zEcVvCW3O+jMtzIpfki5+EYx9lKr+z3MtmobEkm0AT3jJVzaSxpUJUrqRDmJGsb8S+Nae3AkA4jc0t6qjsRkNofUWBRlQFJWRzuKGRwjAXBTRjUlX99QVlCXMdpXUY7rErqVOjR7ShP1ylhAzCvbLmwb/HJm9KgPzjyIEb9VoGrl50r/5u4OmxmJoaUbS2FlP5OVXC7p0FaylMNl6VAL0YzneVOmTJk5e+brb70BFfDxEJ4K8XLNk09ggBW1vP7WG9fdcJ3neXPunXvi7MkJh1pQCbibn7No7sq2lcGxUaTHFJklZeyZyQviNLU2yS24ZFgWOdnPE5SVbSu525CxqtZiRQQRvAqKcjK/qcGqwMbmxpqGmpqGGmuRRiefasnKxH2emijhEfkJTh8y9UvxA9pF2iuAslKpdaQEBxKAQid4d09hbqkleYtGkbrlohIiWJ+TDp4bamxu7D89wKzNuUQ5CmOxX6ldUpC1AcJW1VYhBtu2rgfPUJTVNyQPhbWTs29h/FhnhVpnX19PCaJeGgtO0tLeCt6aWptoIClC9KiHlemxkgjaMncFHJlI/0cbiUJmThAE5/JRNXjgEyJmGNnPVGMSJM8Yr9yed9HIK7TV3HK4jBO1zJw9c2PnJv7hdVoFOM6+O/LMcxumfvAyz/Pumfefp/90ho+H3v83779zzp0LsgvvnHPn+//m/Z7nfffO20+dy42cH1VEoLjdB/Z8/BPTPM+7/8H7+YToyquu/HXbr8nDrv27i9RyKTOL+aZLkcyr6UXKIo8WA1glajFf41dR/evnfg3QJisE4lbGqopDhq6scCyH5qdYYMOsalCOKmOSw8bmRrmnoTLNBGrmOzWGc/NqFGmvgLVYiqQy1fj+0wN4RobBUoGwvvxJHiWvJAvzQUU0k1qL7iQf06gxPPYgzJXGkm2spdwG1KS5JTMt7a08I0RJgE+quiinmOzl25OcffPlJHh8FOskHfXSwei9sqG+7I0e9QS4ZhQHq4V34WlW5IQxCmTQyaU3gghRi/RnigYltO/YzG0AeWCDOpExyLto5BXaam45XMaJWqyPY0zA0Td07IYbb/A8D2/O8kGPPIxB+8qrruw5st+KWs6+O7J0+X9jWFv7eqKWCfQ2rjK/NcmqMUVeFp8lefbArYDJEvOXuiX3K/IWwwwaUOHKS+4eGI0SUshyQuDCbFJVW4V0YD7elokDXElScgnyLBMokJOZ79QYzs2rUby9rMtJT6MyrSMhXaYyowSEG0gfUPIqsjS96ueiNH1A6idq4Sw0MFeCKtlPt0GnNDeZwdazp28/f2UOPomfLwMFvHPW1NokpVac5HuZkH3zZSN0fBTrJB31dDDsnVjdWb+BZbu6u8BtxW3To0c9pignN9WivvrkALh329b1fhQkaiFkUf4s3ZjCElExfWGbZ3o7mAEReCzdm3yqBs6GFc9maKtZ5XAZJ2qZe98P+oaO8a8/N3Dmz2eJWpYu/+++oWOvHnvtx0t+PGXKFM/zqr/+tTfPnFjz5BMAH1+f+XV+sfz1mV9HJx4Skci9Dfdt7NzU1r6+5o7vgMgtX72lPzeQAtQivTkhzyg+SyIqMpWZgOpSZP5CQMoYlqFIlCCTlzx0geoQ9lt2P4dvgvjgCZlCFh5ZxjBXoRY+wiN+Ui/QIDsQz8lhsh2gMT9zF28vK2VunalMOUxmWL7zqJg338GSedZKlrpVWZJL8/mawhkcoLI8+6WrsJPpXpoAbdJnWt/X19O2db30W6AWiVH4XEA6j1yugHZC9i2Ak9ApodaR2pPUCFhlp3zfWZrPbNNYcDDgS9lJ1MJX3DZu35hv1GNdP88k5zIzsBNzwRKeVvMWG4wp9b2FTD5Sdk5UDTgh+eR+j8OSCG0SL59GnKgFOIP/Df6VuSlTpjS3PH7qXO67d97ued5HP/bRHT07qRf+ch0eEhG1kDgaV3/2avyI3ERELf2nB5rbmiEyah6jkXqIt1FklpSHrshi1gyedP5CsVE/rGJNKNCeSgfqHT2ZODAepA6f7G1ua45+1oL3PEABGpjf1OC3JYpo1iLtZa4CVUirsXJzsFQIkbTMtoAs7Ts2y58rjYhamL65HIERcjECQYEkDpa8sVPZV/UHxJSSXfqtCctANsDNuG70Ruz2jb509JFQRah1pPYk8XhRS/uOzazZEvrIFdFWXhEc9RgsKZsEAZrVGBVQaitFInB703mkPyuGGReA2hW3TQdGkW8fSwdWnFh3DnK56KFNKcqnMQ6oZcqUKV/68pc2/W7T2XdHeo7sv/KqK3nuQr2cHHnr1m/e6nkeHhKZqOWfPn/NT3/2yPHTb2LKREQtyi+LrHBUXUCjsCzJUwSzAADHqBqTdP6SsUphzYzAW2Y64C3r9r2lvbWqtgppIgpqgRK450Pmamlvxbqm0uTqwe3C7OVHE3ZUaVfpTepK/gIHZZHIFZ0QHLVNHmyohfAzWfL/EoXp6uAKzJOa0p5MuxRT8szOKA1FTfqtuYsFQaWuKKsEjInXvgELFXArX+tI7cnl4kUt6v8j4WcmnrT5JVVlevMIVoqANsJHEkSkyz2A6eSYawXr0DA9nG7MYy0ZQTJ4uYWgFPIuOVe+SvoQlkmbbPiFNgmWTyMG1FI+wiTBSTlnlnzlzVcWvx2nWhcxwzAoMn/JyifbCG+GtEoWiiV5KcNV9qPNyOctLIHlIJpkA22uLokji5lfM5rvhXCt4Ea+9gqgxnd91BjyTBkhmjxq5hTrc32MxMM4FhUiS0UfxNkpawBXYQO6lfo0jRVan0hNNWBZyYD0W79ySLkUtcIuY7RvYQxYZxVmHak9STYiaqH7qQbCkCiWewO5hLUtA9McYDqSX6RLfiSMQI0n5pBLYGnmQ/OQhklMigO1S4ckTdNX5U4p6dBmUJOfcW841BLyfzwuz8xSmN+UmyzMFEgHfokG/fzQsf/0AHpkQjHbzAgmWTldJhdoVWa0KGctmIVMJPMabQQxzYU4wK9Rbvby43NC9LMY01VUyZF1V6EWVk1+zRGLyJPTvvlGvYxBVGta0GwwyvKN+ugGBf/WSJdEMAxZyHrWgsHStbgXknRc29SAQy0OtYRowHQa11MaDUzOqlYa3ZbDKs6+5WAFx8OE04BDLSE1O02ZJU2yTLhIK4BhZ68ClDaBpjj7TiBjOVbLRwMOtTjUEqKB8nHWycaJq2rptrizb7rt66RLSAMOtYTU7DRlljTJklA8lBVZZ6+yMkfszDj7xq5SR3AyaMChFodaQjQwGcKgPGV0Va087RIXV86+cWnS0ZlUGnCoJaRmpymzpEmWyRClzl7ptrKzb7rt66RLSAMOtTjUEqKBhDzPkQ3VgKtqoSqa0AOcfSe0+Rzz46UBh1pCanaaMkuaZBmvgCnlus5epdR26ddy9i29zt2KKdDAe6ilwf1zGnAacBpwGnAacBpwGih7DXgNDQ25sWH3Z9VAmpSTJlmsxkpZp7NXygyqxHH2VQpxl04DUTTw3llLlKGTc0yaMkuaZJkM3ujslW4rO/um275OuoQ04FBLyCFTmjJLmmRJKB7KiqyzV1mZI3ZmnH1jV6kjOBk04FCLQy0hGpgMYVCeMrqqVp52iYsrZ9+4NOnoTCoNONQSUrPTlFnSJMtkiFJnr3Rb2dk33fZ10iWkAYdaHGoJ0UBCnufIhmrAVbVQFU3oAc6+E9p8jvnx0oBDLSE1O02ZJU2yjFfAlHJdZ69Sarv0azn7ll7nbsUUaMChFodaQjSQl5d37O6szdYNnDme1ywO7tjdOaO26sjgUfYU2ejY3blqw2pJZNWG1dkVWfTs6d07e95sc7kjg0dn1FZlKjMduzvl3BK3S1PVFq9Zsqd3L0UbOHO8NltHwaW6OCY3Nrxqw+pMZSairbMrsqZZV21YbXbKJSK29/TunXHXDCmCdELZjkiwZMNKY9+SiRN9IfhYROcxyR4ZPJpdkS04yZgE8+3xyxv50ok4fkInsYgy5jWscNRy4uzJ5f/z6PwHGsy/nT27yMTh472Lf7HkK//nK9fdcF3N92raNq9/88wJ3CWFh5c+fOxUP6fs7NkFmjt7dh3se/XBHz84/4GGlqdac2PDvNW+tZ3j0eAt8rP8l8u7e/edOpdTI/O6TCizWJPpnt69FTMrMpWZ6PWgHGSRPOzp3VubrauYWcEqkl2RhUT8r1+2Qi5TIEMSR9skSMpskMi2/dtnz5tNZlBu/VALwQrxClgiWTZiKbemaKonId+TqwycOb62Y520SDBqAViR/tmxu5NqkQ2awDqgfmk9XZ2zFi5bWJut42WmMrN83aOqh3dpRDOUZI9s58aG9/TurV9az4Ln50tSIVJd8bZLYN94GY6LmkItiDs6DFcBrm3rWi/zSW5s+Mjg0fql9XAAmTPpG2yQJv2Wt6wNgHXlFaYzKNQi84aVLDrpsbmxYbWEdRaZn9BJjNaMsVE4ahl4+/g3Z8/0bP82dm7KjQ2fOpf79frffPjyD6shM/5txmv9h3Jjw6TwhYovHD7eS6k2dm7ClI2dm17q3jEtM83zvHvn35sbG+atZY8v43g0eEsud9GUi+bcO/dY7q+QSM0KvYw9szDMVDCgH56KMJBeHspnlAGxy+K3aHZFlsxnV2QZfrmxYVlF/DCBNYZV5rIujQKpFKvOb+Thgco+oAnlI3+pEo4B1llWforsHBd7KZGluijOqg2rqWRpUA6g0enV2RVZTkHWxg7Siv84XTIj1S65kgVg+bpHTTAEd6L/yIMfLkTOlYvK/tjbJbNv7JzHS5BOIsnKIzTzWI5BKr1CToePMfNIj71Qev7fA0UgoRm1VUQtfhOxRMCiGGD1K8We32XKkpifmMX0x4BaLv+7y++uv4cnHPMfaMBZy3PbOqZeNtXzvIumXHT99Ov/o+4/PvmpfwSk+N4D2w9cAAAgAElEQVRdd7x55kRCqCXz95nrbrjums9fc/H7LsZy8x9oeGt0sDA1xZtZGDwqiSPGZFrv2N3JPFsY5+aseGUx6Zs9ZnawFjlmDSYLk1RwDxayamzgzPH6pfV7evfK8mYCIz4TYUK0Zjfs163PlYI5LOBuyeyFE4gD/QfxXMxUTqYyI+EF3divxiNrwyi06aoNq1dtWK1KlAS4VBGTvvQfWSqIWo4MHq3N1qlnfNLHZBv0JVdciEv7SSQHxNUumX3jYjghOsolsIp0DGky8gAfkF4hvSVe1FK/tN4aFDyUJVdknm6vbgVcgv+UJbEAeQu+FQNqUSclYOXNMydqvlcDyLL8l8vxmOZYrn9WzSzP8z704Q917epKCLXwGOa1/kPfmPXvnuddcuklm1/YUpiOEsosCrWgUkpHt0ZyYSJwVkKykP6RwaPqcYwSEyUfu2EVnHIHTIIRG9id8HQneBYLnok/zGcZG7ZttD6hkCU8eLli7iZtLytvKvVLdeGWTN+12boN2zbKHrbhzKZKOUA1JGQnmDBX5CyYG0hICSKRimyrYShsJCgbkhlzVlw942Lf4plXqQm5S2pMRr18NMP8BrNiitpLYIw8aAHDEihLEYBa9va+rAA3/JYrqunKyblriuWsxSQuGfZrpzWJ+clbTH9SqOXlQ6986upPeZ43499m9A0dI4tbd3bhVOaF3S8kjVpyY8ObX9hyyaWXeJ73QOMD5CGvRkKZRQY2azm3+4yiiJU4okQJycLVjwweXb7u0UxlBu/K1WbrZC7jMLMhU5ssHmxLzajpZoJTA9SlLMNyo8ZhSB9Y0ZqArLM4PcZG0vaysqpElurCeAygZa2wgLDDetdcVw3jdMmMVDu4GjhzPLsiu3jNEvhJbbYuYE+cqcw8+OiPOBKvtnAhyZJiRt6Ktz0u9i1eBBiFqQkghjged4lZiRvMsKILKRiEl894FwwzzImDwYD0Cukt5lkLk0lAg6hFjqnN1h3oPyj3Y3JRU5/m5s0co3ooner3u5RRaWXG1LZKodZZfsuVW38MqEW+R+J53jdnzxx4+7h6H8UqNlGLosDLwt5r4VlLbmyY4Onu+nsKey03ocwSilpUarAqMN/OhGRRbOQbgQgwdfRCmvJ5DTtlI2A5JjiZAUMDHhBKBblcsWTtEtiLO11WF5X6pboguLm3DlVIACpVdic/KBt4Gxe2kHlWchXqIYq9koESta55WQL7movG0iNPRi+8dHLXjIqZFTST+qQLK8qEhjaj0kQt8vEQpisr0wHgFUSuRBszaqtqs3X06uLPWiRL0hXBPNcNblBkZYUUJzElaSyXSaGW3+/ddvnfXc63aK28lgC1vNZ/6PNfuNbzvNq7awffGbKyEdyZUGZJMWqhPpForGHMjRpe38ELs9aR6ERCJAoJGMlbLIdIWNv2b/d7TxNTkFCQTzOVmW/Vf6tjd2fAihSB8sbeSMj3FJ8QGY9aqD1rgxvoC6+53DWjfmk9XiuxDqb+1XdbcnW/XSmPQGgOcwnqX9UzhXs4kTCUqCXAuDgvlKwm0S6NfZPgXL51l12RBbike/DchUszFcgoYwlXqIUOyel8w0yiEPOsRY43z1q4HKnRJXi2jR66nzz1UUgl4M02hZAUV8FeR3dFg0E0cZOYEj+WyxhQyyc/9Y9r1j7Rtnk9/p7fsXXwnaFd+3f//f/3957nfffO20+cPWnllahFUfjxkodx3FL8WcuLr7z0sWkf9zyvfuE8Kw+hnQllllDUgjhnag7lM8qAhGRRS8t9g/p+Rz0LYyLwq14qm6iFcCmXsw5QSURekgFOvMDw/904fqv+W0wZuMvtHQcn3SiNvVSRUJdKatyFcmbcNUP6Z4ARo5+1QKUsG1gOtUQaC1zhLhM97CX3xKAmifi9bCuJJ21W0i+NfblcjA1kp1UbVtPoDCupf9p9Rm3Vgf6DfGQMixBGFI9aQNz0BBPlQAnKJVSeoftJ1CJhUIC3EEMHjDENkeIkZgpbfE8MqMX6Nu7rb73xr1/5V8/zpmWmbX/5RTB66lwOiOSiKRdt7NxE1KIo8BvmIlHLqXO5R372CADQ2g1rC1NWQplFoRZmATJp9vBWwY2EZFH8MH+hX2YxP6GY+xQplU3Mu4BB1hNpDpb8IFsxl5mZBe9J4BtI9aanqt+kn1yjNPYydSL1qaSGxhavWYKH/fL7nQAjKiKhGpNlg4NNY+EW6wQupb+hR5UonrWQsvletryVXLs09k2If+iZv38D6wA9EGVWzKxgrMEK8Z61dOzurF9aP3vebKyLteiH0ov8TuAIdNAIOGsB3g094GG28XNXqznyQi1mwKqDn7JKYlZ5i+yMAbV87rrP79q/+/DxXv7hcOXRVSsumnKR53n/9Ll/an7i8bbN6+f9cD6+Rr75KzcfOXG0GNTyyM8e4XKHj/eeOHuSWOfu+nvaNq9fu2Ht7O/OBgNYrjBNJZRZFGqRIQ0+5RlsYZybsxKSRS6kIoqHsbXZOjyjYRaTs1B4VAaRl8gmcgrbeQW8GqwyCy7xPQJW9GNMHcOQmXgbJbAXDUS7MO1CFgU4UAnkGO6npb3UExa/MZzC1bEo603ASwN8DGGiFpKVDboQUEvwZ96YyCnxmpXUSmNfLhdvAz6wfN2jKOSwwvJ1jxLy4lEIdYgBUVALTjXkMZ65ewEKgZ/w3X+am6du8Cu/pETeFH26nzproQJV3mC/TNrmGPPgmRNVXmI/GzLi1GC1ULklMYoQYyMG1MKXZ9nAr8wdy/XX3lPHTjY+fPmHn97yzIV0+b+/U1fAWQupobGxcxNRi7p11Weueql7R8EqSyizKNQCIJ+pzCDMEOEqlRcsAicmJAvpB5x8IMv4ScTtkSSFtqpJ5gAVw+YABjxIyWyoAh4vsvitqOq3uVDsPSWwl0ItqtKoV1IGzhxfvu7RgTPHqVIpcoARg1UniwQIcmcsHUYZi0vTXms71uFXeaSJKSBLFFDLtv3bF69ZAiKoaiYbXCKhRmnsmxDziLsZd82gYrMrst+q/xaf+8hwg4b5k8q4tI4Et6aDyTDH9I7dnaohvUU90OHLwqDPiVQOvQgTCYDIM0f6ncyt2rBabmZMd7Ue8oGslE4uxDYVIrXKufKspdySGEWIsZEgasmNDb955sTjLb+8+p+uBpK4+H0Xf2PWv+997WUIkDRq+eznPvvjJQ+/MdhXjL4SyiwmaiFwQcCoCCxGBM5NSBbSR8AzGXEHg503982maAEFL+AW1g0OeAQ59uWMfDJsZhbyzFzMwcGll8NibJTAXvQ6bliVdaxSm5qE3uTXoVIPViIcQLiAWmKtE36lgvZivQx9QoSDHxYYLAqgY84lk0k0SmPfJDgnFuSJFx1J+o988xQ/fWQ9a+FcbtvMoLa6nLWT8tKvzGRrRS30Xk70O2tRpyagJlVh3b8FRIEpL6Wgh0/QJCYFiatdOGrJi4Njp/qPnDha8A/U5rVWvIMndGZRqkhaFkAEpC3UBhXJ4Ac7aZYNa8EjxPGrYfKhg9pbU2q+5Wf+IjjHmA3uutCQuy7ZlvybRGLpSdpeSMoVMyu27d9em63zU6MpC6uFtIJUDtokGDyMtUotFKx/PoTCMHoaz2kUP4ShrEkESeST+2yJvBVXMV6WwL4xcltKUjANAZC6BCd+lV46QMfuTuu2BwRxlz9PF2p0SZm8McmY+pHjM5UZM2PIuJBOKEmR/gRNYlKWuNolQi1xsVt6OmnKLGmSJYon7Ondy6cAEgapeoZL5iyilihLJDqmBPZatWE1y7nMoVYVMVMTtSQqfkTi6sDMPC9hiZIEcQxAo8tbREvUjLwbY7sE9o2R2xKTkqBEnW2UmJPxXW6iJ7EktOdQy3CwWtOUWdIkS7DV0nHX2SsddvSTwtnXTzPox+lCW9d6v//dT/B0dzetGnCoxaGWEA2k1fXLXy5X1crfRsVw6OxbjPbc3EmrAYdaQmp2mjJLmmSZDBHr7JVuKzv7ptu+TrqENOBQi0MtIRpIyPMc2VANuKoWqqIJPcDZd0KbzzE/XhpwqCWkZqcps6RJlvEKmFKu6+xVSm2Xfi1n39Lr3K2YAg041OJQS4gGUuDlE1QEV9UmqOEisu3sG1FRbpjTgNSAQy0hNTtNmSVNskgnTmvb2SutloVczr7ptq+TLiENvIdaGtw/pwGnAacBpwGnAacBp4Gy14DX0NAwcn7U/Vk1kCblpEkWq7FS1unslTKDKnGcfZVC3KXTQBQNvHfWEmXo5ByTpsySJlkmgzc6e6Xbys6+6bavky4hDTjUEnLIlKbMkiZZEoqHsiLr7FVW5oidGWff2FXqCE4GDTjU4lBLiAYmQxiUp4yuqpWnXeLiytk3Lk06OpNKAw61hNTsNGWWNMkyGaLU2SvdVnb2Tbd9nXQJacChFodaQjSQkOc5sqEacFUtVEUTeoCz74Q2n2N+vDTgUEtIzU5TZilbWVraW+csmjt4bmi8wqA81y1be0l1dXV3Vdw2fV9fj+x07SgamBD2jSJIasYMnhuas2huY3NjaiRKpSAOtTjUEqSBru4uFcONzY0t7a1+wdDV3ZUv/kCm6OruCqCZqcxEJFsAA37rjnt/8VWtpb0V5gtVcjHCNjY3Blin//RATUNNvrCGnI+cH21sblROWAy3ec3t6u7y83bI1dXdVV1X7TcmeK3i7RtMvzR3C7Cv9Mb+0wPVddUB4a+kwPgAf1Pj873c19dTcdv06PxgfHVd9ZxFczlLJsmW9lb2W5mBRJnKDP4K86XBc0ONzY39pwesSyCaWtpbq+uq/cZYJ5ZnZ4Go5eXXXlmQXWj+rXyiOTc2TFFPnD35yM8XY9gjP1984uxJ3kLjzJ/Pdu164e76e66ffv2XvvylJcuWHj35uhozcn60Y3sn1+rY3ikH/ObpJxdkFz7000W9bx7pffPIQz9dtCC7sGvXCxxDHhRvHBDcSCizBBTXfX09NQ01SfhWYbLImoQQZYDJBoLt8MnDjc2NiI2W9lY5wGz/+rlfV9w23exf2bZyzqK57GfFQrJjf6Yyw1s0olRsALeSCNoVt03/9ZZfm/1+PYz/xuZGvzHsL+w0ojB7URUj50dZ+2WdkAPMjNnV3UW22SD/0VVK/ciqZloQSyg7Sm7ldMk521H0n6nMoHIoeSmgapD5nYd2+YESMgaawZWJ3MpG8faV1MarTT2MnB+NaF+Z4mTAhooA+vObGuYsmmut7jLnVNdVHz7ZKzMJrUx/i+g8mcqMWo5hQleRQhG17Ovrqaqtat+xeeT8qJ/vMbgg/uGTh9GQspBzswHGBs8NNbU2kRmlSeaBdJxqF4haNr+wxbP9m1Uza/Cdv57zd+164dIPXIqBl37gUgkmRs6Pnhx56/bvf0+RmfrBy9Y8+cTZd0eo99zY8B21d3DYHbV3SGBUv6De87xPXJHZc3DvnoN7P3FFxvO8z133udf6D4FC39CxG268wfM8xRvpBzdizyzM++Z2gW7t53zBrIbeLVgWBKGsJdgBI2Agkcza2BwzVMAYdqUKjYGmygjWTuZELmTdgkdJghKHhSpNDlAawC3FhkziGIDMle9hw8j50QLsxWTK7IYEDc7ZiUZXdxe5pWimmThm5PyoTM1SM6oth8npXEWOV36iVgnI3aw9kpr0TNVvvZTsWQeY7o1hoROt1GRnAfaV08ukLfUQ0b60uNUt6aWMdEiKwUibfkYhZeSB/tMDJr7hmOiuQhSidK6ChamA49kAaing0FGuKDmX/Wz7ZbbQiaQwIRrFopaqW6t5CrIgu1CdZ2R/8hDRhud52Z88RKW8/cfT8xbOw92PfPQjs2//dvXXv3bx+y72PG/qBy/buvOvzwsOvH7g05/5NOl8+jOfPvD6AdKxohbP8+6cc+epc7mR86NlhVoIdU33YgAkd45XTJbEpoTwAlkDZcOUBdaRoWJNZyPnRym1RBsYzLVoa0WksbkRuy6mOdlQOxgSMZ958VZoQzGA8UxVuJRJHD2lRC1KBJrAyrnMpMQZtAhJmRJZJZUWxAAsSqPMWTQXVYQ9bCj8wVyP8f2nB0ziWMJEaaSpGtV11T39+6vrqlV/wCWr5uGTh5Us5iw/f6MazUYx8WhSK32P0klE+0p3YjDS4n5SYEcn/QQpSGUJOjwIgkO/MWotzjU3SGokL1Ww0F2x+r6+nvlNDXxdTwpOCn6NALBu+h43wIPnhhAs5hjZI9Xox0A59xeLWh5b/ZifeANvH//yV7/sed51N1x33Q3XeZ735a9+eeDt4xi/be/2qR+8zPO8ypu/dOTEUXRu+t0mdM65d+7pP51B569++ytAlm9+65to/Oq3v+KifqhlypQprU9deP2irFAL2far9DjVL6uzFjPykUHwHEcGgApLZAEeIMmw4YmrGZwVt03feWiXea57of/whX7WEgUXoFu/8oa7yHTB6jUPjVmQoAoyAJqKDaUEnBxU1VaV5qyFDoYGE7GVc4laWtpbkdxVIpZjKK8ypfWSjmEqRDGpLuEwYEZyxdQsx1vNbZZAYjI5F+182SOFgieSwkRHLYUpkK9vD54bmt/UgLgwTUYtIYIqbpuuwAc8s7qump7GR6JED2bu4hjQR0KwOrDsZAbALJANGGAVxy8TSjpom5JiXYazVE6UdsEToxAv/ZgEUQsfDy3+xZLFv1jieZ58SIQez/Pa2tdT7DN/PtufG+gbOjbw9nE8JOLjoWuuveb5HVuvufYaz/PkQyI/1OJ53pVXXfnya6841EL1FpAlEdWyTqOos6exuZEh3X96oH3HZolI8IKYOhe1phJZfuThhCyiZrJobG5UBUnSoeBo9J8eaGxuXNm2MhS1yDwoixMYoOwga6IcMw1RRYql4MsC7KUIMltZOSci6eruoo2spxdW/qVmcGxmBRYcprI2XnSlrjgXQLalvVVa1s+s6N95aBdfkILI+C+Iz1k0d+ehXXxXzCog2UCDAI4UuGOmhv1UygGhjeLtG7pECQbkZV8oDe5E5wx+UiMzjFUcmZGk9XlkooxrfR9OoZmIxpXn4n5+xdihoqxSmJ3gwWRe9iCVyZEqO4GsX/iYi06InmJRCx/coLH5hS0UG4+HgFSIYPiQSKKNkfOjp87lOrZ3buzchL+O7Z14vsPHQ3fU3nHi7Em84CIfEkk6fK/lpltuuvqzV3ueV3PHd1499lpZvdcC/UyIsxYZZgwMMypQjQgFiDmQQVStYsihLLHYsL+6rrqptYk1zEQtZACHHGCMuxO/+OQ79kg0PX0XHhZwFp0WCTRf1OI3HmSpELlKlHYBVc3cO4I3mk/quf/0AEzctnU9v5uQCgeT0g2ATkjEr8FMTWC0r69H0mlsbgRqgQl4lo4xVbVVOGWhrc2SQH8zNWnd6XKY8hDJFcao6XyqSwpoQKXkUN2NclmAfaOQLfEYKpANBJHVvl3dXVW1VVW1VTsP7ZLfvJjQv7G5ERqGA5uHsvQ9vJ6FQxfkHGZXlRygGYmWzLggWdmQAU71qryn/ArDpE5km0QCGqaDSc7V6188ebI6pJW3gKXL/FZSqIWPh/BUiJc33XJTf27gzJ/P/uC/7uZbtPI5DtDPDTfe0Dd0bOT8KB8P4akQL9c8+QQ0a0Ut9Qvqf/ts25T/+y/7k4fwfKpM3sYF24wr0z8kfjfvFtNTWJb0gx2MaiIMxRtRC/fxGGBNJYwrnu5isCyiKoz5aIZz/Xb88iya6mXCUnFOsmBA5hrFAAYEjMeAUqIWrMj/Ms1ZOZeQgjqUCgcdqQFSlnPRSQpyDIfhDSR6gh9qAWJQuMHPrFxIYjWIjP/CRZV/mgCInsyGhLNALXBLDshUZiCRch6yFKVRWDxGoVzKMXCPKPY9PHi4pqFGHuyRT9PivJVXA3ant6MhranOVCRxBgsPaYKNi5dy+KMMVv+XsSPbcl2/NpiXLme2JXZHou7q7lIeXnHbdDzNN88L/ZYu8/5iUcu9DffxgGRj56Y3BvsgMA9Xrp9+/f0/WnD/jxZcP/16PCT63UvPj5wfvf/B++UzI36ffOMXb/Q8D6iFj4fe/zfvv3POnQuyC++cc+f7/+b9nud9987bcRjjh1rk275AQg61FJYlGQxWVzZjlVUcDT/Qw1QSGpysOkxG4IQLyX6THwUaiFpABOzJswGS5QDWWrkQtaESrpmbFAOcGNoozF6SLBOxlXNCChyE4GczglFLwJbXTKld3V1YFw8NlSeYT4iOnT6G/bdSaShqkSKHtpWHmPZSq6uzFqo0+LlGKBuFfSMWhWwpx+Rl3129u5tam0yFF69JikzrSKzJVINhHKMc0nRg2cMsBCI4u23bur66rrpt63r8KIsczzZzCwVXqIIjM5UZDrYiJ3IOHuQjVMSy/OUbLmeeylBdE7RRLGrxextXfT0E3ID//ujh7Nl3R9ra1+Ny3sJ5b//xNNQ38PbxGf9Wxa+U+XhITkf7yquu7Dmyf+T8qB9qGTk/euTE0cqbv8S5DrUUVgUR29x2qFBRNQBZDGlCZX9FhwHjV1AxQNJXIyW88Htts6W9VSYC7LTkBoWr8Cc9JFlZ1615hFlbph6zrXig7MGNwuwlaTLNKdVxDFMbBvglX5N/WFOenIOC6pnf1GDdWwcXKuU5fqglovJpDrhlQM1QI6GlANRC9VKfeTWKt29ey8U+GEeY+dqXLif5MS2Ou1GMBavBRWkRgO/Q32shD2ai4FvDHCMbfIKJX4VpbG5s27peIRuVPZg5zY0BKCvNRHFvmcpUgpXUZFtKMUHbxaKWpcv/u2/oGP/wFm1/buCmW27CA6D/uv+/8Gn0f93/X/gxFTwk6s8N3PLVWzzPmzJlyvfnfv/pLc+0ta//1ndnA2QADK158glcfn3m/8/e239XVZ1rw+sPID/Y8ZwBHePBjmGrttXteJ/WWtvaqhjsaWytfSzEqkfkxLRqrQmoxRNIQeyWHFuRk1YwEitQUqtQUMBAk0ooKJ/Kp0JAQ4JAQiKQWDLaY356D8/luc497rk+9sdaa++9MhkZjrnmmvOe9/d9zbnW2t7B76vvmHIHOvGQyAe1DI4M8aMkIqFs7RRRZim5J0QZohaGhwwhHKWip3Xren44AFsEBidzAUaSEwUvQE2iHHWsggGundIrzEfsrNmKAXN/o/IUyMZ51mIyDxjhqmT5rjRFM1MqbQpxMJI6UfiD79JSpZweeE7DPbFZw8zqJRngWsA3MpXLW65tsud6FzAX3/Su2nj+uwHWRS8s5UXH7I8ot5gLRdpDBWZoX46XXJl+y6iXwxSClLfQpnWQB/Bcj36lxuASrkW0TWzB6HZ1p+ZVzfjGGHexrsmzFJapyQwxcCIHo0f9l9Kpfk7HWcu2g9vVa2SMbteJJdeZL2rhSQYaOM/4y5uv48flHpn5c37AfPbjQfxAy7hPj8NDos27tlx51ZWKguM4Vffe818/QHfqXP9PHrjXcZxLv3Dp1r3bqFm+couHRP6o5cO/n56dniN5I50MGxFlltJFLYw9KFBdMuZZqhmKxDEqaP0jStLHSG6IXb8FkONdTZwJamEKUxRMVs0NGeXlXKqCPRk28vc9pjmTc/AAo0ClyLnKOhKHgQjhgllp5OdjbJsKQe3HoqqigCtX1GKWBAw2AY30ELTJs5TXHMYejidqwXsbvef6qFJ58O6lXn9D529ff/rx3M3Wvq7jTYubzPOVbdyShuBgiZz4gFL5GCdKvCJfjaIbAJHAZ4hOJIiRweLlh/Qlua4kQuaVZqQsZMlsMFmBz8WrFuPNekWNGg7MkOSnaBvho5aTQ72/fDINoCC/ah4cGXplw6tlZWWO4+Ah0eDI0IGud+792X34cTnHcb54+WVP/XY+fl137+F9wDSVd9z2wZnj1OCJwZO333U7Pmzee3ifP2oZHBl67+T7OPixT4jyz5IqtlU6YIrHQ1/+6hSGIahwUsIAdn3sQlur7ayqDa5nLZnsxlxThlzUqy1FIOfMGpilkoWsbV5kvfrztxf1rFTHFU1uZSL2kojT0WBCVP2u08EJGON/1USToE+qlbdc5TVllMv53yXAos+wlvCHheRPDEvKge387Ru4RAwDlAID7avGg0PT4opz/GwB3ieV+EBhWToAppMZSU2NkbcCo1XlHBks0g9Jk8LKAJSzOFJuD2SnbPtzjuwkdwv8TUW8/A5d+RORyxVtO0fUEq48+JkW/kZLuMTzpJaMzAIl5CMLkzUf0DBImND5sADgBm+zs6gzgFHv+ZwI8WzuIdijEpNpUEWBHJojUYQkw65jVCdl5/cCGMCDJTmeYkqERyXIkYHtfOwF4sxQMmnKdcktACJ17tqAFK5HLOZ4WkEuId8eYKEyT794i6y6lgTclbdc5SUD0iImw2YPRMD/Vwufyqv3JYmq5e/BkOfARv72DVwihgFUL4KLRws0orKvHE/2OJg9sqECXIahikHlAKZN2QM+M3QJpCC1aYH1mUykH0qymCvvStRFftCQ2lO3fC6xBBbFCzcYLNMOM4C/qqXai7ZdFKilaLWTjPf8qd4csiRLlAwAEkSD0cLAYO7AACYdV/zBWYosLmW0uw7ItlPl0Gynxzk+B3sp9mgILyW7lhBFJOdL4tpp86YfOtGpfiBHZk+MpI/JW1jdxw3kLSUvPvFIVaRYWrKVpfdcX/OqZv/fNQaoJfOZL5G/fTNfK4qRudnX1eVMi5Nh+bMF7JQN/m8BAJtyMISk5tNWCMlnpHkLpx3oz/msxSQre/Z07W1saZQ9qg17ERipuyV0aVHLkL+1Sj2zSOmSJIuUK6lta6+kWhZyWfsm275Wuog0YFGLRS0BGojI8yzZQA3YqhaoopIeYO1b0uazzBdKAxa1BNTsJGWWJMlSqICJc11rrzi1Hf9a1r7x69yumAANWNRiUUuABhLg5SUqgq1qJWq4DNm29s1QUXaY1YDUgEUtATU7SZklSU5X0loAACAASURBVLJIJ05q29orqZaFXNa+ybavlS4iDVjUYlFLgAYi8jxLNlADtqoFqqikB1j7lrT5LPOF0oBFLQE1O0mZJUmyFCpg4lzX2itObce/lrVv/Dq3KyZAAxa1WNQSoIEEeHmJimCrWokaLkO2rX0zVJQdZjUgNfAJaqm3/6wGrAasBqwGrAasBqwGil4DTn19ff/wgP1z1UCSlJMkWVyNlbBOa6+EGVSJY+2rFGIvrQYy0cAnZy2ZDB2dY5KUWZIky2jwRmuvZFvZ2jfZ9rXSRaQBi1oCDpmSlFmSJEtE8VBUZK29isocoTNj7Ru6Si3B0aABi1osagnQwGgIg+KU0Va14rRLWFxZ+4alSUtnVGnAopaAmp2kzJIkWUZDlFp7JdvK1r7Jtq+VLiINWNRiUUuABiLyPEs2UAO2qgWqqKQHWPuWtPks84XSgEUtATU7SZklSbIUKmDiXNfaK05tx7+WtW/8OrcrJkADFrVY1BKggYi8fGfnrqqZVYd7jwTSb9vRXpOu7TlzLHBkwgYUqqqlm9JL1iwNVGbPmWM16dq2He2BIzFAjm/b0T6pZnIm1s+QuBy2ZM3SbB1mZ+euSQ9O2tm5S9KJul0o++YpV7opHZ3t+ocHdnbuKp9SDg+Ez2RrzTwFDGW61FLbjvZURSrzSMmEAWgmkziV1Ari55KBUNoZoZbjZ08seuHZWXPrzb9te7cf6Hrn8X9/fNbc+rYt/5O/jp7qfnLBk7Pm1i964dnjZ0+A176/nXrt9ddqHq657obrvvO9il83/vqd7ncphlxFzsKAN95+E6s//u+PH+h6Z9ve7SYzXE7e3bZ3O5foHx744MzxZ5qfwdzlK1vkLdd2RJnFrMTwwlRFCn/pprQrP/l0RiRLbixljlrSTWl/bSDNUXX+jfIp5ShOS9YszXBkbgLmP6tQ9soQtWSbASWY8Mq56aa0q1Fq0rV1C+rkLVnJFLUla5Z6OYxpdOR9yVv+hsuQQqHsmyF7XsNkPfYak09/dKgFfiI9Jx8+/edKLYWFWmTEQRYvJFRUfu6vqBzuZoRaej48dlfVFMft39r2dW/u3npZ6jLHca751jV7j+wDE4eOdV5ffr3jOHdVTen58PwuufODw1Orpyoa4y8c/7uWF06d6+8fHpCrfOkrX975zv/se3o/6pv+6EOYe1nqsjd3b13bvk6RwiWWk3cfm/cY6IOxv+7afMnnL8HgGbNmBKos9MzCEquCR6baw71HJtVMVgMCWQ0cELosgSv6DPBBLVSRrFJebZ9tX7op7aND/0IlE4SPFJHeKpS9fFCLF6pwtY7cCJr6bNvRTgSp1Hi490hNunZX51s16VrX8xhlO3VyI0NJUVa3IKkCPWpKdJeFsm+eEsl6nCcp1+nRoRZQ9qr0rszk3Cm1FBZqkfu3QNQigXth/TxnHXpNzA61XPL5Sx6ue0Qecmzbu52oxXGc+x68/4Mzx/uHBxRq+a/O+x68H1jhc5d87t6f3XfzD26+4FMXOI4z/sLxq9e/olCL4zjzn3maTO98Z9eXvvJlTFeo5Ye3TZL84JBGopZvXX/t/vcPgNSpc/2PzXsMdBzHiR+1MNv6F9T+4QGfnE61ZNsoYJZEjLnWNtlpggxqLFth23a0y7g1p/tTNqusSSHqnnjshZQqreDaVrkewFp1eikEgyWIwcgla5a6gs6sUEuGrsUzlXRT+nDvkaqZVTs7dyGbu6JkV8a8BMytPx775sabzyxZj32G5XwrOtTi5W85s+ozUWopFNTi6qUqVLkNADovEj/30VJut7JDLdeXX3/oWKdaSaKWMWVjlv7x/BNxhVrWb9owdtxYx3HuuPvOrr6joLB6/SvjLxzvOM5td952tL9bnrU4jlNxc8Xh45+89DD/macJNRRqWfj8QsVP//CARC2O4/yu5QWM2f/+gW9dfy1JxY9ayOroRC2yyJlnLeZTs6xKI3XLR+P+hceiFmjMVLs6a3Hd1flrT9oCRvRCkOmmNFMtDadycaoipRCPXF1uQLGu2UN+XLP5kjVLJQ9KfM4NvZEA1ALj4qUN+ElNunbN5rWwILTKMaYd5dEdk4M/apHUTIISwqotECYuWbOUfMpX5QhogDDWbF5bk66FFHBdPnNRWUWCCbmiP2ohtVRFShHElpUhALWAeaqof3jA7JH+WVR+LhkLpR0yanEc50tf+fK2vdsVapnbMNdxnDFlY1auW0m+ez/qq3m4xnGcL1z2xTfefpOoZUzZmP/1T//EwYePH6m4ucJxHOCerFALpgAV9Q8P/K7lBcdxQLwgZy2UPRC1MIo4Jf9GAbOkWfnMYmn2QEv7uw9MqpnMMJYNM+ARz+mm9KIVz7repRpl4pA02ZaVjLPibMRjL6V201JmDzJ12452Hx0CZyC3ekEWKBNEMB5YFs+G+ITIhBFELSb27R8eyAq1zF/2dNXMqkkPTkJJMIWNzuLx2Dd0/lmPoSuGCS5TFSmYG6ZPVaQ4QB05LFmzlGVYAkcf1CJvEePSu3BXXm7et4Xiy9Nrudz5Y/7/9145JoJJ8kwPx12MJDo53Hsk3ZQG+lGuTi0RhVBYeQvuyuXMy5fbVvScOaaebOaAWgro5zRBWI3sUAtPKdDASyQ8a6m4ueKqr13lOE7VT6r2HN4r32uZMWuG4zgAHJL13zz3W5Ba276OqOUb3/zGj/7lR47jVN9X/cGZ4yvXrRxTNuZLX/ly7c+nkYg6TSFja9vXybOW6vuqL/n8JWPHjV2/acPR/u7b7rwNj7Fw4lK0Zy2IHIaf1Fg+7QJmSUQ74xbBqVCFKp8yyyipkZ5cX8vvOXMMjwAA+3Z1vjWpZrLaqYMaKx8ueZqKy1H1hIhZmJVAakzZTqZ4ZReYNVWRAkGMlKTM8VT+pJrJ6aa0D2ph/QCslDwrslmhlroFdfOXPU1g5L+FVQvleVnAeMyHcxZddU4Gc8uglniUhdY1rUHtRK6u3xCBvrI78YfrXYqp7rqiH2Qn5F46LRhTQkmQwSX6hwfkVpNaUqhFQTelFvOupC/b/o5qnrUU0M8l26G0w0QtM2bNeOnVl8eUjRlTNmZuw1wgg7uqphzt75aAQ/K98PmFJmq5vvz65Stbxo4be8nnL2nb0l59X7XjODUP1zQ2/SZb1DL/macxffqjD637y7qx48Ze9LmLVr72JyCq4kQtCHUVnFJpObcLmCWRNYhaCDtk/EvUgpiUdym1ypXsx56pbkEdPxFCrsHSrhBHzlWoRd4qVDsee0m1E3Zwx8ydKG0H/zRrj9rpUmkwJU+wzIYkBdTStqO9bkHd/u4DeBsXkEJuN4k45SMGk7LqweGQ+V4L6g3YcD28oSzhNuKxb7g8c78xf9nTKqYUMjBfzsMAaW7wxmxAE7iiFgU15Ny2He1wM6INJTXm0ocVq3QnhTDo/JJnr90UXJEpywu1yH4yyaN3iXt4NzCCpJ8j6ZmoBZphEMXp5xQkrEZ2qOVLX/nyspd/v2r9avy9vnVj70d9PGuZMWvGyaHeR+sf5ckHvyGqmzMTj3jk19GnzvVj8NhxY9u2tPOs5fry6986+DbORSpurrjk85fgaREgjnpC9HDdI+Rn1frVB3sOybOWhc8vxFHNZanLbvzOjXiH5q2DbxcnaqF3yiAJy9L9wwMFzJJIE8gaEBMyyr0FyydzCl6ZVBrgtlj1q9MRFf9YlDkFc+Wm3KIWFG+oiCboOXNM2g4pu25BnemigXnQ1DAoy0oDIvOXPc33D5CRl6xZyoSr7K4uvcAThoEIWaUvsYdOqMhGcVnAeMxHHCJF5QPSZ0BfFXgM4CzSqUnX4ikwbkl0Imkq5IElONj1LsU0sQLzg3JCmZECUQsWhYsCEzPDyBUlTQIU8kYgiOdNGe5XsXkgDpPUiMLp1YX1c8Vb/pfZoRb/t3FxdPHO0Xf++bvfIXDBU6SX17yMnkfrHz051Au+9x7Zd823rnEcB5/5SNRy6Fgnj2H4Zq4ravF/G3fh8wsP9hyaMHEC+fldywt856aozlpcy2r+BpYUCpglkRradrQjzpm5uLnBQ25ELCrH/u4DVTOrXm5bUT6lXG4mVBtpggfFlJdZiT1cC6GushUho6TPHCSJxNaOx16s0+oQC/qZVDMZZx5tO9ppRNR+Vh2pMdmWVsazJ/W7gsoEfD6l1G6etfiYALzNX/a060/GeaEWWB/fnUkU5bNQ/rfisW/+fCoKqMcvt62QB3Is8LLo+qAWWcjVUxICEUVT9pMldDKxuNoOxlW3aHG121GMwUWlJ1Mo3JLyyizkg1rk8yYIQigjZ1FGs4GlX25bwbdq1Jii8nPFW/6X2aGWb173re37dhw61sm/42dPyLMWMMSPg3jW8m73QbxRO6ZszPRHH1q5buWyl5bh8MNxnMef/OWpc/0KtcivnfEVtCtqeeo3T5GZQ8c63zv5/qlz/XzrZeHzC+XXzoBHxYlaMvTXfExewCzJ4FcFCeIgcSxa8axMAebWHIO5b6AqXAGKayenoEDKn0P1Wk5Oibkdj73adrRXzayqmlklUzMlTTel6xbUqd/ARU7kGDS4sVP9vJQnW+iEV8hy4krEFbXg9IXE0eD0nZ276hbUyY9E5EhUJuls2J66ftAhJ4bbjse+4fIsDwbUaytmFWeBBw9MAvJUD7fkZkaiE0lTtikUw9z1LoZJMMGJEASuJT0/c9QC3CPnStwv87mkKdtgRoIq865kmG0GoGsUcBioFdzPyU9YjexQC08s2JC/Mseji5NDvbPm1mMMf2Xutddfw4/RcS4aU6unHu3vPg+r//u37HCiw1+W4y/OuaIWRU39yhxOYvjLcvjFuSJELdJxwzKtSaeAWRI5xes8E6xy049LLxhhohZTUqRFc08jR6r3h7yWk1NibsdjL6V2U0bTdkyacjARg+xkWxUw9HO/y2GoWPLABm3zCZHJA7fdoGYO4CqsVbLkyMLJkZE24rFv6CLIeozzNnl4KWukMjocCTqX0ARuwJMbeUthEZRhwlw5kieptOnOzl2b922RiypVgD1+Poa7CjeY06VQUhXIJ9yVyVuSJgjK1CRH4i6J9A8P4BsiyTmBGs+ivPJqkfi5ZD6UdiSopX94gIcrRC39wwO7O/dU3/9j/LgcPnhe9MKz+FU6E7X0Dw/gV17wJVH/8EDOqOWDM8er76vGl0Tyt2QIs3xUGVFm4ZEglmbcqnzNCPThMPNbEcmSCQOIRq/oAgX5ThwOjbN6r0WxIWNb3eKJ9MttK/BNNd7mc13OnBtbTzz2CkQtJrZwBQReqMVMxFSgLADodCWC5KsWVeDVdT+tPApL8Id0IZcsonUL6vgeKJmMrhGPfUPnX1ZZnFgAcMDQGaIWHm7h02gYRdoC0MSkCaTCPKlSirwLTtCjhkEncAAJIAh9OB4MyDwsnVbmbTgkAYfUkkQtWFo+XZUaM++SE2IUNR4cEsnR3MXj52QprEZGqCWsxUCn72+nDh8/cvTU+fOV4v8r0cziqtgCyoLQkhFIDmUAywHq8IPDmBdIwbXhg1pUJpKZjtmQDZXUXNeKqDMee3mhFqkWlSglgJDDZHKHTtRDBFmroGGVbSU1mgA/JiYhiARSmKI4pEVwl4yZLzHwV2fge/7USDaURjz2DYXV0iUi0UPpSsHAUfFCiRBozJ9F5edkMqxGAVBLWKzHQydJmSVJsgRa3we1eNXpQJoxDxhV9oJufc5a5L4WPwnT2Xu4Jl2bCYpFTn9q6Xz5JhNWVKee6HQ9uQnd+qPQvqHr0J8gMKhXpfefWzx3M0TS2IyVTyl/5a+vFpWfh65Ji1oCznuSlFmSJEvokVCEBK29itAoIbJk7RuiMi2p0aMBi1osagnQwOgJhmKT1Fa1YrNIuPxY+4arT0ttlGjAopaAmp2kzJIkWUZDfFp7JdvK1r7Jtq+VLiINWNRiUUuABiLyPEs2UAO2qgWqqKQHWPuWtPks84XSgEUtATU7SZklSbIUKmDiXNfaK05tx7+WtW/8OrcrJkADFrVY1BKggQR4eYmKYKtaiRouQ7atfTNUlB1mNSA1YFFLQM1OUmZJkizSiZPatvZKqmUhl7Vvsu1rpYtIAxa1WNQSoIGIPM+SDdSArWqBKirpAda+JW0+y3yhNPAJaqm3/6wGrAasBqwGrAasBqwGil4DTn19/eDIkP1z1UCSlJMkWVyNlbBOa6+EGVSJY+2rFGIvrQYy0cAnZy2ZDB2dY5KUWZIky2jwRmuvZFvZ2jfZ9rXSRaQBi1oCDpmSlFmSJEtE8VBUZK29isocoTNj7Ru6Si3B0aABi1osagnQwGgIg+KU0Va14rRLWFxZ+4alSUtnVGnAopaAmp2kzJIkWUZDlFp7JdvK1r7Jtq+VLiINWNRiUUuABiLyPEs2UAO2qgWqqKQHWPuWtPks84XSgEUtATU7SZklSbIUKmDiXDceezW2NO7p2qvk6j3XN23e9IbmBtVvL0PUQDz2DYXhjt0dlbWV3ad7QqFWECJw6Y7dHXu69pbfPbFjd0dB2LCL5q8Bi1osagnQQP5OBgrIGstbWzIh2NDckKpI4Q8pprK2kj1sZEjNdcU9XXsn10w2C3bH7o7yuyea/a5EIu2Moar1nutrbGl0LUheeug+3TNt3vSsCtjy1pZp86b3nusLVBcqCu3b0NywvLWFl2y4MhxIvNgGxGDfsERG8Pobsft0T2VtpUIDe7r2VtdXm96SVTZQPtC6df20edPpDGz4g2yilu7TPfBh//GZqC5zAOSqHNclMJJCTZs3vXXrel6ykWeO8grJhuYGfyu78hxzZ9ao5a13356dnmP+Lf59c//wALmXw/74ykvsZ+PUuf5Vraur7r1nwsQJt06+9blli7v6jvIuGmf+8+yfN7dNmzF9wsQJN33/pl//5ql3uw9yzB9feclkY3Z6TtuWdoz58O+n12/a8JMH7sUSjU2/MZcgNa9GRJmlY3eH6RwyOPOpxzHL4rWc6meeQoPhJxsMRZSrwZEhKOrQic7q+mqFJDhGlTpJ0GxzieWtLWbaQsow+5Us8VxG5HuKeZjDFJn2UuO7T/csXrUYavTRvCTIFCk9XJkGDs8ih9U7dneYZuKYwZEhiW4VQfMSLHXs7jBvqR5VepUGwrqMx75hceuF8klfnsfQ4tJYHDk4MkTvQkPpH5dmqILaoROd0+ZNVzYy/UQuJ1dU/bg1q7FephfTr6Q/gwI4N9O4SX9wZIioRYESKTiwePfpHuY6pDizWMgxPjEliaMNbhlcilWEhlKsGlMMl1mjlvWbNjhu/6ZWT+396H/2UulfPcFR37/1+z0fHpPS7n9v/3dv+S4HoHH5Fak/b27jsKOnuqvuvUeNGf+ZC5e99PuzHw8OjgzVza5Td3H53NLnBkeGTgyevPdn96kBagmu5dMIPbMw0St3R4IGJ/Ce0IFL6LL46M28xTzFDKLCQ6ZFIhI0ZJSSMsewRzV89g1mrkRWMrOVYlItEellbPZCMdjbtc/1QIu5TyZu/yKh7rKGDY4MqVt0BoVaWO3M8bzlpXyEmJfhZHE1KbC6mLdC74nNvllx7lNW6QmyQa9gPMqi6GWsrLIBfQANSZ+icQwTrGTSqw2g0Huub9XG1amKFH2GsoA+iXO5QMSsjgOlX7lmM7ol77Lhj1okS2xjOa8KYqqoY3eHaXclAokXvJE7apl8e6U86pBnLT0fHvv+rd8nYhj36XEd2zdR1O7+nltuvQV3r/j/rvhp7U9v+v5NZWVljuNc/fWr9x3ZPzgydOpc/wPTHsCYiy+9uOreeyrvuO2CT13gOM74z1y4cdv5R5JALeM+Pa7m4RrJCc5aGpt+g+k3ff+m2ek5P639Kab/30n/99jpD8hMYCPczML07VNQmceZDgKZzHBAuLJkuOjgyJAZJMgCKqgYt8gIy1tb+DDCjCikIUVBstSxu8NHgeou+GlobuD2DvW1sHFbKHu55mjoViJLqW3VBgUTGuK4W+F1mdBZ5Ja3tsC4rltJH7v0nutT+2bFm3QzdUvuic1bofcUyr4ZCuIKDryyk3QMM94JGqbNm769c0f53RPZk6pIBWYDuhMsa/oVqPnEO0RWWETpgckZ9GVuMSOCbqmcGcfDEAr0zbM9POEiQsIwri7BCiQyKaQqUjJTKUGQPxV9OaahuYF3IeyqjasrayspCzoD9SlpxtnOHbXgSMOV147tm8Z9epzjOJN+NPmzF3/WcZz0r57gyGUv/R54ouree04MnhwcGTr78eBzyxYDuMx/5unBkaG/vPk6KFTcfNPh40cwd91f1o3/zIWO40ybMf30P84AtVx+RWrngV0kjkbvR31Tq6c6jsO7Zz8efPaFZydMnPCDH/5gT6d+91BNl5cRZZZRhVqgTwX/XRMB4wT5hWMYydI0PjkIedOrtpnUkIPK7564auNqvOzS0NzgNV3yEGk7It8L5JlqN0fK4mTeZY+iIL2duISDZQ/ae7v28ZBckQIIdn1VAgRxWiZLDhdCw6IWpRCfS9cQkyiTcyXil7OkcTmY6JBmMq0se9DmkQNqKusuyMrx5iYHiUUyJpmRbRBXsS+JYz/DgxkpONZ1xRPISOTZ5IQ9yE7bDm7nUzAKTj7NDMZbZI+5VN7iM3e+ZAZ5UxWpafOmL161eNq86YdOdFbWVnpNV9QKchkJasHjoc9e/Nn1mzZU3nGb4zh8SNQ/PHB/zf2O43z24s++8fYblLmr7+iTC56cnZ7z+5eXn/7HGT5gWtW6mmN6P+r7zXO/nZ2es/D5hb0f9fmgFq5SVlY2Oz2n84PDeKhEUpk3IqocMo+bzCxvbVFhY47JoSciWTLkRD32UqGI4GEWa2huQAghzl2jlHGuGOg+3YPpXjpUexf18gRSD7cdiniclzHYi0/EqHlmPbkb5t5RohZuNzmS+VpmeaVP05TcZRKRrNq4mvqXpKB8r0IIzrFrlOIokynrk3nZYHVRc8O9jMG+eTLsivDMTqgU1pceQoOab+NmlQ3gA4z3TFALUS+8AjVY+hJzLP0B75hPmzedvkft8fSosrZyb/f/QGoMIAWGCSeygWChX0lOiOFkrlu1cTWhuUqVGC8F5CoAJcicXrCDIZ+qSFXWVqqXhJRdJOXiaeeOWnBewv+u37QBUvHxEJAK8AcfEvEU5IYbb/B5N9YHkVB3GEMG0CDZ9Zs24GAG/RdfevFPa3+6fd+ObOFLRJnFFbXQn7wcjrLn1ohIlgyZoXRICnz6g+kq2SFDMT+amyfUGLM49Z7ra2hu6D7dg6yEdzXMYcwaOCyVl6mK1KqNq7kXyVC6KIbFZi/WA0hBbVAoDpBmUsMkHJG3mNOJacwDahoIiASZFJ0mNkK2dS2EeKpYWVuJB0yusJVOBelUCYSnsbpQA1E0YrNvzsyrvQQfD9FerLiosnu69qpnr14QM6tsAHei74EriTLRZtqUrihRC8u/KRdvZaUrntHiTV64uul1kmEwuadr76zGeiYZ6ZNkvqG5AYMZQVJkRpNkeE/X3saWRiyHKDOH4S5eZMHJCg514PmVtZXbDm6XNIuwHT5q4eMhPBXi5S+fTJ/9ePDE4Mnb77rdcRzCC1MpZ/7z7EP/9rB8vmOO4XstXqhlcGTojd1v3nbnj/DgCcPKysqeW7Y4K+ASUWZxRS0UMyLAG5EsZNungVCcXDMZCQjARVYvueHmey1MLmYkc4xcVL7TwL0UU4YsRSyrRC3/FcA4F8V4c78lF4qnHZu9CEogF5VDMTmAlUMWAwyjjdSthuaGe2bdgzdakENlYZME5daceVxVLDmG7GGLiRSP5IuyijjyNyWTuKQWTzs2++YjDg0BIipOYY7GlkZpfbmcK2rJNhvQIVHIaTLJDMeYRxG8RWaUUPK5idcGiecoEkZL9EapJQU4/J6uvffMuqf87ol4o6WhuUFmKqQyE3IxNICo8OBGnsfIj55gCCAh6IfwqPzuiRJIUXvYN2KHABDJH7NxlYsCFryRO2qZUf/o2vZ1/Hu/twvC8OHO1Oqps9NzHq57BK+2fPeW73b39/T97RS+DPrq1766/73zL966/v3i8V84jsMTGtcxOGv57MWffW7pc2SjbUv7qXP9cnz/8MD2fTvSv3ri4ksvDkRCciLaEWUWf9SCvC9dzWQsh56IZMmEk+WtLbMa66fNm768tYURy/0N4lyiCpZJZBzmRE7BohyGoJW/v0LUgpFYgjsPJjKiFmYN7gKxswndCpmoC2Nis5dUoysc5ABmUgVNVKmgelEnGlsaAR1wBEJrqnwtEQnHgBRTLTTD8oNL7kq59ZdpF2WG9gXnhDKKcubWyX9kbPbNk1UmK6+f8JHWV+EjjwfQxgPZrLIB3Qnhj3KLEsvHKNIhJW7AorA+nAqQRWYbiVrQVlEv3R7K5DMjU0D0SAoNzQ34VSSecOAwmMBCJi56Pj2TSY9hKBUOfiSAw0Tp8BK+k6xELQRD6itCSSRPLwpxeu6oxfVtXD4eUkcggCB/efP1wZEhwpqmJU089vjrzs0ANzPnzDz78eAf/vQHUJg5Z+aHfz8Ngd85+u7Xrvm64zj4ytrnKdK73Qcn3145YeKEJ349j0ss+t0i0OTDrEz0GFFmYSLw4sEnQXhNCeyPSJbAdRGHeL9MlhPGj6kNxicilr/XwiloTJs3HRuO5a0tRCTgR6EWdCJ65YssCrUwP/IwvIBxG5u9oO3ec32LVy1mSaBZqXMFDeWmE5maJqAaQVmmVFoHmucU9BOOcFGSYu6GEVu3rsfPhak3B1GxpJvRlEQqEuVgIbP2qKpGbYTYiM2+efJMFSljSbKstbJTwlD255AN6ANwD/kqBhMFXp/f07W391yfYobTKYgZ1PQuegtdCLN4CUHoqIGXGIlH1dKppB4kP5J5SEfeuCgwE6IV7NG3yb+kCSahokMnP/m1G4VaQIccqteHab5iaOSOWhYs+o+uKlM4XgAAIABJREFUvqP86/nw2NmPB/ntD743xgfJ9/7sPjymwUOit959+8qrrsQ3zOlfPbG2fd3zLb/70pVfkl81v3fyffygS1lZ2SMzf/7Khlf/8Kc/fPumf3Ycp6ysrGXl+d9XBWr54uWXvb51I9no6jva+1EfwdPlV6ReXPXieyff375vx40V3w48vzFNElFmMeu0Wtq16Kox2V5GJEsgG3u69uJNEZy1yPHqCIS3mIyQcWQko2ilKlIMS1dduXaSvqy4ADE4BiAMMnMB58bWiM1e3AviObd60U+mM7npZDEwFYJbgEG95/pM1IJTFp66kwLzMi3OVcCG/ObTFaC4dpI+D2OYnaV0clgM7djsm78sjBdVvEmZ9mIPGjQo+3PIBvQB1G8JrHnmIcs21zIb8ttAuAo8gciAbPNX/11zNdc18a46a+nY3cFfQ6HXyVXkqYw8RKFnSt54lAVSGMNMCLKunVQF7pLJQyc6ZzXWY0sJGASsWX73RC9bk1ShGrmjFnWaMrV66smh3l8+mQaweGXDqxTp/d6u8m+XO46Dh0RnPx5c9tLv5auyIFVWVvbYvLk8Wfnz5rbLr0ipVRzHufdn9+F7ade3cR3HwSHQi6texA+0KArV9/9Y/hoemfRqRJRZVCTwHVKwgcIcutNEJIuX6lQ/okUJhSBUcYuSNquxvvzuidjeqZwo98pqFV4GohYZ6niANauxHgkRIZ1hHuSKoTdisxesANOwQlAcmdwlauEAs6GImKiF0NPM49X11fi9dhhIkspk9UDUgqXpcnBLxYYpURQ9sdk3H+ahLtgCpdr1xEVFKFc0UQtuZZUN4D94eNGxu0OZzPQuLAFPIKqAI+ES5pa8ARngFAcvetNFXfOAnGseKam7JlbmiQg+OeZruUQtsxrreUuiFhmMVLJqQD8yv8kBSnt4Xj+rsX55a4uEYipRSwoFb4eJWg72HMIByTXXXnOw5xBlO/2PM4/M/Ll8SHT248Etb22Rr8peO+Ha1etfOfOfZzlrcGRo35H99/7sPoKPK6+6cvHvm/naij9qOfvx4KYdf73l1lv4Nu7Fl14876l5QDxyFf92RJlFoRa6NYLKNS/485nJ3YhkyWRpRimDAeGH4mE+DuNZC4gzJ+Lde2ALr7DEFH/UoniWy2FbST7VyDgv47EXdaseAFFSiRVkmwPMhoKVqq4AJHEDKlVtpnuiFjxRMl1Fre6PWpCy8WkoTnpUElfUIr2Mx765iQC1sHBKIizn0nDSi+Rg06C4C/qk4J8N6ANyrnxHRKZTll4CUyYfZhv82opEAzxMIkbhqYakQ9GUXP6XTO8Ex2ASa6lMZWqSfOI8GHNJiiyxAd36p0cOlsthYkTVhyvm38gateS/pKTQPzyAZzqyU7U//Pvp7v6e42dPqP4MLzE9q/MVSbmYM4vkM5N2YWWReQo5QsYV0hZ7JIzgiaXMoaDGFGOKr3KBOYA9WJrvzxdP0MZsL2kgPsEBjGZ18UEtUKMr7CZqQcJVZUAe2qvsL9lgmkbV5CXtiAbYIMPqrixvkmGwLf8bgxvEbF+lCq9LqsVLw5gIb+EzPln8JGXToHI6zBSYDRRqIYfSkaQXSQYIWZhb8L4tbE0ZlYvKVENAw8EyI0mfkW3Jm0It8mgTrCIuoA1Tk2SAXi3HK2Fd5TXHsIefU2EVn4zKKQVvFBi1FFz+QAaKM7MEsu06oLCysCj65Be+VGuiFvmaPaXzJ6USB2ehwdyHV2Tkb1yqkYW6jNle3NKFLi9KAv7XtTL1cyFmYVXk8L+klvUGUzieFNiAWZnf2W8e48tbBWnHbN+CyOi1aFbZQKEWvJtvOhKzh9eigf0mnuAUYGWmFOWoHIaGeRduiS+fvZABspn5K3ZEVHIVEDRDI0PUwgMz/DyV/Dl/uUpxti1qcf/0mtZKUmZJkiw0UIIb1l4JNu7gyJC1b7Lta6WLSAMWtVjUEqCBiDzPkg3UgK1qgSoq6QHWviVtPst8oTRgUUtAzU5SZkmSLIUKmDjXtfaKU9vxr2XtG7/O7YoJ0IBFLRa1BGggAV5eoiLYqlaihsuQbWvfDBVlh1kNSA1Y1BJQs5OUWZIki3TipLatvZJqWchl7Zts+1rpItKARS0WtQRoICLPs2QDNWCrWqCKSnqAtW9Jm88yXygNWNQSULOTlFmSJEuhAibOda294tR2/GtZ+8avc7tiAjTwCWqpt/+sBqwGrAasBqwGrAasBopeA059fX3/8ID9c9VAkpSTJFlcjZWwTmuvhBlUiWPtqxRiL60GMtHAJ2ctmQwdnWOSlFmSJMto8EZrr2Rb2do32fa10kWkAYtaAg6ZkpRZkiRLRPFQVGStvYrKHKEzY+0bukotwdGgAYtaLGoJ0MBoCIPilNFWteK0S1hcWfuGpUlLZ1RpwKKWgJqdpMySJFlGQ5RaeyXbyta+ybavlS4iDVjUYlFLgAYi8jxLNlADtqoFqqikB1j7lrT5LPOF0oBFLQE1O0mZJUmyFCpg4lzX2itObce/lrVv/Dq3KyZAAxa1WNQSoIGwvHxn566qmVWHe48ogkvWLE03pVVn//DA4d4jVTOrdnbuUre86KSb0pJOz5ljNenath3t/cMDsq2oFfNlQara4d4jk2omQ2+ZKGdn565JD04yzcS5h3uP1KRrTbtzgGp4GcvL7v3DA14ulG5KL1mzVNHP4XJn567yKeVKJ0vWLK1J1/acOZYDQUwpiH1z5tZOzE0D6aZ0qiJVPqXcJ0Zyo1ycs7JNIJCibUf7pJrJGWaJ3FHLtr3bZ82tN/8WvfDs8bMnlq9sMW/Nmlu/be92cCmnL1/ZIg3AW60bW9l/oOudx//98Vlz61s3th4/e2LRC8/Omlv/5IInj57q5pjWja2ui6KTS3N8Jo2IMkvbjnaflLdkzdJURUplyUy49R8TkSz+i/KuV9XxKjlZoRaz1Mke2QY/bTvaCXFwN1WRMv84hlLE2cjNXsgapiyqx9/9skqy6aa0D7XDvUcWrXgWBFH+FSe4JAXTWNC5l/9khVp8bC25IjM09+HeI2s2r+Vl//BAuimdZ4TmZl/JQwxtf+PGwEBWS8D5Cxu2kuEla5ZmFUpybgm1JebwytsQBxhOxhqCSO05/WXPHbWsbV/nuP27q2pKz4fHZsya4XbTWdu+DgzNbZjLAd/7wffeO/k+GSXlhc8vZOebu7delrrMcZyFzy/s+fDYXVVTHMe5vvz6Q8c6OWbh8wtJ02xwaY7PpBF6ZmHiNjMj+OGAPHOiKV3osphL+PTIqiPboaAWKi1VkapJ19YtqJOBIdvIaKheMIFXmfRizEfGcG/lZi9zr2NCZHlOkGEhx6GF1LPUqtlW7u2vTMmhNIdsS59RevYinslZi9dcnPZNqpnsKtr+7gPqVg7FKTf7KtkjvYT+lSkjXTFP4m072nMwRJ6L+kwvLcznI4jPLTgJDzUDUQtHMrrNlOWzXP/wQAio5Ye3TZInHDhrAWoZO27sA9MekHdx4PHeyfe/94PvEViMHTe2bcv5k3z85YxaeNbycN0jl3z+EsdxrvraVY/WP1o8Zy2sFj7enG5KT3pwknkiTf3k3ChslpRVR7ZRNuDB8oRJeT8rkJxLVSxZs5TBgE6GhNcTIoaKHEmCPjt4OSbSdm72olzkTWICdNIPvZTDuRxA1OL6mE+O7x8e4IqBz48wkeO5HCC7NA3tjpNIuZ+WyIPDcByivELxmbOVpQLliiZ9n57c7OtDMPRb0H8JoRafvBq6cjIhWGz8ZMJztmPadrSbyF718OkP0jhCZn/3ATzEd6Xg43UhoBZ5IkKBgVouS1325u6t7GSjbUv72HFjHce5tfKHF33uIsdx5jbM5d2cUQspHDrWeX359Y7j4OCH/Tk0IsosXt6MozbsGBJz1qI26DXp2s37tqD4IS3CxatmVlXNrGrb0W46MR7oeBVO1zcnZMGTbdMHJA8q2GRpNCdG3ZOb78WGWqA3wgJ5xksUIlEL0IbUMLfFGN/Ze7gmXcsB5VPKN+/bwpeTOL18Snndgrp0U9o0nHStDFEL0bCXNQlQpFDlU8qZiNnvRcGrPxP7yliQCYHaSFWkyEn/8ABiDSCempQQUBUDn0cYcmkcYeIlHjgYidMBvMQ0l1DZj7LQH0BKPk2g7BBw0Ypn4SpyddziSKBn8in7uWJ02jOTHty7Jl27aMWzUp9qJPmEe9eka9dsXgspoB+pfym+qX9S4NtXmMtZkpTMdZIl6TDnd9Q1k19uW0G9yQAHA2aPZMwVtYAsXmoBz1SCnMt2YVALHg9d9LmL1ravm/SjSY7jyIdEoxa10KXM8KPB8mlkkiXzoe8/V25JZVSkKlLyqQ391eespXxKOZMRXi+Yv+xpntjjLQoOUI1JNZMXvrQIna7rUgq5g2dnnI3c7CUzkZJdXjIZBaYJDGCmgwaQ99nZc+bY4d4jKDMq/fFdXaVPaV9Z+CU/aJNtlmdFSl5KN5NlT1VESCHXcrXskjVLuShgEKrO/GVP81VxuborEa/OQPumm9KS7ZfbVqD8yCwPrjiMkUXTSCIKQEB8aS/FKgbQVSQqwkgs50MBp1lkD7MkapEa7jlz7OW2FRxDzQM/ITNQQCYK8ixJKbX0Dw/Erz06DKxGZ5bqkqIRZsF2ajzjmspUc6kHNkzzscTwASj9ZPO+LXhfGBqWPNABEFC8hICkgHWzRS2LVjw76cFJ/1r3r1hdpgUKohohoBY+6EEDr4+4vteCkw8+HgJSAYKRD4lGJ2qBh8Gh4TdmWCrjZXsZmCWzJZjVeJYTBBtTEpM+NECplftyT0w6anXuiVW/1yXX9RpQ8P7c7IXERDXK5zWUSOpKqZ1j2MAA5ibgFZm5OJLPd/ikT6YwpXBpX1fUwjQNWaTdFSl5KYfRZ8AhCRIG+TQm1Ux+/e2NdQvquE8FEaBkqRO1itSGf9vfvl41yeyHXDJ1yLoIVuVdmjIwz2Auba0uIZ1CQqbI5gCiFleCLN70YVMEKSBWlEowKZCrOLXnilqY94gblCyEpJBajldbBSUyZWTDVC+mwAFMVTB+aXFokjhJImCuohoy5NUtohwEKZ4QpZvSODljmHOfY05HTwFQCx8P4akQLx+b99ipc/39wwOjE7XIjUJgNvEyp3+/f5b0n5v/XVlOZJslR5Yx88tn1gY5V3IlKzEUaNYkGY1cVx4Xm1OY4uVa8bRzsxcSEzN+hqjFFFz1LFmz1EyjXnrgS5EyhZl6ZjZ0RS3MoUxnfKWGzgAGaEocBngNM7mV3z6Yd0kcPtBz5ljdgjp+v4rSu7/7AA9dvCh49fvbVyYESYFVTXXCt+H5ymmJElQdlSEjqbGtyp4r8cBk5YNawE+qImUyLKu1ZNuVB1VcccCjKECoOLUn2aYzyxTkihsYO0r5powYoEAPbee6okQt0KTSkqleaV+lPdxSicLrEoIjciVqQXQzomUqkLLIdgio5eG6R1atX82/gz2H+ocHcNZy0ecuWvj8Qt56fevG3o/6+PXQXVVTZs2tnzZjOl5tqbi54vDx8z/m4Ypa3nj7zS9c9kX/b4goWMm910JPhQjSUShU/g3/LJk/fX8KEm3INlInnu/IkFYghm4t52JFBD+jJd2UlsWSXKl4kKXOawz7C9LIzV5Kb4GoxUQ5SlgkR1lX5JMXql02iJmkIZTCJZ/SNFgOFGQbdsfbDIQ7YFVSlu5Bn1ES4ZJySU7MkZv3bZlUMxmkpH9CtLoFdbLTnO7T429fCTUkEdd+lhOz6qB2sjgx1VB8SVy1MYYCuuYl1xUlHX/UgiXgPCzArg4GEVyXU3wquCCZiVN7ig2TSdpCckgoEzgeA6g0SQRtk4JELcgM0DwDCuqVsYw2wp9uZq7FHv/zGMQR4h3vIyLSmQFkLJOmaoSAWrJ6G5ePh9RzJcdxxo4bu37ThvOq/O93dWseqT051AuO/7DqRUzx+fKZspUWaoFvmY4S+m8T+WdJai+ihiwnsu3lpqqWsALJuZJVuXGUxZJjGBjocV1XjeHcgjRys5dX3lEOxlKk9JytpPBeiWkkBWkIpXC5rlQ7CHqhFtffoZKUpXvQZyRLbPOgRXLCu7KBXM/MzlsoroRo7M+w4W9frwrh2s9i7FrUeZdPJZasWSpN48WwKnuuxNHpowR/1MKl5TsTkmEOQCNDHly1pAAcKXM5V+K8m632MkEtfJZKZghllPJDP2vhipAanPhb00urJIVQerltxfxlT7NTNrxQC7xRvn0vZ6l2CKjlqd88dehYJ//eO/n+qXP9Xt8Qrd+0AV8Pfed7Ffwiuvr+H48pG+M4Dh4SHT5+pOLmCsdxxpSN+bdf/FvblvbFy5rxYy3jLxz/+taN/L2Wb173re37dqil+4cHSgu1KJPwlTefRGBOyaTHP0tmQiGfMSgn50vFg5NeblvBY3xZcmQJRACgtGAMSqMsS5IfhVrkG7ss2CzV/OSVEcsxqmHWKrlopO3c7MViTN4kJkCn0hVtwSmZN6TJzFmyNEpDqyeAkkMQXLN5Ld575TdEyu5SBLoHftWX4vigFpmdTdQi2eZJO18bh5jg03y6YSrBq8ffvtxzq+lmv9xAQy65/5Z3QQplGC8TqLd21FqQkVGjLjHY60kWSbEMo8eViCKlppAUc6NCyWY1NbUEIma/1E+42gtELVhaGktOMRWl1IIBarrUlaSGfgiotCfRmD9NU8/mciDu/xuMeFisOJewVZFVlyGgFnVqIn9lTn35fOpc/2PzHgMcWbluJVk52HNowsQJjuPwIdHq9a+Mv3C8ouw4zqy59SeHeola1AB+52xRC3UrG/5ZUo4MvY345Pd+sgLJYsb6geCRp02sQHKu5BNlbH/3gWdXNKmqg2GyNBK1tO1oZwxj9boFdaHjRcln5u3c7CW3hq6CQ3aWIln+M+eNI2Ep6pD9aEhDZPheC5IXwCKIwxzK7vQH1CFCCjmMYxRXqnTR6zhMEmEelxkfnfwqNTeH8bcvlpCgGV/BoJ9PfFCZeAkmuYM3B6PwT3pw0qQHJ2XCtipUUB3NLXVC7akGYl/6G/NAz5lji1Y8S+RE1zXZZhU0V5Swg0sXj/YoOFjiJVhFUNAQ0jPN8TmgFmkvECTOxm9MgA1oFWzIKfAWvpOunIHaRoPmU3sSNQxsYFtCR+LjKtmjJvIyVtTCQ5RvfPMb+97bTyZ6P+qb/uhD8iHRqXP97W/85eYf3IwzGMdxrv7G1b9reQEPjCxqoeqyavhnyaxIZTVYhgQmymImSeGcYFXHaqZd3mUFkhWFdz95/+6/f53Plb5CLaiOTPfMfQiqTIJHrh5FOwd7mapGOjBzJTY6+QvrT0EaQsJTpS6YBj9oIXdgXsRhrLVvrKtJ1yrRpHvQZ+Ry5nN3UGPlkBqDPskS/BPFg+uqLC/X8m9nYl94Kc7/JIeyn5zwKII/Z8Lf1ZCcQKv0fHnLbEM5xBlcgkeSkitzOnqgRkyBG5BneYud8nxLyY7xMjxVLZc8SC1JPmW/XBTEQ9SeLORQu1wOrMJ/IKYEqeZ4JSkG0Dml4LLN3QJ+uXRSzWRqT+pB6keyJBn2Qi1wEsWJGVbgitskaUqsCH4kJ1IQtnNHLSQRaePkUO/h40d6Psz9f1GWJ3uZZJY8l4htelHJwlhi+lPpCWqRSU2NVHEOgghIr1mMQAQ8woN5mcGMu9y+x2YgtVAO9nJFBoRrUueQ3XycpHhQlzKduZqDnVC1RC2KlLxkIpOdaHuZUqVIHDlwdddG/W/q8V6tuYrUDOa27WjH0iqHwlvoKpJJNdJcRfXkYF9FwbwEz4o9NSzDaqdmFeclZGFc58nkaNNenurCdH+ooTYJKuG83LZiZ+cuOYbwxYe3YkctPqzHcyuKzBIP5+YqSZLFlE5urF2LJYu3nItyZZZA7inl7kdOjKEdg7148B6ROK6GwFqEhkQJEfFQtGSjsG8mddfHKEWrKy/GUOSyxYte1Eab9rz0kGF/JgiDL81Mqpm8qmO1OuHzAtBehzpgzKKWT/7nR152iiKzeK0VdX+SZIlaV8VA39qrGKwQHQ9R2Dew7nrViejELCHKVnslYSyLWixqCdBASfhxIpmMoqolUlElKlQU9vWvuzjMN5+nyPcb+HDN/zGTqfNQiJhk4+wpoPbyERNs03BoqFONfOgX21yLWgJqdhSZpVBOkCRZCqXDONe19opT2/GvZe0bv87tignQgEUtFrUEaCABXl6iItiqVqKGy5Bta98MFWWHWQ1IDVjUElCzk5RZkiSLdOKktq29kmpZyGXtm2z7Wuki0oBFLRa1BGggIs+zZAM1YKtaoIpKeoC1b0mbzzJfKA1Y1BJQs5OUWZIkS6ECJs51rb3i1Hb8a1n7xq9zu2ICNGBRi0UtARpIgJeXqAi2qpWo4TJk29o3Q0XZYVYDUgOfoJZ6+89qwGrAasBqwGrAasBqoOg14NTX1w+ODNk/Vw0kSTlJksXVWAnrtPZKmEGVONa+SiH20mogEw18ctaSydDROSZJmSVJsowGb7T2SraVrX2TbV8rXUQasKgl4JApSZklSbJEFA9FRdbaq6jMEToz1r6hq9QSHA0asKjFopYADYyGMChOGW1VK067hMWVtW9YmrR0RpUGLGoJqNlJyixJkmU0RKm1V7KtbO2bbPta6SLSgEUtFrUEaCAiz7NkAzVgq1qgikp6gLVvSZvPMl8oDVjUElCzk5RZkiRLoQImznWtveLUdvxrWfvGr3O7YgI0YFGLRS0BGig2L9/Ttbe6vrr7dI9krKG5YXlri+zJs72na2/53RM7dnfkSSef6UVe1RqaG6bNm957rs9fxt5zfdPmTacmu0/3VNdX7+nay1kNzQ28y07/hjT3nq69k2smS4IduzvImGz704z/bpHbd3lrS0NzQ4ZqMc06ODKUFYVMFuo+3VNZW5lhpMPxMhy8vLWFPpMJJ4MjQ5J+Q3MDdQUms3Vpn0VddavGu2om9CSWYcgr3kK/DEYt/cMDi3/fPDs9x/x76923Oz84/MSv581Oz+nYvonMHT974qnfzp+dnrP49839wwPs3//+gSd+Pe+m7980YeKEh+seeXPP1jP/eRZ3//jKSyZ99Dzx63mdHxw2BzQ2/eZA1ztnPx4cHBkiG3985SUuhwb5f+q384+fPYHOgz2H0r96YnZ6zpMLnnzv5PtqiryMKLOYyRRul6pI8Y9hIPnJpx2RLGTJFIGyuDYQ2Ah+1wHoVNkkK9TSe65vVmO9LGkNzQ1qLVPPYEmtSzFja0RtLwiyp2vvrMZ6gg9XI5opuGN3R6oiZfabyuk919fY0piqSEHPMgVjrcraym0Ht5OZ8rsnKgOlKlLld0/cdnA70Y9ELWYoyR7ZHhwZUsKazuDqcqZQofTEY1+wKvUgTaA0IH0e1qGJ1chURaqytpKbB0mTyvFBLQqqLm9tUUaXnJBgQ3ODXJT9rg3CWZNz08oStaDYK37owFyrY3cHmfFBLYH5jQuV3z1RZiou1H26Z/GqxV53MWx5awuZ4UQvkKGiIPSQJwMRNYJRS+9HfVOrpzpu/9Zv2rDzwK7Lr0g5jvPN6775bvdBcNnVd/SGG29wHGdq9dTej85vxT78++mFzy+84FMXKDLTH33oxODJwZGhutl16hYvL78itfPALtcBZWVlzy1bfPbjQbJRN7tOaYr833DjDV19RwdHhk4Mnqy69x7HccrKypqXP6/Gq8vQMwtDQoVl6LhYCTI4MhS6LOYSrj2uEcWRcsvCTjZktkVntqhl1cbVsr7Kgue1HfRKc8gvZnYgt+E24rFX9+meWY31FEqVH1iHpYsmcMUWzL/mBpclRNKXuV6qjkaXq8u2NKI0FpI72ZANJn1Z+SQdMsDV2RNRIx77Do4MSRVJnQBV0FgQ/Ojpo9PmTZfDULCVrlQYSrNSXV6opfdcX8fujvK7J3JpNdLVBCaykUzSvubqrm4mYQryABOyEg0EFYcqa8klFNojP14NkCIqcsUQUlK2KbLrlMaWxsraSg5GAzLGE/Je8ubfnwVqufQLl86of1SeiLz17tuEC47jPDDtgVPn+gdHhkzU0rKypayszHGcCz51QeUdt1Xde8/Fl14MXDI7PefDv5/mUUrNwzXjPj3OcZwbv3OjPGsBahn36XE1D9fMTs+561/vAsGvfu2r+9/bTzYCUcuHfz89Oz1HLu2vxHAzC0PFRMFJRS0K15vaZtCqAOMlswnmypzilchUlaXaVa5xRS2kqdYdHBnCAQNTrSlLuD3h+p4Pb1IthBcYj1tSnzJFyn6emRMAua7oWt7USBYtubpss4J2n+6ZNm86d/ygw+kwmbKjFJZ0JANyuuwPvR2bfZUepAmkBqTgqki7Qh9paEkTYcL4ZUMFjtdZheKWNgUduShuIXOqE1MJHSSkoBGZExS30+ZN33Zwuysol0uQeS9ECG6VyFydDWQb4o/BkSGpSQ4zG3IYt4XSaiwx0sSkI6Mg6pDnomE1skAtPKuQaxMu4OiiZeX5dwsUaunu7/nuLd91HOfyK1Jv7H4T0w8fP1Jx802O41z6hUu37t1GmiSo8AdQC85dBkeGTv/jzLQZ00Fz54FdXrPOZ9L/PisC/83Lnwfcqbr3HhzzcGnXRkSZhS7FRZXrsD/ERkSy+HCI3CFj0hws48e8KzMpj6mQESRZRqasbYoabqmsJ+McIIYHMw3NDVwiE0HUcvlfxm8vswAofUIPwAFqMPKvzOyupY41TDVgF58aMKux3nxCtLy1xSwM0mdk27SI13IK6JgTQ+mJ076qNtOxGTgKK6i4MIOUmwe4hLQmsawkIhdS2pOBhlvKanK3ADfDEuCKASvJSgr+qAWzCGLwGNF8c07KgnWlk8gloBAqQXIl28xmKmQkHJHjVZvDZOFgtLp2Kgq4VFHMvQf5zzbkXVcJtzNM1OI4zpVXXfnWu28r1NKxfRPiqZ0IAAAgAElEQVSOTx6Z+fPT/zhDAVa1rsaZx6LfLWKnF/5QqOWDM8fv+te7HMe55dZbuvt7vGYp1NK6sfXKq650HKfi5psOHz/CRX0aEWUWE7XgyNT1uaYPe1ndikgWLx56z/U1NDes2riaKdJ1JFOPTHyyLbODV05hTmTcIguDDrbj0+ZNV6RADfuqytrKvd371IuiMteb1dFVnBA7Y7AXy/by1hbkL1NMHj5ByTLJStspOOiqh+WtLY0tjUrJ5khWCGlN2QYncDC8NJOqSE2bN31WY730HNV+YvE8+gPe46HbSB5kwZP9obdjsC95lkKx4JmwkgGCBIVHDHgt3XzcIC0uaXJR2hELwbVYrYlTJR3MJRI6/z7Tof95nwl3SYFPVbgiGnAVKYvyBOUG5hMi/7MWRATpQzrGRSaoBWN8EqOMLJN5GaTqDSFowBXN41bMIa9ME8plFqiFL5qggXdWCBe+e8t3r/761Y7jVN//43eOvivfa1m/aQOmPLf0Ocn0jv07v3j5ZY7jyGMVEpSdfPGlrKzsa9d8/bobrhv/mQsv+NQF0x99CO/Ses2SqOWCT13wv8f/b3Cypm2t5MSnHVFmcUUt0jsZAz68ZXsrIlm82GhsadzTtRdoDK9SugqF+JRxKAnKbIt+bvI4TNYz2cYAkwIn+jSQmJhWAF/M9OpDIf9bsdnLtXj788+6ApsyyXrZkZAI5Q3wgvs5uZZM+qY1MVIyLMdLOl7t3PzBi1o+/bHZV52jSIQhNUnNQKXS2818pcJQ0qROJHHZ9tp7cKJXg7sIeA6cikHKWQpVyIMQOUbCDpy1bDu4HVnL56wFxxg4+eM77HKJTBwykzFklQ3IK+3CW1CpfK2etwJNw5H+DfBMpBgY8v7U8rkbGmqpm133p9dWlf2/f+lfPXHdDdfxbdxXNrzqilpcoYZrJ1EL6PC/4z9z4fxnnv7w76e9ZknUwlmAVnhNOFB3EWUWMwtIThCcrjVeDsu2HZEsrmxwByDPkADzvQqbKx2zU6VLdaRp1jmViyU0ZBss8VAhVZFyZZJxi69aIj0Yi/PtaVYUVgVqBg0UBim+V+qUOoQDqxICIotXLZavfMr6IUPDtCb8gQzjPYDK2koCIG4llQgcQH/wEhYTQ48+05PjjEclLAwK9dLVqRnFKt/hoPJNFQWWRmkyiVpY/JS9WB0l565GURTWbllbXV8NB+OJmjlRPhLio2Hph0oJvFze2tKxu0NNjwG1qDgiP2ggrGY11rueElG3FJDmkOrlMOa33EJe8Rb6ZRao5cqrrnxx1Ytr29fhb/OuLaf/cUbChQ//fnrmnJkSHOA8pm1LO14lSf/qCSnA+k0bzH5JUA5WT4hOnev/xeO/wMs0r2x41WuWQi2XX5ECnMrk6yGsHlFmkalZisn28tYWcw/Bu7k1IpJFMQNHl0VCCsIU07G7Q4aEDBjXNsskUYsskOYUxqfMxSr/InuqX/uQ588mWfXBp5I93Mt47CVP79VZN8RRCRpjXDXDThRC2JqG81IOhsFJTAPJWcywsuhyUXTK+oG5oC8dkr5B4nQq9sTQiM2+Xmct0EwgaslEFUQttBHtIht0Bqlw+RIG1lI5hNhUklJtJhlAChn1pkuoR0ISEHihXixH/hEUrVvXKzbUJblSOjQF5AB/BhR9oDFQI28kRWWaz2SJWsINebV0RJdZoBb/t3HxQIfv2AK7ALUc7Dl0zbXXnP8sqOLbnR8chiQf/v309EcfIuygeF74Q6GWwZEhPniqm13nNUuilvGfuXDdX9Zt37cDr7bgFRyu69WIKLMEohZ5ROHFW7b9Ecki2UDOYoVAujRDl88LMJcpTx2cSMpsy3yHTixqbqd4l1VKpWl1ifGKvv8luYqiEYO9wLZMYaqEqEtzvAI95qXSjE++ViNxqTCHOUYRNEuUoiDrGakpK7M/0kZs9vVHLbIQIlKgUtnv2pZxLUMYSkOMM/SUJpXCldXUpflljVpOXSp5vXAAeAPKMaE5GJahIUXwGi/H+LSV0/qMxC1Xp8Ut6HlyzWQ+1VIvtZjKUUGqYlxdYhWlB//LQHHyHJAFarl2wrVvH9zd1XeUf/3DAyZcWPeXdeM/c6FELaf/ceaxeXPRc8utt/zxlZde2fDqz6b/DActeJ2WYpgEcQuo5YuXX/b61o1dfUff3LP1zrvvBM35zzzNWdMffYjsdfUd7f2oT31DdPbjwaYlTZjIT7W5utmIKLOYqOXQiUNy9VI8a3FFWq6dUlK170GNUVlSbiN4FoKkyfjnMylFXAU8pgNXmVbA6Yv/KatkRq0V7mVEvmcyqXIQP6SEbrkX50SvMkCrcUrgSE5hCfTfrGM8B3MXTqDstSIHwB8Oneg0Xy8lM2hwCgUPtxGPfV0DCgLi520opooUKaxr5VMDqM+O3R1YFOWTziDHK9QiPY3uJ8djgDKQvJQuYaIWc0ujYIe8lLyp0CBLcjyckF/gy3eQOV41mLVUv9elj2nAoeRZKtMEfFhCyUWdq7nkxyusaAJXK3N6uI0sUAsqvfyv/JU5vjwrfxCFvzL33sn3K++4Tc5F+8qrrty+b4cUifiDBHEXqMWVgvrZGDnmuaXPKdQyODJ07PQHt935I/mptmRAtSPKLGa9xONSrI7EHbofRCSL0pi6DEQtSHBMOrhkJpXUoBYJGmSMeSUCVimmFdZF142gjH/5AB6cqLuSvdDbsdkLKaxjdweTO5OUqxOqlOd/qdTS0Nwg94Xqrnnp4w8YTLuv2rh6T9dec5uuKMAf8N4lKGCAksLkJPSe2OwLzoEhqC7sFmQ0ydLIvQHLkmowYDGSlzwuhS9Bt6YXIY4OnejkT1dzRckSda5gk/+lQi0k4tOQKETCDgYCxGdekuPB+eJVi/G7QRDZVQoyIK3ATp+GNI3rMJWX5K9kKV1hepwh78pwPp3ho5bBkaH3Tr6PH2ghasGTmqd+Ox8fDeHn5vgFkBQgc9Qy/jMX3l9z/4GudwZHhjhLQhbHcVxRy+DI0MZtHTgQuvrrV+87sl8yoNoRZRYTteDUjqmB4aH4yecyIln8WQpELYh/PCFuaG5QNcaHOJ5Gy4SIuQqL8PUX9jMTuWYWM/559GqCGB/28r8Vj72gNDgelImUih7iGCmOKvD+l5woszmAYyZOHugP4PaeWffAvoGoBf7AKgv6ENOcS+ajaMRjX8KIafOm4/1xaAwHLTJ8fEqja+Vz1Qksq9xG/h4xZnHnwBhknNI0kr5iwP8yH9RC54dmlG+TJaIWsG16sle/FN+cRfqqweVUPy9V1mK/61lLbCEv2QixHYxaQlwMpI6fPdHd38P/A1Ho9MMlGFtmCZdtV2oFkcUftfBkkrmVuE01VC4z8yBFRkJkOmbAczNH+MJEKdMHhykGeMk8yxUjasRjL6QwqIsKwSWzmxKZsI86UQ0qH5phiZLFjMTZyR5FzesSq6DMkEMv3mhi1iEuRwa4c6CHRGRZkI3TvlJGrG7qAZ/OsWx7qV32U+2g6fNcG2FFNlq3rsdmgMuRFL1FehGHydVlW+UHILDA54CcxSwB5Irl8AtAkg36A8ZvO7hdbml4l9qQjqREoCrULHlJVbj+kp4cmQNqgVwRhbzkLfR2AVBL6DJESjCezBKpCCReEFl8UItPpJHnsBooZq4JCKmBSdOfK/+7YXELOnHaCymVSVwJAu0xz7LgqWG45F2maerWdTxTs6t1XKfITmUR87wE6ISoBXOxqCwqpEm21RQOCKsRp33D4jlcOiiZ9CtJHCiHDqkOV+RI1+MEn3MjNVe6H7ELxrCiEx75e7KiHOeligL1fp6Pn1PDitvcQl4RiejSopYhf80mKbMkSRZ/qyXjrrVXMuzoJYW1r5dmbL/VgI8GLGqxqCVAAz7eY29FqgFb1SJVb8GJW/sW3ASWgVLUgEUtATU7SZklSbKUYrBly7O1V7YaK63x1r6lZS/LbZFowKIWi1oCNFAknjoK2bBVLdlGt/ZNtn2tdBFpwKKWgJqdpMySJFkiioeiImvtVVTmCJ0Za9/QVWoJjgYNWNRiUUuABkZDGBSnjLaqFaddwuLK2jcsTVo6o0oDFrUE1OwkZZYkyTIaotTaK9lWtvZNtn2tdBFpwKIWi1oCNBCR51mygRqwVS1QRSU9wNq3pM1nmS+UBj5BLfX2n9WA1YDVgNWA1YDVgNVA0WvAqa+v7x8esH+uGkiScpIki6uxEtZp7ZUwgypxrH2VQuyl1UAmGvjkrCWToaNzTJIyS5JkGQ3eaO2VbCtb+ybbvla6iDRgUUvAIVOSMkuSZIkoHoqKrLVXUZkjdGasfUNXqSU4GjRgUYtFLQEaGA1hUJwy2qpWnHYJiytr37A0aemMKg1Y1BJQs5OUWZIky2iIUmuvZFvZ2jfZ9rXSRaQBi1osagnQQESeZ8kGasBWtUAVlfQAa9+SNp9lvlAasKgloGYnKbOUuiw9Z47VpGvbdrTv7NxVPqW8bUd7ocImnnVL3V7xaKl0V7H2LUXbjbYsVIQ2sqjFopYADYTrtYd7j0yqmbxkzdIcyDJfHO49crj3SE26Nt2UBp0la5ZKmhzptcqSNUs512uM6j/ce6RqZtXOzl2yH2wc7j0iO8Nqx1DVes4cq1tQJ4Xa2bmramaVl0SuSghLXpNO2472mnRtz5lj5q0E9MRg3yLRUuZR7xWYgRENSdNNaZkHohCfnOSZhUgnfya9lKYoZ24FNbHYLkNALctXtsyaW2/+tW5s7R8eMO/Of+bp3Z17Tp3r7x8eOND1zuP//visufXLV7ZQNUdPdT+54EnZ2fe3U5t2/nXajOnX3XDdd75X8fi/P/72od0Y/+qf12DpletWksKpc/3LXlqG/lf/vIb9OTQiyixe6RinCKmKVKoiNalmslfxyEGQ/uGBcGVJN6XlaceSNUvBNv/rWm/STemc5UKcu2Yl3CIQadvRTjZUAzzv7NxVk64Fh+mmtBojL8unlKOoexXsdFPaVdLcbCRnhWsvSVm21cGVlzZgtcO9R9ZsXpuqSPHES+pKtdNNaenP6q66NL3Cx9yS//7hAdeRXgXMdFTFCS6lb6vlwrqMx75hcQs6UUf9zs5dkx6cJGE01oWJA43iZXQqwcu9pQ8w5DlLNlydTTKZYRbqOXOsbUd7+ZTyJWuWAk9IHlS7Jl275cCWugV1rgg+Q9TSPzywZM1Sf+mkpEXbDgG1zJg1w3H7t/D5hf3DA653x5SNWfS7RafO9b+5e+tlqcscx5kxawZ1dOhY5/Xl17Pz5FDvL345e0zZGLnI+AvH/67lhVPn+vce2XfNt65xHOfbN/3zO93vgsiud9+66mtXqU7Sz6oRemZhHjdLHfJpYGRmxb8cHKIsMuSwhIocV1jmXzAYTlSRCl3XS1Y75jUJL9jZPzyAHMGEyOyjMt2SNUtN0/QPD0iyUqte/XJMbu0Q7eXPAM9XpNXY2T88oJBZ2472STWT23a0y1MZZN5MvFfhJMmbv4coByB+Ramb9OAkNUBdopwo+0oPASeZCyI5z6Edm31z4M11SqRRzxUZjz61nFHPWWhwrurnZbopTVThGtSETfFkISyHUDJTE9nuHx7Y332gamaVZJ53Ve5Fv4/2VFx4KZP0i60RGmoZO27sA9MekCcuOGsBauHdO+6+E/jjK1d/5a2Db2eCWlauW4kp3/jmN/5tdl3NI7Wfu+RzjuN8/Ztfx4nLwucXAtDMf+bp/uGBU+f6H3/yl47jjCkbs/SPuTyJkEYKN7MwY6oy0D884JPKJT/5tMOVBTiAHq/Sgax/4JnnH5xCWSC7a0ByDBr+WQkVCCcBctEla5bilusSkqYXBEk3pecve3pSzeRURQpPo1Tky8tMKreSy/UydHu5roJOmECaJt2UBo708kwJa7CNc1WvuagXQTnSx15yGNrK99hJWCOnMAbRaVGLVE4mbWBWHAMrzecT9fAKxlFNunZ/9wGAYx6nIbLMVci211EKPVMxbMY7UQtpmg2ZMcy7OWQhxYaXgDJwvCRNVaSw6VI0TT7Ro6LYa1hR9YeGWi5LXfbm7q2mbEAtvNv7UV/NwzWO46AnE9TC05q17etAf+Vrf7ruhuuuu+G6ti3n38d8p/vdb9/0z47jfOv6a/e/f2DnO7u+9JUvO44z+fbJ7/d2mSxl1RNR5TBRi0qmWTGZ4eCIZMFenCclYEYFHiALqog8UjIjHNPNjQLyjk++MLfICPKX21aoN2lUoIKmSprMnm072sHky20rqmZWbd63pSZdu2TNUiVghibIalh09lJsyDqEW0vWLJ1UM/nlthXKrFL/VKNrApXnVaDGx50y+SpOeKmKh4ktzJGmz9CIqYoU65YKNJOy6UhcK9xGbPYNl21SI65ljwqKbKOedIAtpCFoJjRc8SgSkdctEM8KtZgeFWIWkgckRBiuZ41yL8FZMhLZiZ2kDD1IjYijZmQGps5LqBE3aunqO3rH3Xc6jnPzD24+fPxIJqhlbsNcHKX85IF7dx7Y2fe3U6Z+l/5xKc5j5j/z9GPzHnMcZ+y4sa9seNUcmW1PRJlFoRaEIhNrtkxmOD4sWVjgEU6ur6ow4MunlG/Z/wa+/SGfpCDLCe+aJ7cMSzawuWc8uz79YcWFejn4cO+RRSue5ZEMUYt83gEesNVTp7g7O3e93LZCJWjJfFjtsOzlz49yRZiGiQ+X8MyeM8fOq6JmMu5K1MKEiLUUMsgBtajqwqKlZEE/DC2LnCpgym0kmvFqh3VgphiWl/HYV66YT5sxG13Ugz1iaGlQLwdQEslarm7h0hVhKx9g3iCYwFx6ERv5ZCG8WgdlciFJGYtSG0ocKamcpfISAApW2de9H0TQgCqYFRX9Yr4MDbXIl04cx7m+/PpDxzr5XsuYsjFXf+Pqb11/7fgLx1/wqQtqHql9t/tg//BAJqhl297tODvBEuMvHH/HlDtee/01CV/e7+2afPtkx3H+1z/9E+DLfQ/e/8GZ4/mrPqLMokoF4hPOhxBi5OQvAimEKwuLFuln0uBzIlQFpEJTWIYxaDIsGZPIYiiWkhNo0iTIZ3Csx0wHRC3lU8pV/gKywaJ4rsxnz+QkE6lzGxOuvVx5oGKxS+PxshqM3AdtU/NUu2sloJ5VZqchfGCBwqDqAYHkDfAI33b5FDkppkJUZjmUdORaobdjsG/oPNPoWVHOMOrlVqFtRzufyaqo9Cm0spa7cqjQsMozcE6+Dqzu0osY+4wFTOS2J/MsxFMl+HDgWQuFkpKSMXnWIg+6MIvcMvUx6n2CkSsWTyMm1KIwzfgLx//qP351cqg3E9TSPzywu3NP9f0/vuBTF0g6s+bWnxzqpSpf2fDq2HFjMeCSz1/Ssb2Dt/JpRJRZXFELd/9I9PIyHxE4N1xZmL8QDCqz4BJ7dOYsr5MVRaFtR7tXvuCiMvAgIPeCrpx4Lc1NOSlTXap6KZaYuTg+9Ea49vJhzzVXSjW6JjVqTCZQrKKQgetZi6SPt4UwF2qvSdfiq3I1jJfppnTPmWPppvSuzrckauEA1eBBpuINvicFVHb30Vuet2Kzb558yuk0uopZqe2co5405y97umpmFWJ80YpniQZkVQZXga6rNjChoBYqIawsxNwi8QcEVEu07WjH5kEGnZzlk5ekq/sMk+YuznZoqOWiz1208PmFq9avxl/rxlYcdaj3Wj44c7xuzky8Krty3UpX1PJu98FvXX8tvyGi4k4O9e56963Gpt/8ny//H1Dgmy79wwP/tdx9D94P1DL90Yd6P+rjxHwaEWUWV9TCxMo9h+zJRwrMDVcWhq7aoGAtM/WjR2Y31Zb5xRwMVSC8Ecmy0rjyIDUmA5t7d76lu2TNUi/Qw1WYWUA2hrAP115SG6qtCrm8KzMdBcdml/k03LMWUJNHNbQXbSE5VHbhLa+07uoJkrLpuqQZbiM2+4bIdqRRr955dw12aVbs7nySpHo7ilsUKsR0Hjkl6izEtdhwBWHybImoS+pBurRPXjJjmXoorUZoqIXv2yr5FWrpHx5Y274O2GLGrBlvHXz7K1d/Rb05+5c3X7/ocxcBtXT1Ha2+r/q6G66reaS258NPfmzqlQ2vggI+ruaK/JhIohneza0RUWZRqAX+JF8OQI9PQOYgTriyyPyFdCC5ZXSRT5UgsrpkWEItrgcnjHysqKKXFHCXlcmMZEXHi39Fn8NCbIRrLx/GFGqRCdHUDwebGjCNjkVdz1okUCBveDZUt6AuN9RClky2uYQrxlIAOvRjTq4uG7HZVy6aZzu6qN/ZuWv+sqeRFvDmO0/RGLxmbPKWq1xqPLOHaW7Zw+2TylFci3RkxgMDakU6JO6SAi6J+5VWgcZUCKi3/XzcGBPlCbeUzrXtGoyuKi2GztBQyxcu++KGv/750LFO/gFkALXw7qadf739rtuBOX71H7/64Mzx6vuqcfmTB+5t3dj64uo/XnfDdThKWb6y5fjZEz954F7HccZfOP7phQveOfrOWwffvnPqv2DKspeWSSWWLmoxqz7KqhkVUt5s2+FmSRVpYBjAS1Up8GluXFT8MFn4yyVf/iX4MM9a/PMFmZdZBp80owfT+dmLShnmSbU/z7ndDddePjwQiGCMP2rhXWIU/kAwetTvFGf+Xgt/qFfxk9VZCz5sQdmT5oNoqDfm9kBmbelUPkrL/1Zs9s2fVVJg4KAn9KgnUEg3pflsSHaqlKhwAPlEQ0Y3D7CVrdUPXqspiiAvQ8lCZJ4Or0Jgzea1Ut62He28ZBiqAyeV98gwX2ExwZAcUxLt0FALYIT8r8+vzDmO86WvfHnb3u39wwNb3npDvmxLClOrpx7t7z6v6y3t+IEW3kKj4uYKvNJLRZc0asETCuZT86tCiplzI9wsify1v/sAfxKeD1nkkSa5ZepBj/8lx+AnUoBvEORoI/XIHKrSDTMCSKlLxra53SEdphIyIxMcKeBuFP8N114+HEpJ1SmF16Us/0ygQC1m1VcoFn4ii4fiTfKDW4oNOV45EpK462kcoK36P1iZlE3+5XIhtmOzb4g8Rx310prSDXByYCYWFddKUsYy+s23vOVyGKOmEOtwixViFlKBI/EHZMd+QBYF16jxVwLkolfHkLiUFUK/LABqGX/h+J88cO/uzj0UZte7b9059V/4su0XLvvikwue5POg/uEBNWD8heNrfz5NQZb+4YGSRi0qPMz4pLpyboSbJXkCSVb5UNb11EQlCJ9LV/SD6oK1sHTbjnavCCRvEuJIvaG+gma6Kc2QVmc2TCvJPmtRmmGCpmU5gDmdBUCWFp6+SDSZ+VkLV5E00WliCw6WjoRhqYoUPz9RrqiezLqe4kiCXCWKRrjxGAWHJk1GFn0jrKjHWlS+tDjNykXJmH/BprvS0DyrUMuRIF036izEnEMQzx0UQgaHIlQIGSOrbPgrgWCd6EcuRCIl1AgBtYQlbd/fTh0+fuToqfPnK65/gQNcZ+XZWYqZxUvkcGVZs3kt3u1H+Mn/cRJTG+NEYTLWRdlQBUZKgbQlMw6XUJsPPO6VpJh9eDTKhChLL1mV2YHPPlxRi2SebcmkFCGHdrj28meARqSWeGghP/ABTIRagPbwsQ+IS5C3ZM3ShS8vkkdlVJFXg6oDaqlbUOc1Ev0wGdI6ErH5Pgqtn6pILXx5kTwtA890BmrA6/NvfwXmcDdO++bAnuuUqKOeRZrIFRaEbyDqGarSRb1chalAxjVF43LST+iHHIZGuFmI/ABJH+49wkNryEU28GCIXw8prtRgdRdeTSXwLvpNFMgBxdwoItRSnGoqxczipckoZMFOiwEml0YiYMAwQcgxbPvf5TDXBrKJrGSuw5Dy5GfVsspKXOUqTj4cuvIT2BmFvdSiTNY0kxqASz7Fx66OCZeD4Qb+RDg4sMGKFTiypAfEYN+I9BNd1CPKNu87/38K3Nm5y/X/9iefnvsfM8izlohUQbLZZiFsANSvQPHtExN/cyGz4aoE2MgflxCpSyBo0i+2Hota3M91aKfSzSwUgY0kyUKhEtyw9kqwcUP/f7AnW1dWOqsBasCiFotaAjRAX7GNmDVgUUvMCo95OWvfmBVul0uGBixqCajZScosSZIlGeHnL4W1l79+Sv2utW+pW9DyXxANWNRiUUuABgril3ZR+wQh8T5gUUviTWwFjEIDFrUE1OwkZZYkyRJFMBQbTWuvYrNIuPxY+4arT0ttlGjAohaLWgI0MEoioQjFtFWtCI0SIkvWviEq05IaPRqwqCWgZicpsyRJltEQotZeybaytW+y7Wuli0gDFrVY1BKggYg8z5IN1ICtaoEqKukB1r4lbT7LfKE08Alqqbf/rAasBqwGrAasBqwGrAaKXgNOfX394MiQ/XPVQJKUkyRZXI2VsE5rr4QZVIlj7asUYi+tBjLRwCdnLZkMHZ1jkpRZkiTLaPBGa69kW9naN9n2tdJFpAGLWgIOmZKUWZIkS0TxUFRkrb2KyhyhM2PtG7pKLcHRoAGLWixqCdDAaAiD4pTRVrXitEtYXFn7hqVJS2dUacCiloCanaTMkiRZRkOUWnsl28rWvsm2r5UuIg1Y1GJRS4AGIvI8SzZQA7aqBaqopAdY+5a0+SzzhdKARS0BNTtJmaUgsjQ0NzQ0NxTKv0t63YLYq6Q1VlrMW/uWlr2Kjds9XXsn10ze07W32BiLmh+LWixqCdBAni64p2tv+d0Tl7e2+NDpPt1TWVvZsbtDjtnTtbe6vrr7dI/szKfdsbtj2rzpvef6MiTSe65v2rzpiqsM54YyrISqWvfpnur66rASKDSfCdjtPt0zbd506ST+Vva/G4rVMidSQvaFUB27O7wCGQ7QsbujsrbSa0zmmslz5PLWlkycJ6tVsvWcDLOHK/JY3tqSYaZqaG6orK2U/m8K5Uqtobmh4GYyWc2wJy/U0j88sPj3zbPTc8y/t959u/ODw0/8ep5566nfzvH3d4sAACAASURBVD9+9sTrWzfi1pIXl57+xxmwu/+9/XMbHp+dnvPsC8+eOtf/x1demp2e88Sv53V+cBgDjp3+oHn587dOvnXCxAlV996zqnX1qXP9uIXB5nKKQoZ64bCIMouKgY7dHamKlPkXrmNFJAt15dVwDRs5GMkOscfBrqjFS1FSdV5hnO2pj+RKchtbO2Z7LW9tSVWkXF2ORmlobqCqATTL757IHjZkzpVTOMBsSHQITswxqgesduzuKL97IgATSoUahkuwdOjEISb6wFUkS1EYPWb75i/CtoPbvUAJYavcgQRqmJZSqgYR10AmfWyHSAFIhZeyQeJFmD1MgJUh3IE1qQ0v44IaIkUOHr2opfejvqnVUx23f+s3bdh5YNflV6TMmzfceENX39Fjpz+47c4fOY5z6RcufePtNwZHhj78++npjz7kOE5ZWdmfXls1ODJUN7vOcZzLr0jtPLBrcGRo54FdV3/9akWw8o7b3jv5Pgeru7gkBS/T+vSHnlkYbDKzmwwsb21xDVpzZOY9ocuils4kKbhmE4aQjFhX1KJWNC/lLKpaLurVrqyt3Nu9r7K20muA6g/dOqYsUdtLrojav2rj6vK7J9IzaReiFkyBmeR2lkVrcGRIIXK5Ctoka94aHBly3X26jmQnV5Q1gJ0mt8CvcjDYjsGm5HlwZChO+8p182kjpogDSEo6ADuV2zQ0N9C1OEaGPDppL+BdrMW4lqUX4yVsRQ8taxLnuq4NrgI/dEXkKg/gMofssXn/FkUfyjGzVvndE7cd2j5t3nTXpV07qWcpESNicGTIPwZdlVM8nXmdtRC1XPqFS2fUPyrPOd56922ilhu/c6O8hbOWwZGh9Zs2jP/MhY7jPDDtgVPn+l97/bVxnx7HSwIRYI4Tgydvv+t2YJp7f3bf7PScW269BaDkyQVPDo4M8ayl5uEa0OG68rQmW9WHm1kYxq4BTN4Qma67Xo7JoRGuLD4MyFCRw1xTnqxSZsQyJhmHkqDZ9lqamjenuPaYqdB1WKSdsdlLQmQketRvpjalPVweOtHpD/JQPGjBwEZDc4OPA8jppjMAMbNfSuFlSta2wZGhbMtbKHaPzb6hcEsih04cgrqkRVQbp1/SbVyP3PB0Tz6HVakPZl3e2sK4VqiFl/7nOhniUa5CYdGQgqhbrpdeLicHq7UIKRqaGyQolOkR0xmVkhqACP2ft+QBs6sJYDi5IucWbSMc1ILjEyUkUUvd7Dp1C5fycOV3f3gBRy+XX5Havm8HBsizFlKbWj2196PzryYcO/3B/TX3T5g44eG6R/r+dopLcKTXuhyZSSOizOKPWmQVyYTJDMdEJIu5uuvGy2s729DcwBN+GZAqqrEK0qXc5avVXWcxtanBPpcy2jM5P/AhlfOtGOzlpU+k6VmN9YDOMmu7ZmRpceZfL8GlleUYQgelfDnG1RaSPQxGfC1etViWK8nk4MgQUAt8QxVdrydlipM8L2Owb54cZj5d6RYTaRfUSxm2LMY0OizLVMClYaDFqxbjLTcZyz7ei7UkcWJTyQZXQSPO7KHWQtS0bl2vkAcVRVYl2mYnJFUbXewBIK9azisGSbCYG4VELYMjQ/uO7FcPfRYs+o+zHw9CZRK17H9v/1e/9lU8MHpx1YsnBk96qbXUUQvCUvmfl7BZ9ceZJV0Lj9mJvRRSlYpPFWaQ1CtPUQ+us1DDfM4GZG1zfUgRWInJQIiNGOzV0NzQ2NJoHpnA/ZjaWH5kzfA5RZeZF1NMWCB75HjsGuVds83xpj/Ao1iZuFkfHBnqPt3TunU9EQlRi3qP2LUAhGhWkorBvlwr/wY0mapIUfmSJpSmtuxwm8WrFsMcDH8JfDkRkdvY0qjMjdhkXEsPpFuCE6+zBHJleosUAf5sfgEQUfagROABGWZWYz2DDv1qmGt2cu2EsKmKlFI+dRVFiVH6jOgyHNSi3ibBcQjRg7r73NLnpDDPLX2OA757y3fxkgoGSNRy+h9nHps3lyMdx/nGt655csGTXX1HJTW8/oL3aUr0rCWig5aYn6MrCOIaV0hAqzauRtno2N3BYuOVQRiKKrXJSwVBZIpUrsLnEcxrXhuypKIW1HJVtpk32WB5YOlKVaSknuVWW+lK3oL+SRaXajxQi/QEZTU5XpLCMwLXiahnsDI9k6jFBG1ENmrpcC9LC7VAdnqCUgXBh+w3B8MQ0nPURHWQwJrNBlGLSgWyBpOIIq6myKTBtuTN6/gHMuaZPSgRqNGrKSBXcQVSys+JCKl/KB+Qsfdc36zGevmJnwwcTimVRuFRy1/efB2voTiO85MH7uU3Qeq9Fryuu+yl33/tmq9L7HLlVVfyiRKUTrRUiqgFLisjMERPijlLykBCvlBy7ena29jSaFY1iKyiGp2goyJWqkjNgj7NY2eURtd+FL+O3R2yQjOpoeE6UbIRSjseeyn9S0sxtZnlx9Szgj7UAEygFKgu1fbda9PMWVmN9zIWUYviXGqAUkTRiMe+4XIOT8AH5zRHqiI1q7Fevp6CRaXbIJrK756IT/NSFSnYBdrmtoGAAxT4HR/9TRV1DKOjcl3XFFFU2YOgh2qkVxNYAzYpIGXuAKkliI//NrY07unaq/TJAUpj7C+JRjio5cqrrnxx1Ytr29fhb/OuLaf/cYboYUrVFN5a275u/3v7qRp+SQQgwq+HMECetXDK4MhQz4fH1m/aUH3/j8vKyhzH4ZsuGMN1SxG1+BwMSA3k1o45S0oE5vMeD6tmYK3q2N0RmHekZjB42rzpqixhjGvcMpUwjWIwd0KSftTteOxF/UMcWUWoIpYfIlH04IEL0y4bEigo+sCLEr+66lY6T6CeyZU50nV1lDTM8gJVkkOTbCg98dg3FFZJhJ6AHlkU6S1ycHV9dXV9NZ9T8BbqsQl3JEGMQS03UQtLOyyIN0LogbJBBFNU2YMSQScqCpgwXREJ3soCmkHKUvmKeoY+mdakWmSbgIkTi7kRDmrJ7W3csx8PNi1pAl55YNoDeMHlxopv89dZJGpZvf6VCRMnTJg4of2Nv0ChJ4d67/rXuxzHUauXNGqhs0bhNPFnSUaLT1SYdQWyq6hGZ4Z5B0/Z1m5ZO23e9EMnOqvrq/FNrwxU1ebnhf81xfzJO5VTorCOSTMeeyn9sxhIeMFaxRyqSpQiImXxggVS/8o96DZyjGyr3adELRJ1mc+/cBeIxBTBtLsUJPR2PPYNl216AshKkCHbvEvLQvMwojSfspciQssyG8CduIGRnxdRUkWE/ViLIIb9qhFP9qBEWF1lGAaU6pescpvnBVn4yrmchbZyfnNAMfeEg1qunXDt2wd3d/Ud5V//8ADRw/RHH2J/V9/R7v6eM/95dnBk6K13377yqisdx8HrLHzB5bF5c/G7cxK1dGzfhAdJP6z84Rtvv9HVd/QPf/oDPpz+/q3f7/nw2P/P3ve/V1Wd+e4/AH6wv+j8oH0eW21n9HjvY9W2Y7V+CZ1pprV1bELb6wg2ZWqZjidQvTiRFIs9JrUVKLZCAEdCybQCBRtocJJbYkGFEIUAKgENSQQSTgQShzydMT/dMh/vp+9919p7nyR773Oys3zy+Ky99lrver+/n7X23gdqmetOubMWBGR8m7zksyRTldx801JoMD5Vv4pq3C087zBd+tE34xYv1jAtSn4CcoccFm07GXtBP3vf+vMPQjCtU0WsVdB/ZbayMlsJBCPBhGxT/6ZOSNa8hTyLxweV2UpywpHyizPZyZHgkHlcWZ+X0srS7i2v7lRvAHCVyBvJ2DdatuEJvWf7tu7apoqiGSN0G8WDDG1lLwAOPpxl3uAUZbiyubPgJ8FfPsMfSip7UCIox9RecD8Pq6znWFS4H4ALjkFOL81GNKhFvmiCduivzJ25kP/egu/J35TrzffhJ1gu/+gVu/Ze/HF3iVrOXMhX/+8F5kIzZ85ct/FZqdypi1oQq0y4UqhI2glnSWwFIA5yirWSsZAoGVVU426BeYdbNHO3zVX84lamRQ72yykcEEcjGXuZ+oeSJXqW5QcHIUQJENwkQoVwRygxjdne2NKEdeVGnC9D8KjMGh0B5laM0al4pMQBtDvPkyhCTI1k7Bst8/AEvMUycGFQFkXqFnbEz/8j5IlCzNecORh8SoLoUeagmXDXimJNIhiMtZTr4pb8f4A7cdjkswfVBZp+GUaGHldHDEK3UEimPGMNDT9V+PHPJUq5UTTU8pvfbcVbKfPm/yN+f2V4bIQ/NPf1e7/Rf/ZdiVqGx0bOXMiv/eU6HM8Avnz+js9v2/kCTm6o5amLWuL7egjKSSZL8nhflj0wgALG/RM6WTZoQTRUVPNu6EM0MMAY9qPvF7cqLWJdv5xCruJoJGMvUz9mj8x9EoWEKtmqFj/Nm4PlWgA6VuDLiShLhETmYNYAeBHeKoWjSrtLeUk88kYy9o2WbWw/iCx5wnHxAet/H9e1H2in/1Dbkgc55WBPVyhqUbYgcbyUyp+XlbZWU+TqpZM9mCcD3NWEWYgI6p+ikZrCZH6qKDwGuUTpNCaFWoolxsD7g735vvf+eDYBBqZiZvFTS9yyYEdlRpTiBwFG7CLTkBzph1oYn4x2syFDV9FnISQDclGczcyunr1261omRJO++u5XUYjqMm57kU/qhJJCgbKfbxJQt3IDzYmy8a+/fW5cP0Nev66eG0fQISoiq3JRciILmOwk/6SDZA0XwmdiHC/9xPxSlAxE2EjMvhHyjH/Fqavnw3/7QgURwP3et/bhY10CFOkV1jYNZEY3lpD9ACjywwWFVs0lmJQkHXMYeugS5kktPUoJTg3DgQvJHrsP75GfNHNfpGQB5+w0t4JcGg1wSBEcaon3HwdW2i+Ry6mYWfxUlyZZ/GScfL/cc0+e2mQoOHuFao8ghmXJnIKMv6Bu4YmzJ/B1rkrlLAlyv27Sibxnytl34MLguq3r5M9+mDoBUkHVtJ61qClQPlGLujvlLksne0w51RXO8JQ8aylcvMmPnHKZJUDkNMkSIGZqbjl7pcaUVkGcfa1qcZ1OA8EacKgl5AApTZklTbIEu3U67jp7pcOOflI4+/ppxvU7DQRowKEWh1pCNBDgPe5WrBpwVS1W9RaduLNv0U3gGJiKGnCoJaRmpymzpEmWqRhs4+XZ2Wu8Gpta4519p5a9HLclogGHWhxqCdFAiXjqNGTDVbV0G93ZN932ddLFpAGHWkJqdpoyS5pkiSkeSoqss1dJmSNyZpx9I1epIzgdNOBQi0MtIRqYDmFQmjK6qlaadomKK2ffqDTp6EwrDXyIWmrdf04DTgNOA04DTgNOA04DJa8Br7a2Nj865P6sGkiTctIki9VYKet09kqZQZU4zr5KIe7SaaAQDXx41lLI0Ok5Jk2ZJU2yTAdvdPZKt5WdfdNtXyddTBpwqCXkkClNmSVNssQUDyVF1tmrpMwROTPOvpGr1BGcDhpwqMWhlhANTIcwKE0ZXVUrTbtExZWzb1SadHSmlQYcagmp2WnKLGmSZTpEqbNXuq3s7Jtu+zrpYtKAQy0OtYRoICbPc2RDNeCqWqiKpvQAZ98pbT7HfLE04FBLSM1OU2ZJkyzFCpgk13X2SlLbya/l7Buq81xDLteQCx3mBkwrDTjU4lBLiAYiiYe+c/3ZXPX65sZIqOVHh/Z3d5bNKWvtaAsluL65EYnP5KHEc2KJVLX1zY0V2cpjA8eDVX1s4Hg2Vx06jESODRyverRqf3cnewpp0Jr50aEA861vbsyUZ/jXvHt7NlfNSzaKWxFLxL6FqL1YYxDmwXljf3dnxYMVypFaO9qyueq+c/0Fco6F4Bhyopk08qND0gkV/fXNjcHcqvFW5tc3N0oeOAXMFJL0OCU/OiRV4UdZji/99mRRy5GeNx7/8eOLl9aqvydXPHniTO+rB/c+9sRji5fWLn9mRd97HzrQ0f7uJ56qW7y09skVTx4/9fbern1q7qp/XXWg++CZC3mo7+T5U6ueW63G4HJv177Xjx4wl8iPDvW917/8mRWLl9Y+9sRjrx89MGFLxJRZpCeRt9aOtljzaUyykH9ECEUom1PGVBJQonINORmHqt5kyjNmACN6zX7JCdoqzmXQqlucu7+7s+rRKlV9CwdJpDP5RrT22t/dWbOihnn82MDximwljYWGNAT4L6RsYOSxgeOrNq+G0WUNUEvQatIlYAs1MlOeUahCmkxON1XNugJrHu49ks1VK+k4BtNxiSWshUeubq44gZ5o7TsBBsY1xeowpsnY09rRFuAGHJYpz8hEYbIkY9a8CwxBpyKQtSbYABFIQS3R2tFmQnbQUc6JibsP7anIVuJWriEnxZRtuqJywouV6783eBwg+VG3rPRNQXINOfizmi4pT632ZFHLKwdevSZzjWf8d3vZ7Uf7u0+PDGQfrvY8b8bMGc//dlN+dOjMhfxTTz+F4U89/dSZC/ntbTuM2RfHL1i08ES+F/jjvqo55hjP87a37egZPFHxjQrP867+5NV/6NxN7ZOxL9/95bdPv8P+8TYizyyMZOVegCxwr4CoGC//cnzkskjiaLd2tCFi+87116yoWbV5tYxV2Yb4fef6WzvayuaUsU6oMLZmH2u4krjMMtQ20M/FnPJgBTIRx6NBc1hRi0qOpuBx9ERrr2MDx2tW1FA5qupbM1pAlofSzMStzKfUIq0pGbCubpKSpjHRLQ2KNA3eQCSUPgaQAhs4PQLisRJRAo7rMlr7jmvpCAcHHMVJe/mtSDeQezbqP6CBui6NQlLqgMFv6fXNjcGACf6PhYJzDrNHfnRIsmEuTYZlaoKYIGL2k0nOBVnCEa4i4wudkpkADUv+Sa1kG5GhlrK/KZPHIThryY8O7e3ad/2Nn/I876677zp28jjBBC7zo0NELZn/kbntzts+d+vnLvnIJcAoi5fWnh4Z6HuvH6jl6k9e/VDNw3KVvV378qNDP/nZTzD+mWefoaKfefYZdP7kZz9h5wQa0WYW7htyDTnlKKrHivEnwL+cEq0skjLbCrXgrIXJS2YBTkGKYTXlbgkDzDhkuVIK5EkPARCghrxE2KPHLIpYUXHrlzfNgi0liqQdub2k+OpoWiVE7vkgvtQhRMs15JhM8cDOPKU3lQBrdg8ck89riAxMVSslM03zaZTpHliUYKVmRc3+7k5IF0CfziBVBFLUDBumXBPridy+E2NjMrPUAZ4ixVBS/fJSllX0+81COVeHEDJPBlRl5UhIRMqrMV2OpFdIhgNQmspdchbb9CIlJj1ZnT0zTiVsQraUPfRtlRUpAraR+7s71bpkbAo1IkMtixYvsootD1fqltVnH8p6nnfpZZdu+d1vMJ6ohZjjzd637r3/HzBs50svErXg/MZcpX1f+5Ufv9LzvHnfnffuuZP50aF3z52c9915nudd+fEr2/e1m1MK74kpsyiMgof00uFkNBbObfDImGSRi5qoRWUlsyrI6aoWmnsmQBbuflg4kYZ4CZqsbXIJ3qp6tGr3oT3ywYHa5cAczCZyIp98mZQj7InPXpBUJmgmU/CPSyRH6JbOieTOS4xnbgVSZA5Fg3aRylSOEao3WWn49oAkKCkgWfOukg4jzYROrCbrGeeyIReaTDs++06Gq8LnWoNOTkeBxGGqcglcVmQrO7tfU683+TmGmRKllyrr0PSSH7StxR78yIhgdYeYuCUhi1pRvmiFKUpkUOAs0gdXYBgvYPExrtoPcK4plLUH47EuM7Na1zqxxDtjRy0XT8xOHr/r7rvkI57sw9WnRwagGhO15EeHdr704qWXXep53tL6paGohQ+JbvzMja+99Xp+dOi1t16/8TM3ep5X8Y2KnsETk7FBTJnFRC0oJEiXMkFPhnk1NyZZ5Cpyu4O3Zaserap4sEIGcDZXjRcgXvjDb8vmlGXKM9w68MSFNBn/ZXPKfv/6LpXg5HKy0mB6a0fbsg3L+fYGshUqKCqWNQuYUc3yBmbUbo+sRt6I0F7M1OubG6WnSZ55iIXdnsIlpEAIIucq1CKzvyxCspawnyaGk7R2tJET+VYTOsE/XzySBCU/MBnPZqyGplmlF0lHRXvV5tXuCZHULdp95/pzDblNrZut/oAxZiiZdOgG8pb10MLshEsgaShM4+cYMgnwpX7zDSoFvhELPCknq9LtFWpRmYrORldUygHDNStq6LSmDjkXDfrq+uZG6cPMoujMNeSkktW6lGUKNSJDLRKUeJ7HgxPo4oUXfwsU4nne9Td+Ck92cMuKWgg7Hqp5uHeoz/pey31Vc/iGLx8SbXh+Q350aFPzpkgeD+VHhyKsHNItTNSCB6IssXGUxphkkXIB0ePcGC9ShB5LTCyKkLCYMRGfDFfFEgswo5c1mJHPQkt+ZO3kMDasa8l1J9+O3F4qIRbCIfMjdQjVUV0gItM3EzRuUefq5Iz9bCDvA7UAg/IBBMZUPFiBUxZGh0zWMA3sAh7IFaWg+dBQUrizlkJcAmOWbVi+v7sT5yg4szSVyVAKICutz2E0XGjPptbNgLA8fsMUP9QiCWLLBE8jIOAANIhUTE+jLzEVEFeZQjEouJBSDhlWWyM5jHPZ4ENwHqXwgBljvlXzLWxCuKlTJ8qhb0MrhZTCZUKoZf8bnXi7xfO88rvKj53881eUVtTyZu9bt97+ec/zsg9le86cCEUtfEiUfSj77rmTeA41+cdDSaIW+WoYHI51IipHibwK+jHGYhMQ6sxxDEtIzVwgGxgsYQSDUPIgd+0S0FCTKpvI4CcdRjVLI4aRYY6MuxG5vYha/OwCpUlDUI1KWEkhm6vec+Tia85AqNJMMCKJMDXzpcWaFTXZXDU3psywCrWAc/JPZiRBdiKVw14oJDQ0i5AcIydipPQuzmVDjp9MO3L7ToaZcc3luxdALbA74KxUXXBoIypVSJINIgArlAQCVgdvnKvwsezn+Qp9kneRPWSYM4/JMfBViS3oluRZJiLmMVCmFzHPcADTlARt8gwJc3MNuapHq6oerUKCIo4HfaIW4CSiJYpAo7BnyjUiQy333v8PW3du4x+e1EAd/JKI5zH4egh3rajl5ddf+ctr/srzvJrHHuUToutv/NSGTb/kEr9/ddfA+4MgwodEt97++dY9bUA8k388lBhqgZfLgDd7Ju9bCWRJhBADknElc4ESREaRDFcMk9kBPSTOaFcNbn1kZcUhsEqRzCCgzPGkwBVZktGTzP8jtxfTqzzNpiyyoqPTxB9K1TSrNJxKlFLnBBnQfKY8s765UaV48wlR98AxnHJL/sEhCVIKcg7eMACpHN/i8umSBC6KB4pZka3kV9PKW9SKE7iM3L4T4GG8U1Q8StRCeJEpzyDwGdqm6mg46R6SGSyElGg9mcZgLAEb0Wpmw4Tj5hj2IPzpougHJ+RW6QHMSNRCII5bDAqqgsrBACqEpABiJGrhMafJG3MXH7jjMIzrgixAmwwB9k+hRmSoxe9t3Pzo0Jbf/QaPh+69/x/+9ktf9Dzvmsw1e157GWoyUYt8gXdT8yaiFr+3cUFn2S+W4xPrh2oenjFzhud5k/x6CGRjyiwqDlGJubln/LMqROJSMckieSNq4U+DMM7lMNlW0cvIxxh1aUadmq4u1a4LzOBhPJMUGkQqpGA+RZJTuDGSskTbjtxesupLnAGtmshMpbyAS0lNDZMOgNTcPXCsZkVNa0ebyuy0uITvUqWSf/SrXM/B5AHWJPIAXGMtrMhW4gsjMol6gAEoGJzLesNVJtmI3L6T5Cd0OkqjTFMKtYACspk8CDFVR8NR8+bq3J8ExBqjVU0nfdWvLk3G6ABYXWVgLhc3aqFaKEiuIYd3daX+IQ69XUkncTlvUQT2TLlGZKgl+3D10f5u/h07eXzwP87kR4fe7H2r/K5yvs7CF1yqvlOFt1KIWh6qeXjrzm2bmjdVfacKsANfRxO13HLbrfsOdXCJo/3dJ8+fosb/0Ln76k9ezeOcSB4PJXbWwjinOHKrwc5JNhLIkiZqYeqRJV+WJRVFUnD5xj5ltxKUxIk/MAVhf2zg+KbWzcwFuGXmLBMVKdhkHkiQscgbkdtLVX2qV+pcShHfWQufEO3v7gxdhd6i+AcklabnQ3rmcVqfH4vRf2QtpGOwaIG4O2uhP1gBirWTUxjaZqCxGFPznMUGZtGm7JcNLiE71V5F3eLrU9wctna0mRxyFqID8IV+hU51pMRcYQrFiVxIcU6FcF00ZD/nypMV5f+4JNjiuiRL/5cTTSTE8SXYiAy1EC6ggXORMxfyjz/5I/TgqdCfvkz+7oPzcSjS+OuLv+9O1KIo3PTZm1458OpFx/p/v9eiBuBX5qjTE/ner9/7dY6J5PFQYqgFgcRHrfBOVX0p6YQbkVdBkxOJWvA+vDmGD8VxC9F7uPcIfloDuEF+W6QoqGgPvkT+4mNgFEhWQWYBuYQkKLMD3neL3ChyadWO3F6o+nxxD16H5EWdSB5Uygu4VGctMiHKqiNTsJnZsTUM4MeKWiT4IPMAl3i33axJJvQkM3AJaEMezssKx1Um2YjcvpPkZwLTx4ValFfAcNS8Wh0nnaimCFuroWW0SgrS02Q/7JvNVeNdHGYA/twl6z29kSGPeg+WJGrhWhK18LsKSg3KXFFxTiKSW/BAwTlXjmGOkpxzgIpZc1fGkVOoES9qad/XjvOP8rvK3+x9C3rhD8197tbPdR0/ZKKWv77lr3+8/Ml3BnowvkDUkh8dwkMiAJdlv1geiRliyizqCRFYlZtOemokUoBITLJIDqUIVvxuBh6jjtmBRAjj5BIq2oMvuR3neXVn92sV2UprkcYqiiA6ySSf2UuWYmpHay9oXmICZF70FJLyVAaUlwq1WKmpHbAqV2APNPl/pdhxoRbJA72O7yqqACQzGMkP5q1EFFcTvozWvhNmYzITx4VarAmBmgcbPAkwIxQ4RuUEa7QqT6OAIC4p0zEwBhGB3CvdW6YRjJQT++xAQAAAIABJREFUCTgkarE+/ZTYl5IS1pg5H6vQCeWiYAMrMl44kiIrKRxqSeJf3aP2i9VIQWah6uKWRe5FuCgD1S84m3dvx9thLKKEL8QKMtGY0U7KaHA6eGAqwa8asNOc9fvXd+GMB+9+yt2STAd8J07KGEc7Wnsh5UGTxIW4xC2+x0dZOEzpipdUi0QtnG425CGHLFfyAzpCEz7AIh3eYg8LBnvQUMnadC2cMylXoa9Kf5MnUuZ4te64LqO177iWjmpwgaglYDl6DoI9VMMIf2KXwlELfIDIiW+tmSsyY5DtXEPOHCajA2TNiaTABtlQnNOTGYxmNpOoBerCuvR20xy8RQbUuuyfQo3JnrVMIVEnxmoKMgsFL2VZkAJYBckzHxiF5ilMSUFMUvY47IWkSWVyLTQUIDNTnhwv77L2yAFoqyzc2tFGDJHNVR/uPaKOviQ0wUh6hbwF4sz1al3JW3506HDvEX4pKkdKtCT7k2nHYd9kOOcqZpnkreBtPTck1l94k0SmUDsAtUh5zTOVUBkZRHzRikGhXrnFSC6hAiHYKKFslMgAh1pCToxSkFnoammShUKluOHslWLjxvfOXLqV5qRzGnCoxaGWEA24ICmWBhxqKZbmk1nX2TcZPbtVUqYBh1pCanaaMkuaZElZHFrFcfayqiU1nc6+qTGlEyRJDTjU4lBLiAaSdEe3ltSAq2pSG+lrO/umz6ZOogQ04FBLSM1OU2ZJkywJxEbRl3D2KroJYmXA2TdW9TriadWAQy0OtYRoIK2uX/pyuapW+jaaDIfOvpPRnps7bTXgUEtIzU5TZkmTLNMhYp290m1lZ99029dJF5MGHGpxqCVEAzF5niMbqgFX1UJVNKUHOPtOafM55oulgQ9RS637z2nAacBpwGnAacBpwGmg5DXg1dbWDo+NuD+rBtKknDTJYjVWyjqdvVJmUCWOs69SiLt0GihEAx+etRQydHqOSVNmSZMs08Ebnb3SbWVn33Tb10kXkwYcagk5ZEpTZkmTLDHFQ0mRdfYqKXNEzoyzb+QqdQSngwYcanGoJUQD0yEMSlNGV9VK0y5RceXsG5UmHZ1ppQGHWkJqdpoyS5pkmQ5R6uyVbis7+6bbvk66mDTgUItDLSEaiMnzHNlQDbiqFqqiKT3A2XdKm88xXywNONQSUrPTlFnSJEuxAibJdZ29ktR28ms5+yavc7diCjTgUItDLSEaSMbLe8/2za6evbGlKb7l2g+0L6hbOHBhsMAlBi4MLqhb2H6gvcDxkQ+bolWtfl39uPQMvRWi7YM9XfNq5/We7aOqN7Y01a+rn7Dz1K+rj9XlyKe1MUXta5Ulwk5YU8WdafrJrHiwp6ts7iy1RCEEQ3NI79m+ebXzDvZ0SWrwbRUUvWf7FtQtlM4sp7BtJci7ZiNaRZn0S6FnfKil+91jT/y0bknuMfX31M+XnTx/6rU3X1+Se2xp/eMHu/9sM0759QvPU+AzF/JbW7ZVPfDtO2bdcU/lPes2Ptt/9l3e5RSusrLh6f1HOs/913mO+fULz/OubLTuaTv8zpHHf/yjJbnHnl7z84H3/1yiBt4ffHrNz5fkHnv8xz86/M4RkgpuxJRZrN7ffqA9U57BXxzJNCZZlALr19XLdLCxpYlCoaGiF9Pr19XPrp4dHMPINYqa32XZ3Fkqd9Svq69fV6+4DbhsP9AeylLA9MnfSsZefnwe7OlavLKWIA+1RGlbGhp04MNmv98q7J8Yamk/0A7UMnBhULpQ/bp6xSoulVc41EL9J9AIiF9pFxl3G1uakC78ivEEso0VQxQovjVvy7lWkLGxpals7qzKbKXK6ujf+9a+BXULlbu2H2gnIgcMCtCeTGt+ipJMTvX2+FDL/iOd116X8Yz/7vzCnT2DJ3a+9CLufP3ebxCFcErNkhoo6/Dbh7/01S8pGtdel/n33a0YwClqzL1z73379DsYU7OkRt3F5ZrGNe+eOzn7f33d87xP/OUnXu3aSwuR7Ffu+Urfe/3sD25EXjnofKp4w4NRaFEhpC8GM1ng3chlMdcduDDYfqC9bO4sxidijyOtYW8iGxnDMqORjmz4be6paknNrz27enZX76HZ1bP9Bqj+BABNAvaSalTt3rN9i1fWUkyVjq0gI1Th9ApMVyq1XnLK8NiImZGt7kRBrLt22elQC3UVecM0sUxoAYajUaSPmaYfHhuZWLbxQ7RwPzr88NiI3EZandOcosIETluZrTzY04XoUIC+fl394pW1C+oW0s/pnwq10EBEcuwZHhthp1VRcmQK2hNELV/44hfkCQfOWohaPM+re6ru/AfDw2MjxApALb35vq/e81UgjBtuuuHB7z9Y9jdlM2fO9Dzvhptu2HeoQ0656hNX3THrjtvuvO3yj16BKVUPfPvU8OnhsRGglsv+4rLsQ1nJSeuetuGxkWW/WE4QQyOtaVyDzmW/WM7O0Ea0lYO+pQotPJWOi4AJrdahzKsB0cqiiMtLuVtSJxxmtmJqkPkC1BDnMtnJVdDGbtvsVz3UvOr3uwT2Uqc1foNj6k/MXn78o2zALQ/2dCH5YrCsKOiBDyOPq9SMwaZ95bomQXnXrDRYAu609619ZXNnsa7glh/zrArDYyMskHKtxNpFt28yklLJsAjNJBtMfdLNAkCw3PKNK9twgyQpQA9IROTEqhwzfXGYyW37gXZ0kqY1q9BRQfzoqe7Z1bPNsxYyyTiSqZX5zaEW/caDgiA0GBoStVz+0St27b34QoCasuH5XwI61CypOXMhPzw2cv6D4TUb1gK4PPzo/z77n+fUlOGxkVPDpxfVPoKJG57/JVHLtddl9h/pVGwMj428/PrLH7vqY57nfed7D2CVMxfy3/neA57nfeyqj738+svmFL+emDKLQi1wbpnrZW714228/THJEsBG/bp6hb1U2MtMgYQiS06mPCN1Yi4EvTGMzQHomYAyZUYAiDTTnN9yUfUnby8/zqFnCR8VyICGoSI1GGaVc62rKILWMczIRLqofFbT+FlQOgMLqnW5uDtLx77xSSrPHqSJZR6QVpAZQ/bT9AGsyrkYJlfBgQRTihwMl1CZyrqQImiOkbgEgUDIQpbAA6UrHLVISIejJr5451CLBiu0jYkneGt4bESiFs/zvvTVL719+h05JT86ND8733x2w2c6t915m5pC+l3HDt1w0w2e583Pzs+PDuGsxQ+1kOCnP/vpw28fHh4bOfz24U9/9tOe583+X19/99xJkg1txJRZrKhF+rfV40O5DR4QkyxcFDxnyjOAEfI9A45BgsiUZ8rmztp79OIDXYlLSCFTngmtc71n++rX1a/dujYUtUDb2MTIHR7bioLKDtMQtfBsY2NLk58rctuK/CvthUQM9Srd0hNUQ5Y0dYuXZulSPdihBpztb2xpcqiF+kygIR8QS69g6KGB1AcwCvSgYlAZGk9ecMBWYLb5w6Hd6j1ZiX1l7g1QSyhq4YN+6WaKIALqV//+KzxJLxC1+GkP4jvUEo5acOzB/69pXCNRy71z78UznR/WLd3btQ+vwtQsqRl4f/D+efd7nof3YGjL8x8M4ygFKEQCHY7pe6//K/d8xfO8+7513+mRAet7LZIsHxL922/+bXhsZGvLNnA7rsdDw2MjMVV6hVpwWE2wTwctMJaopeBGTLKoRc38ogZYL5lBAGIQ2FSIOQVvX/ae7dvY0nTxlZSei6+kWNUldz+KDkGSRE5QvqzB0xC1QFHcDiq9BVwSlUKBfp5MVKSql/WS1qG9uGOWH2KoOmcyCc+Eq4DmBAQ0yU64J5l4nDB7k59IZ/hwl/Lfr51C87L8wwoYvHXXNmAL9eTXL6v49QczD8DN9ILko+C1dDarW8pOnPYhKQFLSRwmR8pV4LF4G3djSxN0EvyEyJQL2nOoZbKopWF9w4pVP/M87/KPXvGTn/2EqOXU8Olv3vdNE7WoJz5W1HJ6ZOC+b93Hw5JQ1MKHRAsWLTxzIb9g0cIJPB5KErUAuNC/t+7a5leGTcctsCeZLMk8wopFodhASSNS8TtZURRYvQYuDC5eWYuXToBaes/2cTCHDY+NIBUyPUlFySNi2c8HVZI9co6GlaAkEkk7GXsFsMqi7qcK6EEWJ5mUJWUezPjZGjjGqlhalsd4pMwHEH6QBXNNl0APBSTBJBtFt2+swtJqON+aVzsP5RmaN1HLwZ6ulU0raVDFG7OKXz+XU6FKf5MeaN3eSDe2+iFxjNrSkKWDPV1rt66dVzsPr9pIr+MYswHOx4VapPZA0KGWcNQyp2rO9rYd/MNTGD4hWtO45tTw6TlVc3gY43lezZKawf84U/XAtz3P44MbaJxnMOi3opa3T79z2523eZ5X9cC3B//jDFDLx6762JrGNWSjdU8b3mIZHhvhQ6Lb7rytfd9LmDvex0MJoxbp0IiQAv1eTgxoJ5MlZX4xawlSg5RLJgsz42CXJt+KVTSJWiA4qCHpIB0sqFuoToYx0lqxmJgkh+6sBZBaJWsmSrpc6AmKtVqA+NqtaxfULdy6a1vAj1hI18KiMLEJQGWJkk7FYznY1+oDFCfuRjLxGLcUfvQP9nQh9BRqkeZgm45B1BLqS7CgdAmVGbhpkbHMAOfSquEHu7EQ/HPt1rVkWIq/smll+4F2ZhtiCzascVQgagnIkxtbmhiMUiGStzS1J/gNET9jlrqQqGV4bGTfoQ68iQLsgil8cNOwvgEfGeHl2U/85Sc8z/vmfd88NXzailp+87uteGMXj3iC32sBVysbnvY8b+bMmYtqH5FzJc+h7Zgyi/mESHEiX4xXtyZ8GZMsih8VNuqlSHWJzMI4D73kY2MuqlAL+nE2sOY3axbULTx6qnte7bytu7bJz0xUqpLv2fxpCt7h5xIOtcgPOKEWs0IgI8tsrjCBugQdpmw08NmF/FhJWkG5Fm6ZLiGnkCw7JW62ssSRcTeSice4pQigT+MSi7C4qkJOt+FIRdZqevNjeJVe1KU5XpFVl+SB2ZhsWyn/6ZcCkG34AxbIbBSKDVDGJZ8Q8VPngG+IMJFskEMq1k8EjkxBY4KoZeEj3+8ZPMG/3nzfuf86r1CL/DgIZy3DYyOvvfk6oMzlH70i95MntrfteLbpX6+/4XrAi6YtF38alagFJzovvPjbf/nBv1zykUs8z/vMX3/m0PGLb9cCtfzVtdf8/tVdZKNn8IT8WblXu/YCDAE2jffrIVg3pswSjFoQ7WprO3lvi0kWxZgKGxQJZCUrwgjYQwBb8LTWOt3aKVlSmYK3zIrFnyxzqAVaUiqiqqVNqU+gFhMOyh4WJ8ySdCS8QL/cImO8ci1MUY+NVDmRZOWi7qxFGi6mNpTPsxbUchhImYkM+EWrMj3Hq37pUXRXDpbv8Eq3lG3zrEXSkXCBQAH02w+0tx9oV/wjgqgHOV3tBDiG3BLEyE0d11LfzZEZpRBSS1NjgqhFPvrheyoKteCLZTwSImo5/8Hwhud/yd9fkXSW5B57749nJWqRdz3Pu+oTV/3u97+D9q3vtXieh/eCMYav0YDOBB4PJfmEaOuubXwOYv36ZvJulyRqOXqqm6+e8FTWzAihhysqC5hKkDnFvGvS5xhVktlvLZkq3XBwrI1k7BUgAlQk34vkub3CHyCiVBp6STyqPuPkpXIYmZHxDAhssASaqR89JgCyMhygijhuFd2+cQglaUL5wATS1gHHY37xLk0vl0B/4dlG0Qm9LJs7S+4eVR7Ama6MBcU/wcTGlib8mpx0Rd6VcEoO8Etfig1TIcE/Mi7HT8V2vKhFHq7Ih0ovH3jl6/d+A09tPM/77Of+etvOF/iD/TxrIWq57n9e94MfLTna300VF4JahsdG8JAIdFY2PM3phTdiyizmWYuMcIWjC+c2eGRMsqhF+eYmSw5fMpCZi7NUnAdfchYbDrVQFdE2pEMiLwPPoQjJVM51Q2EK6ICyooBOlbKBd1kVWKIW1C2UMcIdtnIeoh9upumT4FkxTEGSaSQTj8nIYl0FNqX5+IspOMssmztLmcOvSJtPdrjceLNNKEzhP3Rl/fbQChfkJtP0QLKqlpZPVOnAcHgZBVaClBqOLTVsrkIGUtMYH2qJVuz3/ni2N98nn+lESz8SamnKLMnI0vLqTkQ+ixxzE4NNhhmHsbSohhXr0LjjRS08LfAjC37Wbl0b/B4MhSInkTeSsZcf27LkEHfCcLilHs1M4AmRXNqKWjiAnqOwDgfQixbULTxx9oT8h13MKRTHzwdINtZGce0bq2iKOB1G2YJWoyGsRToAtYw32/DcVyUZXgbHtRW1SGHJf/BCF9+3GziKRz8mNJf/siNfIGMImB8oAO3xXyNRSpbspaNdTNQyJTSYpsySpCwoDNb4QZSG5im4B7OAn7eEoha/iX79yKRyu+M3Mu7+JO3lJwu0QWOpYYCAtHLw0UXwXUV5OlyWgn3ToefCs03wUUTw3UJ0FZqvSAT/Oin+MQqVbYCN1m5dCyzF+OLcad5wqMX3M294RpoyS5pkmQ5x6+yVbis7+6bbvk66mDTgUItDLSEaiMnzHNlQDbiqFqqiKT3A2XdKm88xXywNONQSUrPTlFnSJEuxAibJdZ29ktR28ms5+yavc7diCjTgUItDLSEaSIGXT1ERXFWbooYrkG1n3wIV5YY5DUgNONQSUrPTlFnSJIt04rS2nb3SalnI5eybbvs66WLSgEMtDrWEaCAmz3NkQzXgqlqoiqb0AGffKW0+x3yxNOBQS0jNTlNmSZMsxQqYJNd19kpS28mv5eybvM7diinQgEMtDrWEaCAFXj5FRXBVbYoarkC2nX0LVJQb5jQgNfAhaql1/zkNOA04DTgNOA04DTgNlLwGvNra2vzokPuzaiBNykmTLFZjpazT2StlBlXiOPsqhbhLp4FCNPDhWUshQ6fnmDRlljTJMh280dkr3VZ29k23fZ10MWnAoZaQQ6Y0ZZY0yRJTPJQUWWevkjJH5Mw4+0auUkdwOmjAoRaHWkI0MB3CoDRldFWtNO0SFVfOvlFp0tGZVhpwqCWkZqcps6RJlukQpc5e6bays2+67euki0kDDrU41BKigZg8z5EN1YCraqEqmtIDnH2ntPkc88XSgEMtITU7TZklTbIUK2CSXNfZK0ltJ7+Ws2/yOi/lFfd3d1Y8WLG/u7OUmSwF3hxqcaglRAOl4KbTk4ciVrVjA8crspXrmxv9NN/a0ZbNVfed6/cbwP5jA8erHq0aby5e39yYa8iBSK4hxzbJsmHmesmbbHNKiTSKaN8S0YCVDWl664CEO/vO9Wdz1QGxECE/uYZcRbby2MDxAJrrmxvN0Ms15JLhMICxxG4VilpOnj+16rnVi5fWmn97u/Yd6Xnj8R8/vnhpbeueNrJ+4kzvkyueXLy0dtVzq0+eP8X+148eePzHj3/xy+W33XnbgkULX9r/h8H/OIO7G7c0mfTR8/iPHz/S84YasCS35PnfbnpnoIfEyeeTK548caZ3b9c+RbB+2Y9fOfDqmQt5TgluRJtZUAwy5Rn8KT/b391ZNqcMt0y/DOazkLvRylLIihijpKb4fo3WjoteFDpLVbLWjjY/guhX6WB9c2PweEW/cHmjGpmAvZCRpR6g/PXNjUpdUihiGumxkkjZnDLCFIlazOUwS6kaw+gGwaDHxCWyR7bzo0P7uztrVtQQbOUacpJttuOIPqlAtBOwr7lowj2ymtIWZmjLTIi7sH5+dMi0kfRMPw+kKaUr5keHJhD1hMUmJ1hFeospGjlBQ7m6MoeSXd3Njw5JCCUHSz2bs1LWUyhq6Xuv/76qOZ7tv+1tO1458Oo1mWs8z/vcrZ/rOn4IOjra33172e2e591XNafvvYt7stMjAysbnr7kI5coMtmHq0/ke/OjQ4sWL1K3eHlN5ppXDrxqHfDxqz/+3L89ByBCPm8vu/1of/f2th2kwMaMmTN+8KMlp0cGCrFltJlF+hbijU6MS0Qv3JG3CuGzkDHRylLIisFjCimNTF6KlLkha+1ok+lMjQ++qwYju0Wuf3OV4J4E7CXxAdvWSkBtwDllmZFS4K7K44QdXEJOMU25v7uz6tEq7DgDygxYkrVk1ebVxP2qWrB6ye2sjEeyxOLKnpgaCdg3Js4LIQtPUFbIlGfK5pS1drTRJYBL1jc3wjfUeByzSWeTvgEYGvBUhYCjEIb9op7+aT3zUycfkDo0a1mFVbLLSwaUFF86qtWTC5R6yg0bN2q5+pNXP1TzsDzA2Nu1j6jF87zvPjj/3XMn86NDJmpp/HXjjJkzPM+75COXVHyj4v5593/86o8DTCxeWnt6ZIBHKd9b8L1LL7vU87yyvymTZy1ALTNmzvjMzZ+57c7bPnXTDZh++RWXb9v5wkUo+v/QlUItX/t6xeKltfOz8y+/4nLP82bMnLFxS1Mh1oo1s8iynWvI0TXzo0OtHW3Ms4XwWciYWGUphAE5Ru165S20/bIeg5l1FOODcUnwXXN1pirzVmI9CdhLwgi0m3dvz+aqM+UZZl6ZiBXUVqrASLqxSs3ZXPWxgeMgTiOioUzJFIzxxwaOywQtF+UA2SkHyzbGgCsUQi7kN132R95OwL6R8zxeglLDtIU8fiNqAWUz7iQqhbfIzUkwLgm+a8piri6dv3DUotxbXipXV+JLllRFwC3Jg6kZLsTglQRT0x43agEaUPJL1DJj5ozGX198HK5Qy7GTx8vvKvc875rMNS91vAQKb5x442+/9EXP867+5NV/6NxNsiS4aPEidvIwBucu+dGhMxfyL/7h36+/8VOe55XfVX7s5HE/1PLMs8+Azs6XXgQeeqjm4UKeE8WaWYhaEBtqS1E2p0z2SD1MrB2rLONiCfIGwzKZL0ziZn4JxiXmXeuJAsM+U54x84vJRqw9CdjLRC04isBu+NjAcQygKtY3N8InTbjgB2hUiQrVmIwFLseCp6ZzgOyXg2VbjkHbL+8TeJlTIuxJwL4RcjsxUkrDUKxyCYlsVFxLiAkG5GHDBM5axhv10n8kYqA2JnbWwul+Bzym4BC2bE4ZglHpQepQEk9lO3rU4nne9Td+am/XPoVaWve0AS4sfOT7A+8PUpubmjfhvOTpNT9nZ4GoBcDlh3U/9Dzv0ssubd3TFopaXn79lb+85q88z/vO9x6Qb9twadWINbMQTSOWJEBG7ma1UFxN7DJWWQpnqe9cf64ht6l1cyGoRcII1VbKGe97LcEMq+wZPDimuwnYC8lRKpZOuL65sWxOWcWDFdYSnmvI1ayo4WuDKE74vxrPEgWX5lqtHW3y6Q9noXN9c6PMy7J4UNtwpGUbloNmNldds6KG9M3G46t/xJF4tcWa661rcdEIGwnYN0JuJ0ZKapiKVZ6QKc9we4aUWJGt5LMktKU11VmL3zNBTAlOMkooFfWIDnqmQmBkiQMm8DaeH/AyT4kYqsh7CkJJPSuh0nc5btTCt0PQwDsrBBnld5Xf9NmbPM+r+k7VwWNd8r0WvmLCYw9okzBCHquQoOw0z1pAYcPzG8DMCy/+1g+1PPX0U0f7u1976/X52fkYvLR+aSHmjC+zMDsTRLNg8K0rVZgLYThgTHyyBCxq3lq2Yfn+7k48Att9aE82V20VE6lN6kSSUvkFz9RkOpODQ++qwX4bIHNYrD0J2AupEABCWYGlhRWFwvKMEIpS51LSsZHH8RID4QtOxbEoiPNxIcZUPFiBQxRa34SktHWwn5BnNlg72VOsRgL2LZZoXFdWU2peeoJ8RAJT0rK4JTEBUiXfefIr+VzdrP28ZW2orAJPJgMKKIDC5M9aIKaKPnMtLLRq8+pcQ67vXH/Nihq+8C51aJUrZZ0Ro5ZFixc9/9tNM2bOmDFzxtL6pbfe/nm+jbtlxxbABYVarADF2umHWl548begvKl5kx9qwQD+/+Zbbn7trdcLsWVMmYV7U/BgnrWgnChXLoThgDExyRKwonkr15BDKZIv7kAbZnU0pwf0mM+A5GB5N/SUmLsobPhkdpA0424naS+Zr7mra+1oI3ZRAGJ9cyOQhNVqoIBbKFE1K2qyuWq+gwk34PMdohYUOVnqoGQWPFPnCrX4bYgl/6hDJhKSdo829Ey286NDSdrXykACncoc0LwCE6a5wZiMWRRmGEiaRpFSEsm7443637++q+rRqlWbV48LtSgGCryUfPptsbDZk3EqifvpUI5JTXvcqOX6Gz+1YdMvt+7chr/fv7pr4P1BCTJOjww8UvsI8QFRS8uuFryKqw45trftMPslQalrvI3L91pw6+k1P8cLti27WgpBLeV3lR96+7AkG9COPLMweGS6N1ELcrGMzwAmC7wVuSwFrothqrpI1MKzJbwEShXJKuLXZk5ROU7xFnyXx12kpqYX5TIBe8mzFpYE+SouBIdFADXw2Eh6b4ByCIDWNzcSAGEh8wlR98CxXEPu2MBxMwVbUQuJgyCeBZibVMoIPq2k5NOoAHGivZWAfaNleALUpCmpeVWk5ZjxLqFIqenBd4OjHv5Jnq0nIjhrJBQLflYlM5iZZ3h+adYCKRRQS2iGNOlLIlO9PW7UEvw2Lh7o8B1bYBc8RTr09uGbb7nZ87xZfzvrSM8bUNzpkYHsw9XAHFt2bKE2C0ct7wz0VH6z0vO8m2+5+dDbh/1QyzPPPvOnL5u+++DFx0OXX3H5v+9u5VrBjWgzC7xNHoFidSR0WQnMnmA+C7kbrSyFrMgx2Ndyv+v3kRT0Qz3IWqJOlUmZjeCtc6Y8o9TOXSCgIdZatmE5mMTdaFEjWS2wkYC9WNHlHg4H4zLJAsfwXJplJkDn2Vx198CxmhU16jNXyk4i7GHDvCWLB4ehodCwQy1KP8W9lKakEc2ii5BXuFZ5IC/lqyomKQ5DQw42D2xCo548y7lqCQURxpW1pHWYkWSelAMCnlxLPasp6bscN2q55bZb9x3qONrfzb+T50+ZIGPbzhfwjTHPWgYmurhAAAAgAElEQVTeH/zBj5YAx9x1910btzRt2bFlfnY+DlruuvuuYyf//IOAJkGoHmctV378ymeefWbrzm3rfvksXp3xPO/xJ3905kI+ALXkR4fa97Vf/cmrPc+b9915+Dw71KIRVg5UCOXiYMC8pY4iQvksZECEshSyHMdYZbF2cgoasgJZM5pUZvBpirrbd66fb5JC+as2r656tOpw7xF8mss0yl8kU7wlcJmAvfxQi1Qsx1Bka4pUD/g5mHDTCoZkASBaNemb8IjVyEQtkibbrASoQ4d7j5iveXIwGpxCWaJtJGDfaBkeFzU/PFGRrVy2YbncQpjm5kJ0HvaoRvBpiro7gahXqMXcxphuP66sJcWhk5urcJjcXbATiIrhI/tT2R43apGPftCWvzLHl2dPjwwsXlorz1ryo0Nv9r5V8Y0Kk8L1N35qz2svS/0GoxaTwrz5/4jfqQtGLQPvDy585Pv44OiFF38rV/RrR5hZEMZ+qRAuy2IZ/HvqftwG90coS/BChdwNRS2oRsxuoflL4RLFg/UukVBrRxt3SCjSpZACErAXEYnMhioRcwxVai0zahYHWw1HBGPVs0lfFg9SRoOoZVPr5v3dnbJmYIDiH6R2H9qzbMNyOcBcVC0U+WUC9o2c5/ES5PkcAxDmkIVZat4P6xBQEq2CE4VLFHvWu+OK+gDHU2vhcrxZi1KUzSnDVkGyZy4h41TelTqU/alsx4VagFHwAy38bVz8CtyTK57Et8f4ubnsw9Vv9r6llFsgarnkI5fcdfddW3Zs4Q/dBqOW/OgQKVd+s1L+UwCKAV5GmFn8ApKJm1hbfgpITibfiFCWyTMTilpQflDe8FYE3+W0rs60WMhd2EJmQKIWTM815ORdK824OxOwF0rIptbNPHhA+ovjrAXqwopIvvy/0qSZggOKB7L8t2q+BZ5DUQs8isaVRdScqxiL9jIB+0bL8HipIcpWbV6Nc01E6LINy6l8EDTNzYWskJd3x/sN0QSiPsDxJBtsjzdr4akQ92akw2Ih4Z17QgT9FIpaqM2oGifO9B47eZz/AlFUZCOnk6bMUlKyBKMW/pJN6E8gMOAl5uPOTDbkSOZNZgcTKaKecVbkrhVKMAF7WZMmD0Kk9uQZIcpMqMKRcGXhwW/A4Jss1iq+h0iF8BZ7AoqH2t3y5QDJvHy/mMRhX/XZNqZL0EYeIm8kYN/IeS6cICJLuo38DJ5vwvIzPZ4xKMNZLxmVMn6tIxnpMuHIWdw0QjQV9XC80OeJWKXwrPX3/3zP/MfmmznHVC8cktjFnbXg4zsv3cFj+sG4etKknJKSRSYRZZGAEqVGystxnbXIiSXbLpa91LMe5HFZflj4g1XHOpTNVSPvywohiWAkU7O8hSUCXMI8JCMdzDX5x8vgmfKMFZ2QbSlysKQTu1ss+06M29KcZX0GRFaD73JYQCPA8dSswkeqie5yvBoo2lnLeBkt1vg0ZZY0yVIsf0hyXWevJLWd/FrOvsnr3K2YAg041DIUbMU0ZZY0yRJstXTcdfZKhx39pHD29dOM63caCNCAQy0OtYRoIMB73K1YNeCqWqzqLTpxZ9+im8AxMBU14FBLSM1OU2ZJkyxTMdjGy7Oz13g1NrXGO/tOLXs5bktEAw61ONQSooES8dRpyIarauk2urNvuu3rpItJAw61hNTsNGWWNMkSUzyUFFlnr5IyR+TMOPtGrlJHcDpowKEWh1pCNDAdwqA0ZXRVrTTtEhVXzr5RadLRmVYa+BC11Lr/nAacBpwGnAacBpwGnAZKXgMXf2VueGzE/Vk1kCblpEkWq7FS1unslTKDKnGcfZVC3KXTQCEa+PCspZCh03NMmjJLmmSZDt7o7JVuKzv7ptu+TrqYNOBQS8ghU5oyS5pkiSkeSoqss1dJmSNyZpx9I1epIzgdNOBQi0MtIRqYDmFQmjK6qlaadomKK2ffqDTp6EwrDTjUElKz05RZ0iTLdIhSZ690W9nZN932ddLFpAGHWhxqCdFATJ7nyIZqwFW1UBVN6QHOvlPafI75YmnAoZaQmp2mzJImWYoVMEmuWxR7HezpqsxWHuzpSlLS6blWUeybblXXr6uvX1efbhmddA61ONQSogEXJMXSQLGqWv26+tnVs3vP9gUIbpaHgQuDC+oWth9oV7N6z/bNq503Xhi0saWJ5cdcSy5hwqz2A+0L6hYOXBgcHhuRbTmrFNrFsm8pyB7AgzR9wDDrrYM9XWVzZ21sabLeRafpMMF+AscOphmwnLsVuQaiQS3d7x574qd1S3KPqb+nfr7s5PlTr735Ovpb97RBgPf+eHbnSy9+53sP3DHrjnsq71nZ8HTP4Anc4mCSWrNh7ZGeN85/MEzhf/3C80tyjz3x07rud4+ZS+d+8kT7vpfO/dd5jp9MI9rM0nu2b3b17Ex5Bn/WSDjY0zWvdl5wzZiYRNHKMjEezFlICtSJ2WAFwtz2A+3mGNmjKu7GliZ512yzOpq8FbenWPaCl5r4g9qQA1gDCkEtfrZWJpCkQkGPiUtkj2wPj40c7OlavLIWgGZ4bKR+Xb3pD5nyjHI5Ch5to1j2jVaKYGr16+qZ5WgLlQYz5RmOGR4bkd5ltZEKcMXAxpamYPPJAQTE5E1Rg8/g9LEQbzFFUw6mXN2PJmfJ8X7hw8GZ8kxA2JqiTdGeaFDL/iOd116X8Yz/7vzCnT2DJ3a+9CLurGlcMzw2cmr49AP//F019trrMv++u3V4bISD5YCZM2c+VPPwqeHT0HLNkhrP8669LrP/SKff0g/883c5fjK2iTazyBjGtkA6JT0+OCwnLE60skyYDTURoSjTlhxgZpP2A+0B+gm+KymjPZmNnUkt2p647VVIEpQJkcVAGoUKlFBD6kHCDusYUuAsCdwDQCdiR+b9tVvXls2dJXlmu2zuLJz3yJMkGY9cXUrHzjgacds3Dp4Lp8lsRhOgUTZ3VvuBdnn8BitYvRGoQiYH+kbo7kWti3IuPVB6ZoDR6Z+EOFIJEgOZkEuOHB4bISn2W2kWeJfD0JCiqVspu4wYtXzhi1/gGcmS3GM4ayEQAWpZ2fA0EMnffeXvluQe+6fqf7rkI5d4nvf3FX/ff/ZdDr7uf153x6w7brntFtz1PO9Pg9/749nhsRErasHS3/+Xh/7q2mtA/8kVT07eWrFmlo0tTSzALLeyc/L8SwqxyiIXGlfbmq1kxmGxBFkqyrpK8F1ziplHzDHF6knSXtb6jZ2u0j/shUISYLuyubP2Ht23oG4hTbmgbmHv2T7Zw1sSu2NR0Mf43rN9fkWFA6SN5GDZxhjJv1Vqc4okHmE7SftGyPa4SEkNU7ESLkhz+9V1+gkazJnghDhGMYZtoTp7kPkhAPfQIeXBjxVhWFGLYlhekjK4tdKkIMF3OQwNOLaSV41Jx2XEqKVmSY2pFwKRNY1rBt4fvH/e/TwpGR4bOf/B8OrnVt8x6467v3b3we4uORik3j79zpyqOZ7nXfYXl/2fV37vh1q4dNexQzfcdIPnefd9677TIwMmP+PqiTWzWAGKtXNcPPsNjlUWv0VD+2UVMQcz0/GWzDvsZMO8i+QlE4dqqzxCUkVvJGkvK3qzmga5HqhCWscvaaoSFapV1AnQ39jSZC4kKXCA7JRcybYcg7Y8p5FeoYCaOTGSniTtGwnDEyCiNAzFKpeQyEb5oemBJkZR1MikmQpADaBHuaufn8h+K4awohY/6KCkA2ILyD/migFHj3Bgv6WplhQ0kkYt+dGh+dn5nufNnDlzSe6x7nePyRdW5BMiHMxAxf/nld9f9heXeZ6X+8kToajl7dPv3HbnbZ7nfeWer/S91z9JI8WaWerX1Zv5cXqiFlkzVFupKGCHhIlqKxbsAGYeCR6f5N1YfU8JwtdTZL/ZyWP/jS1NqqKoMkA6LCqcy/QqUzCtjM6NLU2yPsniQcoDFwbr19WvbFoJggvqFi5eWaucR14+sbaOI/Fqi6yXJGtdi3cjbCRp3wjZHhcpqWEqVnmCfK8FKREv/+FZknwREOYzA9ys7lZAANfCdIVpyJuUDi5Nz1QIjK7FAXxCxFtmQ2EUP5qcqMZL9lTbLwDVsBRcRoxa5MsonucBeajjk50vvXj5R6/gyKs+cdU/Vf/TvkMdgC9qMFR8+O3Dn/7spz3PW1T7yPkPhq1PiBY+8v2ewRPHTh5fWv/4zJkzPc+bn52fHx2apJHiyyzMzorD6YlasKVWqrC+26/SjZoSfFcNtp5Im2OK1ROf71klMlO/Xw9KkXo645c0JWrh2wz16+rbD7TzpIQvyWJwZbYSt7hxNKEqSxdKIEdaRZOd1vokByTWTti+icklF/JDLfQE+YQIpqRlcUtiArwba36sYMJrv56tu7ZhOn0P3Fq9AimaDJjhgATCAUQtft5o7pGsNKnA4LschoZfAKphKbgsAmoZHht5+cArX7/3G8AWgC8zZ85cs2Ht+Q+GraiFxycLFi08+5/nrKiFMAiNqz5xVfu+lyZvoZgyCyC2FUdPN9QyXhsF4xJ5N/TZEDc0mfIM39YcLz/xjY/J9/wYVoleahJTcLbRe7ZPliJS80uaACKLV9YuqFvIWuWHWkDZpG8tKlhaoRa/zSsLCUmZSEj6gzU2KWwkjYTtGwnP4yWizIECrzzNNDdWUR5IUlbTyAIPV1QbIaBkeYAnZaFXsBN+u3brWoISuQSHqSdE7C+wYaXJufIuIJR00YA2eSapNDUiRi1zquZsb9vBv8NvH/Z76DM8NpIfHdp3qCP3kyeu+sRVfNPFilo6Du/HO7Y/ePwHfk+IJGq5/obr9x3qiMROkWcWllIVVOR2+qAW86A4IA65A1O5jHpDI/gu9mplc2dNiaiO3PeUrsxL+p71TUaOR5kJrvqZ8kz9unrUDzwCUOZGFaHFF9QtPHH2RP26eisqMovK8NgIiYMIcKdM9GBYwSkrKb9iRpHjaCRv3zikCKYpEQk1XyBqCaas7sK7kFStT94xHoY+eqrb+lY4vbFs7qxfvfirjS1N5Nn6yEmetTCxk0hAg/nHdFcpV/BdrC6fr8m5KW5HjFr4SqxUmQQib/a+VfnN2XfMuuOJn9bxjZZV/7oKmGPnSy/KwSBy/oPhFat+hgFbW7b5oZaaJTXnPxiue6oOL800bQn6oSHJXnA72swCz2YBti7NymG9O5nOaGWZDCdqLh8isBRxZ6xG4plRQDrIlGeUetUWDWlrZdNKLIG71t2buXTCPUWxF9UVYAJZiqgTBQ5gysUra9VnrhxvJYK75i1ZPEgBDfOsRVlTMWYl5VCL0mpUl9KU1LxZ4IE2FK71C3O/Y1GSJSYwpfAzNHlTU2Q/Q0MxppaTS8jMpijj0o8ml5DOLPWD8NzY0rR4ZS2wPu8GRK6VhynXGTFqwcslPYMn8Neb7zv3X+clEOl7r/8r93wFJyu/2vqrt0+/s+9QxxfK/wafCLXve4mDF9U+sr1tx9aWbfPm/yOeJX31nq/25i/+Xqf1CREA05u9b91y2y2e533pq1/C4EmaJMLKgeypXNxkbxqiFnnKCi0xaNGQQCT4NEXdHbgwyN/rA+W1W9fOq53HzRbTJX95zLRIsXoi9L3CReAJikyXarosRbylwAH7mbhDj7h5+mjSJ1d0DJYuE7VwjGwwlaMOHT3Vbb7mKccn8INdRbEv7RJ3gxhCaXV29eyVTStlRJvmJm90HvYENJg66BvmYAkp5F2JTvz6rScfMndhohxGJCGVIEuAHCzXNUnhpRmmKQiysmll/bp6qJpSHz111CSVpp6IUYt8TON5nvVX5n619Vf8CRY5ft78fxx4f5CoRd7yPO8zf/2Z/Uc6ofoA1DI8NsLfg5FfIU3YZhFmFvgWs6cfS9MNtSDXMOT8ih/VpXAJ+9Gw3mXuaD/QzrSFhVgpFZ1SuIzQ9woRB/6JlCo1Zs61lhk/w1kLDxGMVf8mfb+iIt9/3Lpr28GeLrMMKMZAau9b+1Y2rYRoGGAuagoebU/C9o2W+QKpDVwYXLyy9mBPFwOT2iYFqXk/rMOqz0TB6Wjg0IInEH4/cMzwV9P9HMyvX03nJQKHmMzq/Bzs99SJA0xn5mEzluDrveqhGymkslEE1HL+g+GXOv7w1Xu+yrdxr/rEVXVP1eGnbE3UcvOtn/vp00/1n32XBghGLcdPvf3FL5d7nnfLbbe82fsWZ02sEWFm8QtIlbinG2rBZqXl1Z3yTYgAbMf0ZzWougudy0yn0lb9unp510qzWJ0R+l6wCMj4TLUcTI9V5y6yzHCwAgfsV4kbw5Bt+X8ORsOkH1A8UCe+vfjbwFtmoleMATDR6LKImnMVY9FeJmbfaNkunBr8Z+3WtTjvRGyubFpJ5YOUaW4uoZyH/WzQRVUWBSAw37JX4U86fg7m18+JqgEXgo9tbGkK5T/Y5dRdkJVHNUQthO/yruItNZfRoJaJqeO9P57tzfcNvH/xHzkr2b80ZZYSlEVCNNQPbqpUg5nOfFigRrL6th9o5yxmN/PlNazLWaXjinHbiwo3M75SAmANsYu1zICaCTdl4t7Y0kSLkIj0AazLW2QjoHio3a3fiwJkjMQpPuViqUsm9cdtX2qvKA1EHNUOHqQzMCThEjzeU+FsvZxdPXv7nu3mS2ympFiFXjcx1BL6PBH05VvAweIw2/i5K6Wmc0riPKqkXBQc8nIW+9PUKCZqmRJ6TFNmKTVZ/DJIsGOo0xQ1OPiuGlzil6Vmr/Gqi4l7Qd1C5H0Jj4geuE1kqpW3sGgAalFepLanfu93A/ta0QnZVhV3vOKHjp/q9g0VMAUDAhxPSVf4SDnRdNfC78qR06rtUEvIMU+aMkuaZJkOUerslW4rO/um275Oupg04FCLQy0hGojJ8xzZUA24qhaqoik9wNl3SpvPMV8sDTjUElKz05RZ0iRLsQImyXWdvZLUdvJrOfsmr3O3Ygo04FCLQy0hGkiBl09REVxVm6KGK5BtZ98CFeWGOQ1IDTjUElKz05RZ0iSLdOK0tp290mpZyOXsm277Ouli0oBDLQ61hGggJs9zZEM14KpaqIqm9ABn3yltPsd8sTTgUEtIzU5TZkmTLMUKmCTXdfZKUtvJr+Xsm7zO3Yop0IBDLQ61hGggBV4+RUVwVW2KGq5Atp19C1SUG+Y0IDXwIWqpdf85DTgNOA04DTgNOA04DZS8Brza2tr86JD7s2ogTcpJkyxWY6Ws09krZQZV4jj7KoW4S6eBQjTw4VlLIUOn55g0ZZY0yTIdvNHZK91WdvZNt32ddDFpwKGWkEOmNGWWNMkSUzyUFFlnr5IyR+TMOPtGrlJHcDpowKEWh1pCNDAdwqA0ZXRVrTTtEhVXzr5RadLRmVYacKglpGanKbOkSZbpEKXOXum2srNvuu3rpItJAw61ONQSooGYPM+RDdWAq2qhKprSA5x9p7T5HPPF0oBDLSE1O02ZJU2yFCtgklzX2StJbSe/lrNv8jrf391Z8WDF/u5OLt3a0VaRrTw2cJw90Tb6zvVnc9WtHW37uzvL5pS1drRFS38aUnOoxaGWEA3EERVm7vBbZX1zY64hJ++2drRlc9V95/pl58TarR1tZXPKZArLjw7lGnJqxYkRn/ys0q9qyMjrmxtDhT02cLzq0SqpamZzNdf0DWlx2VYTp9xl6dvXqtJjA8crspWy+sYUMqYnWPnJjw4VniUUTTjhuOKdPn9s4Hg2Vx0Kd+jnxwaOY4paLteQUxFk9kBwU/P7uzurHq0CD7Ltp6h09E8Ktezt2rd4aa35t+q51SfPn+Ldll0tJ8+fWvXc6sVLa9dsWHt6ZIC627ilafHS2sd//HjX8UPP/dtzILVrbzsH5EeHdu1tR/9z//bcwPuD+dEhUl68tHbjliY5mLdadrXI/gm3o80scLtMeQZ/0lnh3LylPHvC/MuJ0coiKY+rDayw+9AeBJs1RNnJfGQ25KJKsVSjaphaPdx7RObfvnP9NStqZHGVqyTcLhF7+UkNna9vbjzUezg/OmTFE8ykRC1mQ9E36cge2c6PDil7tXa0KYvj0sSmatGiXJa4ff10og4n6AZ+49E/XmQTR5bIjw4p1GJ1mGBvkahl1ebVwYPhotlctUz1UlHQnkxB2DhZxzOaSEH2yDZ1Tso46bFGB8eQbIk3JoVatrft8Gz/3Vc1p++9ft595tln+t7rv69qjud5M2bOeP63m6iURYsXeZ53TeaaVw68uql5E4gtfOT7QCf50aEzF/KP1D6C/g3Pb8DEpfVLueyX7/7y26ffIUG5KDsn04g2s7AYI37K5pSxjrIq50eH4MpRnShQ/GhlIdnCGwh4ioyQvphHspWyk6He2tEGtVA53LiELipVrQb7BXCuIWfeivX0WDGmLotuL8WPvFzf3Kg0c6j3cK4hpzqJZg73Hql6tKq1o40nLgp/kHiuIcfciqrAS9lgtUDhQea10iRO4hIl0ihl+waoCPgDOUpaRLbNcEaYW4uxWiumLKEAStmcst2H9mRz1ZnyjCzbuYZcaOKVuWV9cyOEMlOHVIhqM0zgsbsP7SmbU6bGyEsssb65kZ3LNiyvyFbyUjUgEVgiezyVocILT6ecUgqNaFDL175eIU9ccNYiAQRRi+d5N332ps43X4PwErUcevvwzbfc7HneHbPueKvvKAa81Xf0jll3eJ538y03H3r74pbu7dPvfPnuLxO1XHrZpa17/vykUC4aiX5jzSxm6ifP1ocXvDuxRqyyhLIUGtXWZEG8AvomEca/YkBmFnUr4FLuCK0lMGBu5LeKay8/cZDpVJaUl8QTkoIJHSQ6wfT1zY3WU3dpCNkm/fXNjXAe611zaU4sbqM07RusE1OZVH7wRPOcwzreDHDpWpnyzCSzhDxrgbfsPrSH5VzCbgkRFA/mpZUrChiQi6y3rJ3qWBHE5fmKbHNpHoxZ705r1PLMs89QTWxIACFRi+d5331w/rvnTuZHhyRqGXh/MPtQ1vO8Sy+7dOdLL4LOzpdevPSySz3Pyz6UxQFM65429Nwz+2tXfvxKz/OW1i+1LsrOyTRizSzTCrVIK5iCy/jxy1yAFNzGWeMQq0hqcl3ZJkAhMMJujAmI/XJWku1YfS8SQWApuVVVLxmY0CRTnimbU7apdbN8KZJpmjtXyZ7EIrItx6Ct9tOsLlYgZU5PuKf07WsqRO2mEGiFnKCAVOEQB46k9iQyrieWJdY3N8IZJAig26jlTPHRw9ShBpjnT0hWdG/reBU+fk+IWjvamPpIR+ZA2eYANvzUpY6aOL6UG9GctYwXtcyYOWP1+gaFWvKjQ3xIRCDCh0Gbmj98roSeKz9+5fa2HRXfqPA8Tz4kklApEr3HmlkCTiPNuj55cWKVJZg9a/ViUZENgoaL/tC6uWZFDTdYCDwOCChg5o5QsSc1j1SITLRq82q58So8HSv6kVwW0V5+/DO/S5NZ2xIoHBs4jl0sUyT8AfmapajvXH+uIbdsw3IQzOaqYX0r/Ux55plNq3BIzrWsLhHqDH7Cxt1fgvYNFhmWks9W/ExDQ0uCmG69hWFxZwkykCnPyNDmsQpzi2TbbPvtZ5SncRgbCophXURBQGRhwLINy1dtXg2FV2QrGSZWEzz2zGN4+EVtWzENQ8+UsZR7okEtfF6Dxva2HfnRIQkgeNZy/Y2f+srff8XzvOtv/NTern3yrCU/OsSHRAAiPYMngEvMx0MYAAQjHxLJRSPRe3yZBS4rg4cMw4NNZM0BE2vEJ0vh/Ji7cxnSpINh2Hljp5LNVa/avLriwQqiCk4M2EaYIZ3NVW9/eYfSLTdefDmuFOK5FOxFi6gG9CPVaE2L2DhWZCs7u1/Dey0V2cpNrZurHq2qeLACzq9yPU2gVvS7VNP9hpVgfynb16ougEK+mYQaXGCl5xOiVZtXh06JI0vwVUJg3GUblu/v7gROwhELMQ28mpcqhzAdmZ8xKldkgiKYBk26PTA3UYupFozHAL7tZy0ZVnup6dYxU7EzadRye9nt7fvaP3fr5zzPu3/e/Q/883f5Nm5+dIgPia78+JXt+9rb97XjGZD5eAiHMXxa9MO6H565kFdQKRJ7xJRZEC0y6ZNboBnTgzlgwo2YZCmcH6AxBiGPi9kAKQa5fNyQa8i1drSxpMn4NxlQBM0BqKbgRL5LAbJ4LZfwyDo9gc6i28tPRliB3st3BdjARJk0mdD3d3fWrKjpO9dPG/HRO2bRxLj023/Ti0gZE1WN4WWBh/9+IsfRX7L2tQoLPcv3qYNj0CSCA06EG81nDosvS1w88HuwAo8mwbyZZtGvvEU94lEeSxHoiughaiGglxPh//yGPPSsxUQtPCKik6NBWMMAREMN4yWPKilIiTeiQS0P1Ty8dec2/uFdWnnswbOW28tuP9rfveV3v8G7KTibwTdE0BQfEi37xfJlv1iOAerxkOd591XNWby0dsGihYA15XeVHzt58WeC5KKRqD7yzMKDAfoW+WTaZT3grUgakctSOFcqF0AJ2Vz1od7D2LIgaKVOMMVUBR7lqAQhOWHZY7KQd9HuO9ePJ/TILHIVZJZsrlp2mhQS6CmivQKkk8fasBEeGeA7dihfFQP1MgSIE+IwuavcimRqvkOAYSx7Vk9QYwLEKeKt0rSvn0L2d3duat0stc18xfrHBq1DavL4RG5LOIBVmYgh2iyBbHAxuv//X5mTDPi1FWrxSyymQpBDoDQkFmpm9eaGzu7XJGpRUUOFYIqC7/i+0pwiWfWLAjnGT+RS7o8GtRT+XgtQy+mRgcVLa/lcSaKWw+8cufX2z3ued/fX7r77a3cHfD3E6fIF3hJHLYhDhqX0DHh8rLC3WFkSogGRIPZksMmyhLcftrZvY/pjg5pB8C/bsFwSkZrkJt4vuXCw1RwIdS7Hwck3imWvAEn5PhBQptQS7ALsgrvbX97Bh+u0Y6Y8g1QOPeMDTqZyfvbPHukeYEzlYllHydbN3BUAACAASURBVLkaw/6SapSgfUP1Y9U2Z0Ht1sCk57AYyy0K7R5flkCZJ1bmitIz0Tb5V2UeCY0uSvGVckw4rjZCks7EzlqCWfWLAiUO+Z8qjWhQy1NPP3W0v5t/b59+58yFvAQQ6qwlPzr0xok3/vZLXzTPWgbeH1z4yPclIuHjIX5P9MUvl/ND63nz/3HGzBme5+EhERdVLJ08f2piJokwswSENB//I+lPjNXQWRHKErqWdcD+7s7dh/bgFrSRKc9UZCv3d3eqh8RyZ8bf/MAYTjSzBkaylJqoRVZWmbZkAkUq4VtsVkGS6Sy6vfzE7DvXv6l1M+/ypLp593bTgc1yRcMhU6vMK1M54sKsK9I6LBVqM2rOUjWD/BerUbL2DVAItY1YUxswaWtJxDxsM2OT42PNEiZqoTeCAes5kCrzSEEyaZB5v4b8ppoezoZKcSSChcihWpdxp1ydjHG630hOVDFIBkqzEQ1qkSADj2/8fmUOZy3QxbadL1x+xeXyvRb0b9mxBUAEZPF46MyF/A/rfojfqduyYwu1yR90wUMiohbFEl4Q5qzCGxFmFlWJJQ9wX3qbvBVhO0JZJswVAgnRIquIygsIM8SSTDTcqMm6RWb4WSN6zMwoUxJ1jtqJ1IBOMEP0Q/oJN0rBXgEiMxXK0iU1LHEh1KsOToJRy6bWzXhfUvoJHYCpHHV096E9uYYcMRPO23INOYWGA8RJ/laJ29eqEIlaUGv5PY4szHIu8p6Z3HgmKgejHV+WkMlEggbyoBwY/UgIdHj1dEblGZAlIMCJCy7htBwvGRjXWUtrR5vigfzLRErUglePMQZvJtWsqGGwcO5UaRQTtQy8P/iDHy0xUQsfEnmed+vtnz/8zpGL6e/k8fK7yuUDI6iYZzP4lZfSRy30Zjbw41rWHzpU+XqSXlXcLMlMJIVihPOH4aWMyHcSoIBINlfdvHu7RBXol+WT3yzIn+fnmS1yBDMpEmjz7u18foEXgeXSkrFk2sW1V4CMSN9K23z2x3eVJAXeJYyACZp3b1evEMElvlXzLWBWBXRM1EInkdYEb+poTfJTCu2StW+AchRqoTlwaGoWQlhThjyJI2bVrVizhMoJEjSQK4VaJJiggxGOowdT9hz58PdtZVzIvARSABzwbcmAWhf8YDoBOi6/VfMtLGGFfRK1gL7MaTz0kuiNsk+VxqRQy1QRcjJ8TsXM4idv6cjCXCAjXLLN5MXSlc1VH+49UpGtRI9EFX6bOfP5AoAOQ1euCCJMELhlHSlnxdouHXv5icm0GADvaGv5z94C90DbIEKz4pKO4ffch5aS6d6EU1hdAlw/WZLvL337mjoxUQvGQM+yrvNLY9UpaSLMaXp5iwc5fnhIAqZCsgSIy2otvZd7SP46FCRSoEpyCGfDh9zWYZBO3pKxQOhz8RcX/X+bH4xBQBCkM4MByTnaVDgPdahMzqV1AiJXCltSbYdaQv7F46mYWfw8rLiycE8ssb+VVWu+sEKT4qIKK/MRdhbXXn6CEFAGlBPMVUmWBM1HCTK/y1QL3CnzPmsVUQvIogLJpMzlCF4VHTmgKO3StG+wKvxQC2sw7WLdBliJS3+IO0uYqIUMgzcJgq3cyk7gBj+vkyOtbTitYsA6Ep1K+aFnLZjFgLUuBBH8gGMAM0W85VCLQy0hGiiid07zpadiVZvmJhuX+M6+41KXG+w0AA041BJSs9OUWdIky3QIYGevdFvZ2Tfd9nXSxaQBh1ocagnRQEye58iGasBVtVAVTekBzr5T2nyO+WJpwKGWkJqdpsySJlmKFTBJruvslaS2k1/L2Td5nbsVU6ABh1ocagnRQAq8fIqK4KraFDVcgWw7+xaoKDfMaUBqwKGWkJqdpsySJlmkE6e17eyVVstCLmffdNvXSReTBhxqcaglRAMxeZ4jG6oBV9VCVTSlBzj7TmnzOeaLpQGHWkJqdpoyS5pkKVbAJLmus1eS2k5+LWff5HXuVkyBBj5ELbXuP6cBpwGnAacBpwGnAaeBkteAV1tbOzw24v6sGkiTctIki9VYKet09kqZQZU4zr5KIe7SaaAQDXx41lLI0Ok5Jk2ZJU2yTAdvdPZKt5WdfdNtXyddTBpwqCXkkClNmSVNssQUDyVF1tmrpMwROTPOvpGr1BGcDhpwqMWhlhANTIcwKE0ZXVUrTbtExZWzb1SadHSmlQYcagmp2WnKLGmSZTpEqbNXuq3s7Jtu+zrpYtKAQy0OtYRoICbPc2RDNeCqWqiKpvQAZ98pbT7HfLE04FBLSM1OU2Ypiiz16+rr19UXy7+n9LpFsVfcGms/0D67enbv2b64Fyp9+qm0bwmqfeDC4IK6hRtbmkqQN8fSBDTgUItDLSEamIBXySkHe7rK5s4KThm9Z/tmV89uP9CuJs6rnRda3toPtC+oWzhwYVDOZVvd3djSpDg52NNVma082NPFKapRxCpb9Kq2saUpU57Bn9SbqZPes33zaucFqJFaRQkJMBlGmmAXE5WTkCwbwcNMB9jY0kRUXbgUXG4yjaLbd2LM16+rp1dIc5gmU9GnlpOaV7civ2w/0J4pz0huzSWsqWC8IljHb2xpsi5dv65ehpXJUkDPwZ6uQtKjSQHJlhZcULew5dWdvGSjbO6sQsLZpJ9ATwSo5bU3X1+Se8z8W/vLdfnRoV+/8PyS3GMrG54+NXya8rTuacP41958vfvdY0/8tC54+hM/ret+9xhH/vqF50kKDd5SdJ76+bKT50+pweO6jDazKI9RLutXJMbFcMDgaGUJWEjd2tjSFFylZBXkYGtYyozJALM2qNv6dfWMQAWPcMmRYFslX8nb8NhIkvu2ZOyFhB6sQ2lQPw1sbGminuV4s20tD3KYNBMHW+EIMLGVedWJA56WV3eWzZ2FaqEGmJfWSiP5nGQ7GftOjEmZi5RmrGqhmeRyMJlf7BO1YJhaBZfwqAlEvWQDbRXX5gBmnuGxEQ62ohCiDYpgNiT9lld3WrdGpCMHB7g04fXw2Ig1PYLOxpamgONMCc3BgCmjHCN5K5F2BKhl50sverb/7p93/8D7gzVLanBzxaqfnf9gGGKvaVyDzp0vvbj/SOe112VMAnL6tddl9h/p5MiaJTVKfbyl6Nz5hTt7Bk+oweO6jDazSDeFd9IR2w+0s3yikPByXAwHDI5WFnOhgPpnTUlMf1SLrEwBYSmXNkNO3kWbOUhFu+znLNWZetRCwYnJ/MoMRjK5B6RXmHv7nu2zq2dbTW/tlLFAHlgPpG9InlU7dJjyK9IfHhtJOFnHHY9KMxO+BIikdUw60DnyVQDcyZRnZDWVmlc0mRBUv7IdTKaOaYMZUI5HnC3dRrqBNb1wMESgIOxXbA+PjTBq5C0/MTHGOoWdpipIuUDUQjFNGXmLNEuqESVqqfzmbHnUgbMWopbLP3rFrr0fPgKwopYvfPELftMLRy2KSKmdtSjb+7kXvD8gTSg6BV4mliX9Igp1jmAFbMtdWkAhZBlTwpohpwbgEplX5Sx5SfrTFrW0H2hnEqcOsc2lyazpzHpkRQoEQyTCW1Y/RydKINrSTGybrIIspphrcdHSaSQWj5MR2cxR0LDUvzUGre5EnEE7KigDVv3KuZlY5LGcEtPK1fDYiJUxuTkJ2H2pnEy8gqXN9EWUNnBhcPHKWvXMxU9MMMm5MiNFiFraD7RDHKu80r5KsUW/jBK1rGlcY8pD1OJ53lfv+Wpv/uJbeFbUYp6gDI+NYHrhqMVKxOSq8J5YM4uZEcAY8oKKkMJ59hsZqyxyUWttU6HI8fIJjgxjM0PhpKRs7iyZ8qxtQJCDPV2LV9b6vfJCBlRD5giTZ5gm8mMwxQMuk7RXwKGIRAA0EJ8HKcjiVyo4UUpqLTnyoFFS84MjBT4+aD/Q3nu2b0HdQrwpVciOXAou2Y6qnZh9J8awWYMZa7KkMdhhIISeQgZW66uSL5m0jlcHpRhvdSHcsiYQ67EHOAdKUG4mPZBkrSkIeYNJ27p6gEqhWyQWuZFToD8q1LL3rX0L6hbCw00ZaVNplNJpJ4paPM/7Yd3Ss/95zqEWeED9unpu8aVP+KEZOWYC7SSzpKr9lJdRjR6UKCRBFavWsDelNkOOY3rP9i1eWSszLBIfnjEj3yl+5CNtcshNDzNImlAL9JApz9AVWdFV2eZIZFjgAHU+byrQqka/Ti6xsaUJ9YOqVuWEVlaNgGHwB/VWpkzQAb6kVonkMsl4HC/DrK8MEKBDFU2A9UQziBR5boF1YVblTnGjFuU/4MTaCYe3Mh/gElt3bVu8spaBA40xiAIm0hZWcAYOqVI2wF6BqIWzZAP6h8Nv3bWNL/OarMqgILel04gStah3Sna+9CIPS/7q2msqvznb87zLP3rFzpdetKKWgOmFn7UoItbjn3FpP77MglBhUka6h5MxU4yL1dDB8cliLq0giIQLHIxchvg52NPFE0sMmDxqAR2mBqQDphXchRWkwgvZu0urUZzIG0naS2qDlclqAlYgv/QKH1YqMquF2UPEA5PJoxHiRVX5TJ2DbMAw5n3MlQnaTN8m/Qh7krfvxJhHRBC7W7VEpEK4I+sl2vQrsAHUgn2LshdjVjFsOiS9UY3EJbniXbMHmYpVXH1lZhUWMmIkWF1Qt3Dt1rWV2UpCAWIyPn+RSaZwfybnWIjea6qCI4M3vXR4bizJoTSZMhaJl0IjIdRy7XWZ37+66+v3fsPzvPK7/m5J7jHAi4C3cSXoSR9qQSJQfkyHgBupvM+7E24knCUZFQxRJdHBnq6VTSsZRUouMywDEqKMN7QVOrEmR65Yv66eSZmdaKg0Z621akpUl0naC+hNKY07aVlU6tfVy0scucOTg1Oq0iQHU10DFwbr19X3nu2zFi0rHCkEYtI3JNuodrxlNkxVkM+oGknad2I8+6UpPh8EWYUvGe/tB9plvLCQw2egc2sOlA5grammvdCjaq1cna/USDeAh29saTKzDUQzUYvsoUQICkIota6MERoC2cwqPsfItdDJqPFjGGv5ZTP5yjk3lljl6Klunpv65WQyVtxGlKhlUe0j29t28O+dgR6etQB27DvUoT4XkqhlTtUczt3etsOczg+FzJdXeEsROfz24UnqN/LMwtKrSrjiMxgvq8EFXkYuS/C6iGGI6fcsTEZRaAVS6QbxOa923oK6heo1N8kYMyAKszXfBZQoVWsl5bjbydiLDmnVDDuRXmUJYWZk7mZK9dMM3UC996DGw2RyLbIhG2bGh8tJuKwos34wL8vsX7ggJtkJ9CRj3wkwRrQqtW1tM7p5F0YhxDTrN6s1tW1yyJhVt6SxcItAQY3kJZYjfjJ9BiNB+eip7gV1CymL2SAqglwmNfgevYtsmMLWr6tfvLJ2Qd1CRQQSmUtnyjM43UGyMlUh12JsspMN8kYbERtJtXMYJ5ZOI0rUYn0cI1+nPf/B8JoNa2fOnMnnOBK1mFhEgR5CE3NkwK1J6jrazIIQCnApchuc1jlsXI1oZSlkaVbEAFjgFx4BYYmleUDCqOMmj4lAJjUkDsaq2mrgpV12UjoTtYTWZs6dZCN5e4FhU/NUi3x1mtIx2YVqBsrPlGeY/UlENkhQdtJwslO24Wx8IYYYV4USiNPr5CEc4U6oIHLdCbeLZd+JMSyjDBQQGl29h2ZXz1YBTvXCatYdmlnIyZjVAcb7Ni6pEf4yLfAWG6bP45ZVahNS0J+hk5VNK5VClLAMKOhHDSZX5ur0TD+GCz9rwQNZ/AIeGCBNhNLarWtDf+STrCbZiBK1rFj1s57BE/zre6///AfDErUMj42cGj5d9cC3J4laFj7yfa7SM3hi4P1BohZ1qzffd+6/zk9GoRFmlmAHVUym4KyFGCK4SjHBKQ0whFQ/T3qZKRColdlKvNuPt0SJQtSTZhY/Jg6ZGtjJRacJapGH/NQ8G9QGG3xGIM3HlMqEyPFs8MTLWskwzFq0aDiSkg31fhK4qsxW4mXJ3rN9yL9EsWQbW955tfO4z5Y7WrlE5O0Ic0vkvIGg/AqPYcKGWlTmN45BJ2xNnWOiKuSSmtUBcAKkCjwNKqerNk8vAraLfq5OQSRNFHUJi8kV5FVvfPOED0TAD/1f6k2uYpWXIebHcOGoBeu2H2iXMvLAm9IplkrhMkrUQiyChvkzcRB436GOG266AWMmdtaiFlrTuIaoRd0qqV+ZU74uzc8n+ujE5oBuLUdOpp1wlkQAwPv9XpuQT4iUaH5hCbIL6haqn5DnRlnSkQHpzlqkZmRbba2o+d6zfWu3rpUpmAWAzsmHPkiXSN9MiHIVeDX2u1hR4k450lq0rDSx/y6bO6ts7qzFK2vlZtoEoPKVcFTQtVvXopJtbGlau3XtvNp5OJj59uJvsw5JxqJtJxyP42Ue9tq6axs2AAylo6eOqiM3jKQ1ZVWG1eAt9CtwMl7UIklRFqzlV2IxhYwhdUgnIR3FG/spNXvg5/LTIfm7t1hRhgwmUlh4vuIBs1SnFbWQDT+GC0Qt8usnKWOwPrl6cRtFQC3DYyPrNj6L50TTELWYp4sIadaD4JOJybhLMlkSYYmnsIpbZA0mEdxVOzBOMcNSlj05i+dSGMCCigBmLnCohbqVDZ6asFNpnlqVOudBmty/Mv0hC6OWMI+bOACUTVcpELWAMt2JhYFVEwMkh9yqMtwkk/Ccrbu2VWYrTW6pn6gaycTjxLjl41dOp3HRg32I2qkTRDLo5Kmb8ivai0ugAavJKOaK0pTo9KuydC0FaOiNipTijSwpqdlPSSVAAXH8yz50SzJfv64euVGxREHUNsx8u0jqxI/hAlGLfBGQMuKUMYBJKX4R2xGgliJyn8DSpZxZxit+3LIgU6h0YDKJqGBUq1rI8QFhyRMa7BhkMHMnNLt69tHTF9+t44t4Jl6UPeCHkEveMtsJlLThsZG47YW0SHuxkGfKM7Lq8JGczLZQlNK8pLCgbuHRgaP48To5kfZlg4WE1ApELaSABhDJn+xOidBPrlAmIZryOvkoRIFdtUqElwnYd2LcEtvJ2myCS/M0y0TAqvTyrSPElHQMGXrKgvAQ1SmNK+kEHOtKbahk5ZdtWNHlXHos8gCOG/ENDjMDUR0zkhlWkibbxFvW7SudmdSwkJmjrD34Rk/BI1JgAFqjmxwWveFQS8i/eFyymWUCrpMmWRDbDDOrNlRlso6ZQKfM6ROYXviUNNmrcKknNjKgsJEgMj58xuobrEZyA83pkTecfQtRKYyiYDQnwqYStfBWTA1kHsWPtczjaeOvXvwV8Jb0LiuksP7jBpFLYXq+NaFBsUrMyJmZGEGHWhxqCdHAxBzLzZq8BlxVm7wOS5mCs28pW8fxVrIacKglpGanKbOkSZaSjagIGXP2ilCZJUjK2bcEjeJYKn0NONTiUEuIBkrfidPKoatqabUs5HL2Tbd9nXQxacChlpCanabMkiZZYoqHkiLr7FVS5oicGWffyFXqCE4HDTjU4lBLiAamQxiUpoyuqpWmXaLiytk3Kk06OtNKAw61hNTsNGWWNMkyHaLU2SvdVnb2Tbd9nXQxacChFodaQjQQk+c5sqEacFUtVEVTeoCz75Q2n2O+WBpwqCWkZqcps6RJlmIFTJLrOnslqe3k13L2TV7nbsUUaOBD1FLr/nMacBpwGnAacBpwGnAaKHkNeLW1tfnRIfdn1UCalJMmWazGSlmns1fKDKrEcfZVCnGXTgOFaODDs5ZChk7PMWnKLGmSZTp4o7NXuq3s7Jtu+zrpYtKAQy0hh0xpyixpkiWmeCgpss5eJWWOyJlx9o1cpY7gdNCAQy0OtYRoYDqEQWnK6KpaadolKq6cfaPSpKMzrTTgUEtIzU5TZkmTLNMhSp290m1lZ99029dJF5MGHGpxqCVEAzF5niMbqgFX1UJVNKUHOPtOafM55oulAYdaQmp2mjLL1JWl71x/Nle9vrmxWHFSlHVLyl77uzsrHqzY391ZFFWkctGSsm8qNZyMUNMzOyWjW+sqDrU41BKiAavfoHN9c2OuIRcwIMJbrR1tmfJMa0dbAE1rZW3taMvmqvvO9cuJ65sbA0gdGzhe9WhVQIU+NnC8IltpkpVLTL4dXNWWbVguOUTqpFB+poEaK7KVxwaOj5fDXEMudGKuIadcQjHGRaFDMpwfHZI8r29ulOo9NnA8m6s2eSaR9c2NJm/WzlxDTlImP/nRIaur5EeH9nd3ls0py5RnzCXk9PG2g+07XmpxjF/f3GhuFUKjIz86BLsoTyCH+7s7l21YzkuleT/6cKRMecZkSZJiO9eQK3Akp0y4EW12AhvWwDGF6jvXn2vImaFBWfy8Wg4oXKucVcTGpFDLyfOnVj23evHSWvNvb9e+Iz1vPP7jx3GrZVeLFPLMhfyG5zfg1qrnVp88f2pv1z6TyOKltRu3NJHOxi1N+dGhjVuaFi+tffzHjx/peUPS5C2TjlpdzQq+jDazIJgz5Rn8+QXV+ubG0AodzLb1brSyyDLDhELR2CibU7a/uzPXkGNPcMNPJ/nRIbMiKjFlqeNga9Ba8Q2p+eVNDIAR/SofiUy+EWCvvnP9m1o3Sx5UjpMIAFUBamfdZSVW5vCrNCxFEmcoGYkhUOlxNqMY4xQ5GJ2SZ2lKLL1q82r4Eikollo72uQA0FfuBKn9RJCughiEcqSeuTroK+2pS7U656IRYF81sliXVnUxsgK4QrxLc8jBh3uPVD1aJa0gNa+iT+YW6tOaT9RyLPABlqrIVh7qO5zNVSvD+V1KnqVEEWYnis/AMRtqaRUs6q7UrbrFzEDFmgNKsGdSqKXvvf77quZ4tv+2t+145cCr12Suwc1535337rmTlP/wO0duvf3zuHVf1Zy+9/q3t+2wkfEWLV5EOosWL8qPDi1avMjzvGsy17xy4FUSRAO3TDrPPPuMGln4ZbSZhYHEDZxZJFhOAiKkcP7lyGhlkahFroK2lFTe3d/dWfVoldwZWKuXX9Yw+5mqGNsoZjws8QvagFBn4pCcox2QATPlGdOaJoXCe0LtJeuHFN/PNK0dbRK1KENwFkiZqvbrYVGXqiYEUYxRfNo9WKVSq6RpEmEPGxJ2gPOKbOWyDctNKba/vEPVLToVqpE1pwc4CXjwCwFyGGpfjixiQ51XqUsrY+ubG6HAgBBT2wbpOVbFwotoCFO35ixzDLj1c0h15IPBik/EiOlCfj3/t73reY3zOMP7Bzi3GPkcinBbdEnIsU4NOvkUaFaIEjAoxwpLbZNQNhSilsU3WyfbItSWf1GwitMqIUllGtdyaW0ph1o6WDapFeFiWwotpFHvJTztw9P3nZnv291P2tVqggmzszPvvL/fZ+abb0VH0kWVVRWcykSSXFlfnWhOzi9+MNGcRC3wyVMlonJIB43gEvwqxvlObJsNY21/rAa1DB4efLPxlh5y/OWvd4g2arXa4OHBW8uL5PL81QvEFga1vDZaVzpXfnOVdEqiloFDA+M/HlcivXPWQg2gEUwB35zDn6gPHx/uWdTiywxrIQWMpQwfeKxenMtGLN7MrhrjtSTjwDYYkAQWyB2L926bimVmsSQTaHq7QAQdSRE6aRRWtaW15cZ0Y2V9tT4xYtjmRzWNqsgbgqhFeY7Z0T9n0bqCNnnQxvDx4dsrf1KdU28KShIFz8MRpQ95YZHZ+YtaIXhyEJQ9WLT2LWpJRBC1ra5Fn9FnJXADRhzHoNGcaS7cvZG2JiuxelfQKDQ0d33kkw6GdUHKR3HQATxqoRQ7mp02t7c8n15X1C2YWbx3G48yKbtpUJ8I9oQFdSRF7pFGNajl6PDR+xtrRiSiDQCUqZNTz77e3NzeerS5Pvr6aAy1+HMR0imJWoLHMIa38h8LK0d5Un6kRy2oK6jKwbjyRMr3VC6LlhnDRqza+YKRQC1+MFbxJQ0RjiA00R5LLoZh/cgMqJ3NmSZ2Tsi2/AqH1ZUba3N7qyV7GamNacyJen1iBD5mkpoebEBAQwedWMvkNZQrdKrODWPUm7e7ruVNzInaQB73ytdTKDIT7AQ1Uw+0zjVnmo3pBooBt87mPE9ZYjsWAhzQkn05a3caVBqW80YMxqY3ByayuMaY1+VM9HkUAj/xrqvWCSKbmCzkStlAZwK1BDUANKD+Q/xRMjsZV6SY1xbmELZgTIOF/AcbXijusnCcw5Nv9AehTJBytzp3A7U8f/DggecOHDn6ysrnq5vbWx//8ZOBQwMHnjvw/MGDtVrNnLXsK9RiNqxwmtn5i9wUVusWlWfJROTEUrYPdV+9KHWwOgY7EeqINz1RCO6fuI9EMvXX2UzeNJmI1sGihRmZ4rTaaMlepq4ETaPXab0hgmctwaztO2FE3OkzBjKMUQkJu3MMGqAwdGzIlCUualALjqDM/evYfV5dS/O74jxThDCFq7Ou+IYBdrpWq6jUzN3pj4wRLxR7THkjrDenkjBfUIeUQjXvo48EqU+fXvwsPwbLxRwymCu8q5Nn0CFLStx0tpSdSOfUpdNvvPMG78mCCClTOjoqoiB905kQinSwcwZ86eWnQlQ7Aqf9v54Yu9cCIMIzkpEfjuAWy/mrF5589fQnP/tprVYbfX30tdG6Ry08g+HlFdIpedaiFGq1WvAcSFWQbrdUOdKkzLfGCxEDKIGsi2ZKhx8rlwWlUc+EySGDij1o+GKZrl4GgiCzmHSJzHJtYQ4XNcyLD5oQlRnWddU8BvgMqBOxjfPHEmZM5x8T9mKqYvYxuZjSkQ0MMKrjt4mGHlFgWKwHRjf4wDDGhdTuiAWWQ22w2nmjNGeapy6dxtMxA1y4ijkYY7/XT7BoJbbs3pMxmCg2FgLkIWFfjulWw0SNN6KKD1PSUgQZahReduHZibqiLucNDdOwfpfUCfTPdTnLy8KvlA10JlBLMBf5fNVGdgLPeHiNey1n585NNCfHGmPcaPGyC4EIUYu5XeCFory8z75X8Ao4r+asxQAFg1reis2l/wAACURJREFUfuftqZNTQCo379x88eWXarXa7K9ncZPXnLUoKTzr6UvUgqrDBGeeMu4J1MJKo1IwHjRll9m3sVCZ/TRSDGuzljquhafjmkb5VawUmXMFkyjNR1KjyEgQYMYwzMGdN9JVjZohV9ShaUB7cKrh48N4hZi4xwz2+cskbp+XeVilRqf4sSIB7Q0dG5poTp6dO0cvUjyhz4mMUfROD14vopNwaewj9Q6NF3bo2NDlD6/42wCsuEGhghWrzGMj8tb7Zy2KQrwRGW7BZBXshMVhJnjR8tpniStZ+qo53HWsMcaj6KApyTPd23uFkaUwfHQhRVqEC1yikuxEfyOf3AYw9ExIciS8y8AU8xFjMEU1jCxNBaqj9lq7GtTy4ssvXbp2+frH7+PfH/786ZOvnirauLW8OHh4cODQwKs/eLVWqx05+srS6lIQtbzZeIt05hc++NvTR0qnzDtEL3zrhTO/OkMiH336kb6+1KoB0pWjVWrchZh9g7leGoz5NtYyU6qSBewhulhszFqMPdPPZMf+YKjzW2ps4e4NRFpsRVDmUafmGm0TZGh1NM+ATIFkfWV6wnglyzarnYrQXjttL2iDLJmPRjocA4w1xoaPD9dP1DU3YWKabV7ASnsmjF4IUt898y6RBNZVbk2brKpR6DOmob6BakT9GBPoKvgKpLgcx+u9Fs3yngKmsLSQQqyRtm9s1u70FxpRVeFZSvuJx3yqNDU0KKNI10/U/WsKviSDc1gnaP2Ew3tqBh8kJAVZ9UAd3Gp2CiqQ3m74NBLhI2U3g6EfpkFiL2YwNgxEU3G6264GtQSfwijaMM+Spk5OPdpcD6KW/r7XAl803gAno69oQ32rc0epPEvGEndL5+oMxYSAzKGxpABw41/lLXnWgtBtTDfwu20+bypvMKLhBEb0NU8nttpO28vkJpNejWkg0dm5c/WJkZX1VUrKnJVGLTAoPDMxMghVwaefpXZP7HepUjUKH1EpEbRhF9yxqJ+oI3dzt0oTGP3AT8YaYyjG5gyAPHC6Kh/rskj4ksxZppG2rxm8yx9NqfNG9NsP5TBYdHWAwhTzZE0NjSmz8xcb0w38OvbC3RsaeoZPXSLojWmH99RMWCl9tqvNTjwl0kJADwSGNj8UHrROY7qBq11eKHLO3ZcJT5hPXVqndL1dDWr53veP3Ll39/7GGv89/uffFbVsbm/xbWe8BU0cY54QlUQt3/7udz659Xsu9+Dxw6f/eobfazFf3d9Y++LL//td1JaUXmFmgW/R/xJsFMZ8Ym7iqwplwSo+9XP1WMrwIaSFh9NNA2MKt3edoBZdMZaqkJ4mmpPm7n0QxyjB9tppe2nhNGdF+KjJHZbSUsFUq8kRz2vMPVYwz/FK1sgVNLpPqZildldHMm3GC4uZeWykL1ZgrcsfXoEnKD88LsLqugoxK24P4PVR5nElQnlVkw+ePMQzMj1ALZP30/blWr3QiBkxxlthBjMKVCPS0CCOj7jkgToKZozfekgdNFwatRivwF6o8A9ZVJ6djK+qIFBscN9LjzVG0XjRrwCP8CvhGtTYQsSoKYVutatBLXoZBW39lTncouUvy+EX5zpELWZFHPb0+K/MFUYynaD8SE4p06g8S/ogJxsaaexEujEQXqsXR7KBKTxzQqRpjHFkbPPncRKmeOahdqQ/swSYZAUlSsAmnuyRmUoaaXupMgEpNNEY6c7NzTx48lBLBTkEHZ3Lr9CAWiA7E3RwfMLofrzaXbk1beoc1QvWNO9qeuLg3PCjN3N1FZyO4Fssh5tSngh4xq/SGTfmYDKMI4SEb6TtC4K7/3/4QxATBDuDeijMYHRFLKdKM6hlaW352sKcervqJBbdiePemMOrQ3KJ2AYGA0CKJq4kO4EmEbDBHFBsGdSi55cmQJAuaDjqViOdGujBxu6hlmdfb+JO7vmrF74BvP/7Xd32zlr2LmrxkU/voX8UxjxHttSoPEua1E9mGAbsQcPsIdAZTBYoJNCVCTlGtQndllBLMPgNt+mPZMObLz2x/LdpeyH1NGeaQW0HTcNSoTxgulEyBiALGz3zppF/i8qgBBCJ0Ve7K7emzXpmihmIKxEVivzHrKOrfPGPDTwyC5ZAFQo8/PbW73j8nihUnh/Tk7avGdzdjzEjxrhKZzBQQ7H3Phk0NKZ4awZNBq7UcMpnzGfM71BgSgy18OjRBA749KfCLWUnLA3YodEHrcJ1GRd8ymM2WipyYRuUCb8Kx3d3QEeopbus787qeyizFCqkKlkYmeZ9E7g+oIYGG09lTScY9kkE4aphGRQNiYM0y+cFBn8bZ6Hg1v92SJDDDjsT9tJ3I8tnK1YI5lyPoYeODf3oF+Pjvxznbi8hhanZwToBbzHJna9col/3hYYluAHVblwuwVtit22eoGE3D6DsvU6FSvgY2faSxphM2Dc2pVv9MSPG+EGIBVUBU+Jkq3yZBAOz8xc1+VDn2rh+8328l2SIq88bK4Ml0wnRPGrZ6eykuwL8uHN9YgTPcRiSUAJSn6YCJsOYXUw/dRKU3QzunY8ZtRT8xeM9lFkKvapbsiDGYsUVKSOY4Aolam+A/hCTIi3NfWwzNaCn1bzQHoeYlbCX/s3qRMkHz9yhErV0wlXnc1l4qEw9+VD6OB5fe/KA1w+ZZ2kg36C8CjhAFjALU7zLBTfuZkUSVz7ZhjNTLvYHGwn7Bsd3sRMm8xqLsZRALSvrq6cuncbdKajLW5A91CQYSCs/xky6HzzEKHvUkqbW+bdwUaNq/6szAOUTzcn3rr/HwYWpgEez0HAsJ3cuxY5SyKglo5YCDeyo/2XiCQ3soaqWkCJ/FdNAtm9MM7k/ayChgYxaCmp2P2WWfpIl4dN981W2V9+YMihItm9QLbkzayCtgYxaMmop0EDagfK3O6eBXNV2Tre9QDnbtxeskHnYcxrIqKWgZvdTZuknWfZcpLXBcLZXG0rbQ1OyffeQsTKrvaOBjFoyainQQO84637jJFe1/rZ4tm9/2zdLt0MayKiloGb3U2bpJ1l2KB56imy2V0+Zo3Jmsn0rV2kmuB80kFFLRi0FGtgPYdCbMuaq1pt2qYqrbN+qNJnp7CsN/Be1/Dz/lzWQNZA1kDWQNZA1kDXQ8xqobfz78dLnn+V/WQNZA1kDWQNZA1kDWQM9roH/ALPkynzWx7ntAAAAAElFTkSuQmCC;" vertex="1" parent="1">
          <mxGeometry x="910" y="30" width="588.61" height="610" as="geometry" />
        </mxCell>
        <mxCell id="nRx_onGV140uEVC1Cf9N-102" value="&lt;font style=&quot;font-size: 20px;&quot;&gt;🌻Make By Dakkk&lt;/font&gt;" style="html=1;shadow=0;dashed=0;shape=mxgraph.bootstrap.rrect;rSize=5;strokeColor=#1CA5B8;strokeWidth=1;fillColor=none;fontColor=#1CA5B8;whiteSpace=wrap;align=center;verticalAlign=middle;spacingLeft=0;fontStyle=1;fontSize=16;spacing=5;" vertex="1" parent="1">
          <mxGeometry x="770" y="339.61" width="120" height="60.39" as="geometry" />
        </mxCell>
      </root>
    </mxGraphModel>
  </diagram>
</mxfile>
